<svg xmlns="http://www.w3.org/2000/svg" width="1em" height="1em" viewBox="0 0 230 225">
<path fill="currentColor" d="M191.816406,0 C212.904623,-3.87384253e-15 230,17.0953772 230,38.1835938 L230,186.066406 C230,207.154623 212.904623,224.25 191.816406,224.25 L38.1835938,224.25 C17.0953772,224.25 2.58256169e-15,207.154623 0,186.066406 L0,38.1835938 C-2.58256169e-15,17.0953772 17.0953772,3.87384253e-15 38.1835938,0 L191.816406,0 Z M195.077284,49.091346 L194.968125,49.0996094 L175.526836,49.0996094 C174.910508,49.0996094 174.601445,49.4607813 174.601445,50.1795313 L174.601445,80.5754688 L173.781172,80.5035938 L172.659922,80.41375 L171.669844,80.3436719 L171.080469,80.3095313 L170.550391,80.2861719 L170.077813,80.2708984 L169.664531,80.2664063 C160.200391,80.2664063 152.125234,82.1180859 145.440859,85.8214453 L144.91168,86.1089453 C138.763421,89.5141795 133.664216,94.5369517 130.166523,100.633086 C126.671624,106.792265 124.861878,113.763817 124.919648,120.845234 L124.923242,121.532539 C125.011289,129.971563 126.759648,137.020703 130.165625,142.677266 C133.543408,148.383655 138.57396,152.930169 144.591836,155.715391 C151.05183,158.667646 158.088508,160.143302 165.190313,160.035078 L166.254063,160.023398 C170.866829,159.944136 175.465136,159.483464 180.001953,158.646094 C185.345985,157.661087 190.569912,156.10972 195.585352,154.018242 C196.182744,153.743842 196.550536,153.130974 196.511641,152.474727 L196.358906,150.159453 L196.071406,146.156914 C195.952813,144.392383 195.893516,142.742852 195.893516,141.211914 L195.893516,50.025 C195.930082,49.7701021 195.844423,49.5128727 195.662338,49.3307875 C195.480252,49.1487023 195.223023,49.0630429 194.968125,49.0996094 Z M121.116289,57.8451797 C120.918558,57.505081 120.519883,57.3365583 120.138164,57.4317187 L99.9260156,57.4317187 C99.5008674,57.3901695 99.0726792,57.4705716 98.6915625,57.6635156 C98.4049609,57.9411328 98.1929297,58.2861328 98.0743359,58.6670703 C95.989605,62.7301089 93.855056,66.7673925 91.6711719,70.7780078 C89.4592187,74.8407422 87.2984766,78.8792187 85.1916406,82.8907422 C83.046362,86.9730975 80.9632439,91.0878173 78.9430078,95.2334766 L78.7884766,95.2334766 C76.817187,91.0868307 74.6810973,87.0205574 72.3853125,83.044375 C70.0538061,79.0056478 67.7650584,74.9423869 65.5194531,70.8552734 C63.2562891,66.7422266 61.1988672,62.6273828 59.3471875,58.5125391 C59.1073047,58.1630469 58.7901562,57.8728516 58.4217969,57.6635156 C57.9815263,57.4848886 57.5072287,57.4053935 57.0328125,57.4317187 L35.2780469,57.4317187 C34.9257161,57.4076934 34.5826053,57.5507949 34.3517578,57.8180469 C34.1469141,58.0767969 34.198125,58.4110156 34.5062891,58.8207031 L63.5132422,107.884375 L33.7354297,156.795312 C33.5281595,157.114603 33.4456497,157.499009 33.5036328,157.875234 C33.5359766,158.128594 33.6366016,158.164531 33.8046094,158.154648 L34.1064844,158.127695 L34.198125,158.125 L55.3356641,158.125 L55.6860547,158.119609 C56.5278906,158.091758 57.1325391,157.921055 57.4964062,157.103477 C59.7587305,153.094326 61.9702615,149.056724 64.1304687,144.991641 C66.2894141,140.929805 68.4753125,136.840117 70.6881641,132.725273 C72.8822374,128.642268 75.0168509,124.527589 77.0913281,120.382539 L77.2458594,120.382539 C79.492198,124.571384 81.7809354,128.737353 84.1117187,132.879805 L84.9724219,134.419727 C86.9211424,137.916516 88.8200324,141.440844 90.6685156,144.991641 C92.7350026,148.972723 94.7924298,152.958502 96.8407813,156.948945 C97.3645703,157.824023 98.224375,157.994727 99.4175,158.026172 L99.8523438,158.033359 L121.989844,158.033359 C122.132695,158.01 122.261172,158.004609 122.376172,158.004609 L122.588203,158.01 L122.7625,158.012695 C122.919727,158.006406 123.022148,157.965078 123.069766,157.797969 C123.167695,157.40625 123.112891,156.992969 122.915234,156.640781 L92.2111328,106.341758 L120.909922,58.9734375 L120.99168,58.8997656 C121.263231,58.6151174 121.314021,58.1852783 121.116289,57.8451797 Z M168.892773,98.1641797 C169.949193,98.1613542 171.005057,98.212933 172.056172,98.3187109 C172.916134,98.4008331 173.7676,98.5556177 174.601445,98.7814063 L174.601445,140.902852 L174.125273,141.034922 C173.169038,141.283616 172.192412,141.445986 171.207148,141.520078 C169.971797,141.623398 168.634922,141.675787 167.195625,141.675787 C164.498244,141.68816 161.81606,141.271154 159.249844,140.440156 C156.820509,139.673501 154.602403,138.353156 152.770312,136.583164 C150.855907,134.659039 149.381532,132.342646 148.448828,129.793672 C147.303124,126.630834 146.753878,123.282959 146.828945,119.919844 L146.832539,119.401445 C146.901719,114.600195 147.955586,110.709961 149.992344,107.730742 C152.03261,104.703627 154.823739,102.257983 158.092656,100.633086 C161.448702,98.9729615 165.148754,98.1271298 168.892773,98.1641797 Z"/></svg>