<svg viewBox="0 0 256 250" xmlns="http://www.w3.org/2000/svg" preserveAspectRatio="xMidYMid" height="1em" width="1em">
  <rect fill="#300" width="256" height="249.6" rx="42.5"/>
  <path d="M124.054 149.79h-39.67l-8.072 25.073a2.02 2.02 0 0 1-2.061 1.546H54.158c-1.145 0-1.546-.63-1.202-1.89l34.347-98.918c.343-1.03.687-2.203 1.03-3.52.45-2.292.68-4.62.687-6.955a1.063 1.063 0 0 1 1.202-1.203h27.306c.8 0 1.258.287 1.374.86l38.983 109.908c.344 1.146 0 1.719-1.03 1.718h-22.326a1.587 1.587 0 0 1-1.717-1.202l-8.758-25.417Zm-33.488-21.638H117.7l-.387-1.277-.621-2.022-.443-1.42-.707-2.236-1.503-4.707-1.322-4.173-3.433-10.87a334.433 334.433 0 0 1-2.46-8.138l-.628-2.21-.734-2.613-1.12-4.05-.21-.763h-.171a138.781 138.781 0 0 1-3.136 12.23l-2.548 8.196-1.402 4.528-1.415 4.584c-.256.828-.51 1.647-.765 2.456l-.76 2.398-.756 2.342-.752 2.284-.748 2.227c-.248.733-.496 1.456-.743 2.17l-.37 1.064Zm90.501-46.025a12.456 12.456 0 0 1-9.445-3.778 13.586 13.586 0 0 1-3.607-9.789 12.6 12.6 0 0 1 3.864-9.53 13.27 13.27 0 0 1 9.165-3.697l.366.004c4.122 0 7.357 1.23 9.704 3.692a13.258 13.258 0 0 1 3.52 9.531 13.412 13.412 0 0 1-3.692 9.79 13.177 13.177 0 0 1-9.508 3.79l-.367-.013Zm-11.85 92.564V92.603c0-1.03.456-1.546 1.374-1.546h21.124c.915 0 1.373.515 1.374 1.546v82.088c0 1.146-.458 1.719-1.374 1.718h-20.952c-.976 0-1.49-.514-1.541-1.542l-.005-.176Z" fill="#FF9A00"/>
</svg>
