<svg viewBox="0 0 256 250" xmlns="http://www.w3.org/2000/svg" preserveAspectRatio="xMidYMid" height="1em" width="1em">
  <path d="M45.333 0h165.334C235.733 0 256 20.267 256 45.333v158.934c0 25.066-20.267 45.333-45.333 45.333H45.333C20.267 249.6 0 229.333 0 204.267V45.333C0 20.267 20.267 0 45.333 0Z" fill="#00005B"/>
  <path d="M60.8 175.04V65.28c0-.747.32-1.173 1.067-1.173l1.548-.003 1.198-.01.845-.016.9-.023.967-.034.515-.021c.96-.04 1.935-.065 2.93-.086l3.055-.064c.347-.008.698-.017 1.051-.028l1.07-.035c.96-.036 1.944-.06 2.952-.08l3.093-.055 2.141-.047 1.095-.032c2.204-.07 4.361-.094 6.502-.102l3.204-.004c8.747 0 16 1.066 21.974 3.306A38.09 38.09 0 0 1 131.2 75.52a33.963 33.963 0 0 1 7.787 12.16c1.6 4.48 2.453 9.067 2.453 13.867 0 9.173-2.133 16.746-6.4 22.72-4.267 5.973-10.24 10.453-17.173 13.013-7.012 2.578-14.721 3.56-23.128 3.623H91.69l-1.187-.012-.761-.018-.448-.019-.402-.024-.359-.03a15.594 15.594 0 0 0-.692-.052l-.52-.023-.57-.015-.951-.013-1.853-.004v34.24c.106.747-.427 1.387-1.174 1.494H62.08c-.853 0-1.28-.427-1.28-1.387Zm23.253-90.347v35.84l1.254.09a43.17 43.17 0 0 0 2.906.124h5.654c4.16 0 8.32-.64 12.266-1.92 3.414-.96 6.4-2.987 8.747-5.654 2.24-2.666 3.307-6.293 3.307-10.986a17.557 17.557 0 0 0-2.454-9.494c-1.737-2.657-4.161-4.727-7.082-5.928l-.384-.152c-3.947-1.6-8.214-2.24-12.587-2.133l-2.466.003-1.159.007-1.107.015-1.051.024c-.512.014-1.003.033-1.47.058a36.471 36.471 0 0 0-.688-.028l-.639-.014a31.576 31.576 0 0 0-.3-.002l-.566.003-.514.014-.238.01-.437.025-.384.03-.173.016-.303.035-.132.017Zm72.32 6.187h18.667c1.007 0 1.825.666 2.182 1.549l.058.158c.32.853.533 1.706.64 2.666.213 1.067.427 2.24.533 3.307l.09 1.032c.07.881.124 1.818.124 2.808a39.68 39.68 0 0 1 10.82-8.849l.593-.324c4.907-2.774 10.56-4.16 16.213-4.16.747-.107 1.387.426 1.494 1.173v21.227c0 .853-.534 1.173-1.707 1.173-3.584-.1-7.26.173-10.77.903l-.75.164c-3.093.64-6.08 1.6-8.96 2.88-2.027.96-3.947 2.24-5.44 3.946v54.4c0 1.067-.427 1.494-1.387 1.494H157.76c-.853.106-1.6-.427-1.707-1.28v-59.52c0-2.56 0-5.227-.106-8l-.064-2.08-.086-4.16c-.017-.694-.037-1.387-.064-2.08 0-2.454-.213-4.8-.426-7.254-.107-.533.213-1.066.746-1.173 0-.091.157-.104.269-.04l.051.04Z" fill="#99F"/>
</svg>
