<svg viewBox="0 0 1024 1024" xmlns="http://www.w3.org/2000/svg" fill="currentColor" height="1em" width="1em">
<path d="M341.333333 128C341.333333 142.506667 348.586667 157.44 362.666667 165.546667L512 256 106.666667 256C71.253333 256 42.666667 284.586667 42.666667 320 42.666667 355.413333 71.253333 384 106.666667 384L358.826667 384 85.333333 554.666667C49.493333 576 42.666667 606.72 42.666667 640 42.666667 682.666667 75.52 725.333333 128 725.333333 157.44 725.333333 187.306667 704 213.333333 682.666667L298.666667 613.546667C307.2 794.453333 456.96 938.666667 640 938.666667 828.586667 938.666667 981.333333 785.92 981.333333 597.333333 981.333333 472.746667 914.346667 362.666667 814.506667 304.213333 813.226667 303.36 811.946667 302.08 810.666667 301.226667 810.666667 301.226667 807.253333 298.666667 804.693333 297.386667 672.426667 208.213333 555.946667 158.72 407.466667 90.88 398.506667 87.04 390.826667 85.333333 384 85.333333 358.4 85.333333 341.333333 104.96 341.333333 128M640 384C757.76 384 853.333333 479.573333 853.333333 597.333333 853.333333 715.093333 757.76 810.666667 640 810.666667 522.24 810.666667 426.666667 715.093333 426.666667 597.333333 426.666667 479.573333 522.24 384 640 384M640 448C557.653333 448 490.666667 514.986667 490.666667 597.333333 490.666667 679.68 557.653333 746.666667 640 746.666667 722.346667 746.666667 789.333333 679.68 789.333333 597.333333 789.333333 514.986667 722.346667 448 640 448Z"></path>
</svg>