<svg viewBox="0 0 1024 1024" version="1.1" xmlns="http://www.w3.org/2000/svg" fill="currentColor" width="1em" height="1em"><path d="M861.098667 736.554667l73.472 146.261333a38.4 38.4 0 0 1-1.706667 37.546667 38.826667 38.826667 0 0 1-32.981333 18.304H512a38.741333 38.741333 0 0 1-33.066667-18.261334 38.4 38.4 0 0 1-1.664-37.589333l10.752-21.333333H221.098667a58.026667 58.026667 0 0 1-58.197334-57.941334V474.453333C116.096 439.168 85.333333 383.829333 85.333333 321.024 85.333333 214.570667 172.373333 128 279.253333 128c63.146667 0 118.698667 30.592 154.154667 77.226667h369.493333a58.026667 58.026667 0 0 1 58.197334 57.898666v473.429334zm-155.178667-136.192-131.157333 261.12h262.357333l-131.2-261.12zM240.469333 510.122667v274.133333h286.336l144.426667-287.488c13.184-26.154667 56.234667-26.154667 69.376 0l42.922667 85.333333V282.453333h-314.282667a192.64 192.64 0 0 1-52.992 174.933334 194.773333 194.773333 0 0 1-175.786667 52.778666zm38.826667-73.301334a116.053333 116.053333 0 0 0 116.352-115.797333A116.053333 116.053333 0 0 0 279.253333 205.226667a116.053333 116.053333 0 0 0-116.352 115.797333 116.053333 116.053333 0 0 0 116.352 115.797333z"></path>
</svg>