<svg xmlns="http://www.w3.org/2000/svg" fill="currentColor" height="1em" width="1em" viewBox="0 0 24 24">
  <path d="M19.54 5.08A10.61 10.61 0 0 0 11.91 2a10 10 0 0 0-.05 20 2.58 2.58 0 0 0 2.53-1.89 2.52 2.52 0 0 0-.57-2.28.5.5 0 0 1 .37-.83h1.65A6.15 6.15 0 0 0 22 11.33a8.48 8.48 0 0 0-2.46-6.25Zm-12.7 9.66a1.5 1.5 0 1 1 .4-2.08 1.49 1.49 0 0 1-.4 2.08ZM8.3 9.25a1.5 1.5 0 1 1-.55-2 1.5 1.5 0 0 1 .55 2ZM11 7a1.5 1.5 0 1 1 1.5-1.5A1.5 1.5 0 0 1 11 7Zm5.75.8a1.5 1.5 0 1 1 .55-2 1.5 1.5 0 0 1-.55 2Z" />
</svg>
