<svg fill="currentColor" version="1.1" xmlns="http://www.w3.org/2000/svg" height="1em" width="1em" viewBox="0 0 512 512" >

<g>
<path display="inline" d="M239.532,463.443h32.923c5.977,0,10.85,4.873,10.85,10.85v26.369c0,5.963-4.873,10.837-10.85,10.837
		h-32.923c-5.963,0-10.837-4.874-10.837-10.837v-26.369C228.695,468.316,233.569,463.443,239.532,463.443L239.532,463.443z
		 M239.532,463.443 M102.525,146.023c0.412,81.391,69.535,208.35,133.431,295.97h6.288
		c-48.593-88.639-90.036-197.933-90.402-284.073c-0.341-78.151,31.58-127.745,74.662-156.048c-9.564,0.89-19.146,2.217-28.64,4.042
		C144.734,27.04,102.144,70.638,102.525,146.023L102.525,146.023z M102.525,146.023 M243.163,0.753
		c-24.897,33.505-44.102,81.012-43.931,149.948c0.229,89.978,21.279,196.93,48.426,291.292h16.684
		c27.147-94.361,48.197-201.314,48.427-291.292c0.17-68.936-19.034-116.443-43.931-149.948
		C260.288,0.417,251.713,0.417,243.163,0.753L243.163,0.753z M243.163,0.753 M409.475,146.023
		c-0.411,81.391-69.534,208.35-133.431,295.97h-6.287c48.592-88.639,90.036-197.933,90.397-284.073
		C360.5,79.77,328.579,30.175,285.497,1.872c9.564,0.89,19.146,2.217,28.627,4.042C367.266,27.04,409.854,70.638,409.475,146.023
		L409.475,146.023z M409.475,146.023 M280.382,441.993c71.526-75.27,152.676-201.084,153.212-298.033
		c0.325-59.454-28.614-98.881-69.151-122.959c49.665,21.308,87.449,60.635,87.083,124.556
		c-0.582,98.475-94.968,228.569-169.9,296.436H280.382z M280.382,441.993 M231.619,441.993
		C160.092,366.724,78.943,240.909,78.406,143.96c-0.324-59.454,28.603-98.881,69.14-122.959
		C97.894,42.31,60.109,81.637,60.475,145.557c0.583,98.475,94.969,228.569,169.9,296.436H231.619z M231.619,441.993">

</path>
</g>
</svg>