<svg xmlns="http://www.w3.org/2000/svg" fill="currentColor" width="1em" height="1em" viewBox="0 0 230 230">
  <path fill="currentColor" d="M200,0 C216.568542,-3.04359188e-15 230,13.4314575 230,30 L230,200 C230,216.568542 216.568542,230 200,230 L30,230 C13.4314575,230 9.13448861e-15,216.568542 0,200 L0,30 C-2.02906125e-15,13.4314575 13.4314575,1.01490192e-14 30,0 L200,0 Z M167.109375,83.5546875 L141.953125,83.5546875 L141.953125,132.96875 C141.953125,154.980469 140.605469,163.066406 137.011719,170.253906 C133.867188,176.992188 128.476562,181.933594 117.246094,186.875 L140.605469,198.105469 C151.835938,192.265625 157.226562,187.324219 161.269531,179.238281 C165.761719,171.152344 167.109375,161.71875 167.109375,141.503906 L167.109375,83.5546875 Z M127.128906,45.3710938 L101.972656,45.3710938 L101.972656,83.1054688 C97.9296875,82.2070312 94.7851562,82.2070312 90.7421875,82.2070312 C64.2382812,82.2070312 47.6171875,98.3789062 47.6171875,123.984375 C47.6171875,150.488281 63.3398438,164.414062 94.3359375,164.414062 C104.667969,164.414062 114.101562,163.066406 127.128906,160.820312 L127.128906,45.3710938 Z M93.4375,101.972656 C96.5820312,101.972656 98.828125,102.421875 101.972656,103.320312 L101.972656,143.300781 C97.9296875,144.199219 95.6835938,144.199219 92.9882812,144.199219 C79.9609375,144.199219 73.2226562,137.011719 73.2226562,123.535156 C73.2226562,110.058594 80.4101562,101.972656 93.4375,101.972656 Z M167.109375,45.3710938 L141.953125,45.3710938 L141.953125,70.9765625 L167.109375,70.9765625 L167.109375,45.3710938 Z"/>
</svg>