<svg viewBox="0 0 1024 1024" xmlns="http://www.w3.org/2000/svg" fill="currentColor" height="1em" width="1em"><path d="M384.28144981 252.31647403v112.80048696L145.20918813 474.54291854 384.28144981 587.88378965v110.53930269L21.43812835 526.28761486v-100.68590819l362.84332146-173.28714866zm246.90017394 102.1173521c0-28.82050958-26.50183907-46.93105778-47.58641778-32.52080298-21.0845787 14.41025479-21.0845787 50.63135118 0 65.04352199 21.08649586 14.41025479 47.58641778-3.70220942 47.58641778-32.52271901zm-86.46152988 88.55216697c-71.49939257-39.1951269-71.49939257-137.71758023 0-176.91462428 71.50130859-39.1951269 161.36227954 10.06609977 161.36227954 88.45827072s-89.86096981 127.65339648-161.36036352 88.45635356zm382.94102812 229.81099065c0-28.82050958-26.50183907-46.93105778-47.58641778-32.52080298-21.0845787 14.41025479-21.0845787 50.63135118 0 65.04160597 21.08649586 14.41025479 47.58641778-3.69837625 47.58641778-32.51888697zm-86.46152988 88.55216583c-71.49939257-39.1951269-71.49939257-137.71758023 0-176.91462315S1002.56187165 594.50062621 1002.56187165 672.89279602s-89.86096981 127.65339648-161.36036352 88.45635356zm-219.70656598 13.75681195 372.53958429-526.21192306H866.73755363l-378.74825784 526.21192306h133.50181432z"></path></svg>