<svg viewBox="0 0 256 288" xmlns="http://www.w3.org/2000/svg" preserveAspectRatio="xMidYMid" height="1em" width="1em">
  <path d="M0 143.82c0 12.44 1.744 24.441 4.71 35.956h175.067c19.856 0 35.955-16.1 35.955-35.956 0-19.865-16.1-35.955-35.955-35.955H4.71C1.744 119.371 0 131.38 0 143.82" fill="#343741"/>
  <path d="M242.013 68.863c5.025-4.629 9.7-9.6 13.987-14.93C229.636 21.079 189.213 0 143.82 0 87 0 38.101 33.052 14.775 80.9h196.559c11.38 0 22.319-4.324 30.678-12.037" fill="#FEC514"/>
  <path d="M211.334 206.742H14.774c23.336 47.839 72.226 80.9 129.045 80.9 45.393 0 85.816-21.088 112.18-53.933a136.604 136.604 0 0 0-13.987-14.94c-8.36-7.721-19.299-12.027-30.678-12.027" fill="#00BFB3"/>
</svg>
