<svg xmlns="http://www.w3.org/2000/svg" fill="currentColor" viewBox="0 0 32 32" height="1em" width="1em">
  <path d="M15.995.016c-2.385.02-4.599.525-6.625 1.457l.011-.004c4.849 2.703 9.271 7.509 11.907 10.989.531.713 1.005 1.339 1.437 1.911l.005-.025c.552-2.317-.417-6.984-2.021-9.776-.156-.271-.271-.505-.249-.521h.005l.005-.005c.129.032 1.375 1.323 1.828 1.912.801 1.02 1.109 1.615 1.552 2.968 1.14 3.532 1.896 6.401 2.531 9.667.323 1.641.901 4.609.98 5.177.004.079-.016.172-.016.193-.125-.12-.256-.24-.385-.355-.86-.755-2.568-1.885-4.245-2.817-2.093-1.156-4.156-2.151-8.765-4.213-4.208-1.885-6.145-2.781-7.667-3.547l-1.369-.683.536 1.339s2.573 1.443 2.896 1.88c0 0 3.093 5.823 4.468 9.271 1.027 2.599 2.183 5.688 2.876 6.541l.077.089C14.403 31.131 8.111 28 8.111 28c-.693-5.864-2.625-12.812-5.14-19.917-.057-.119-.115-.239-.167-.364 0-.021.187.161.411.407 2.536 2.713 7.943 5.181 13.688 6.239 1.552.272 3.135.371 4.708.297-.407-.521-.855-1.093-1.344-1.735C15.71 6.99 11.236 4.495 7.226 2.97c-.104-.037-.203-.084-.307-.115A15.865 15.865 0 0 0 .892 10.76a16.037 16.037 0 0 0-.891 5.355L.006 16c.041 6.688 4.172 12.817 10.735 15.104 1.781.62 3.593.907 5.375.896l-.12-.005c6.693-.041 12.823-4.172 15.109-10.735.62-1.781.907-3.599.891-5.38V16C31.949 9.307 27.824 3.177 21.256.896A15.96 15.96 0 0 0 15.881 0l.12.005zm8.177 8.145c.708.683 1.839 2.005 3.115 2.751 1.052 1.317 1.625 2.615 2.333 3.504-.292-.249-1.484-1.296-1.484-1.296s-1.833-1.74-2.855-2.869c-.391-.439-.427-.505-.636-.839-.083-.131-.364-1.1-.473-1.245l.005-.011z"/>
</svg>
