<svg xmlns="http://www.w3.org/2000/svg" fill="currentColor" height="1em" width="1em" viewBox="0 0 153 151">
  <path d="M76.2378757,0 C118.342892,0 152.475751,33.7082594 152.475751,75.2895046 C152.475751,116.87075 118.342892,150.579009 76.2378757,150.579009 C34.1328596,150.579009 0,116.87075 0,75.2895046 C0,33.7082594 34.1328596,0 76.2378757,0 Z M60.5934369,46.9019586 L19.8384036,56.9645627 L92.6150779,128.835332 L102.803239,88.5872762 L94.3131047,80.2021662 L87.0356763,108.950356 L70.5395345,92.6594199 L75.3909542,73.9732442 L56.2267408,78.5252622 L39.7305989,62.2343264 L68.8415078,55.0474265 L60.5934369,46.9019586 Z M116.873372,33.007443 L76.1189361,43.0694569 L84.367007,51.2149248 L102.561176,47.1421909 L98.1944795,64.8703887 L106.684613,73.2549084 L116.873372,33.007443 Z" transform="translate(0 .421)"/>
</svg>