<svg xmlns="http://www.w3.org/2000/svg" height="1em" width="1em" viewBox="0 0 256 225">
<g fill="none" fill-rule="evenodd">
<path fill="#A90533" fill-rule="nonzero" d="M44.3399607 159.659089C25.536634 139.734178 14.5349706 112.207841 14.5628518 79.365069 14.5368716 50.3198413 23.6628914 25.3541383 39.3517627 6.35691059L39.3264162 6.36641554 6.35057459 6.36641554 6.35057459 159.662257 44.3165152 159.662257 44.3399607 159.659089 44.3399607 159.659089ZM218.009347 159.671762C226.109466 150.996277 233.367446 140.779089 239.944238 129.094336L203.445228 110.844831C190.626852 131.684119 171.881188 150.865742 145.959287 150.993742 108.232872 150.865742 93.4102182 118.60594 93.4916246 77.0832472L234.469386 77.0832472C234.657584 72.3954056 234.657584 70.2156037 234.469386 67.9591284 235.389466 43.2557621 228.842456 22.4912472 216.932753 6.32079178L216.871287 6.36704921 248.612753 6.36704921 248.612753 159.662891 217.940278 159.662891 218.009347 159.671762 218.009347 159.671762Z"/>
<path fill="#A90533" fill-rule="nonzero" d="M95.7737825,41.4967126 C97.3344954,22.6971878 112.156515,10.0543363 129.535367,10.0163165 C147.032713,10.0543363 159.674931,22.6971878 160.103287,41.4967126 L95.7737825,41.4967126 L95.7737825,41.4967126 Z"/>
<polygon fill="currentColor" fill-rule="nonzero" points="26.426 185.668 26.426 179.281 6.807 179.281 6.807 217.149 26.426 217.149 26.426 210.761 14.107 210.761 14.107 200.724 25.969 200.724 25.969 194.337 14.107 194.337 14.107 185.668"/>
<path fill="currentColor" fill-rule="nonzero" d="M59.7310102,201.179881 C64.6216241,200.453703 67.3070894,195.607446 67.4870498,190.686416 C67.3070894,182.635723 62.088238,179.304555 54.7123964,179.280475 L44.6751687,179.280475 L44.6751687,217.148198 L51.9749706,217.148198 L51.9749706,202.092356 L61.0997231,217.148198 L70.2244756,217.148198 L59.7310102,201.179881 L59.7310102,201.179881 Z M51.974337,185.212198 L52.8868122,185.212198 C56.8693865,185.361743 59.8583766,186.270416 59.7303766,191.143287 C59.8583766,195.608079 56.9707726,196.819644 52.8868122,196.618139 L51.974337,196.618139 L51.974337,185.212198 L51.974337,185.212198 Z"/>
<polygon fill="currentColor" fill-rule="nonzero" points="93.036 179.281 85.737 179.281 85.737 217.149 103.529 217.149 103.529 210.761 93.036 210.761"/>
<path fill="currentColor" fill-rule="nonzero" d="M140.940674,209.392158 L144.134337,217.148198 L151.890377,217.148198 L137.74701,178.368 L131.815921,178.368 L116.76008,217.148198 L124.515485,217.148198 L127.709783,209.392158 L140.940674,209.392158 L140.940674,209.392158 Z M139.115723,203.461703 L129.990971,203.461703 L134.097109,189.318337 L139.115723,203.461703 L139.115723,203.461703 Z"/>
<polygon fill="currentColor" fill-rule="nonzero" points="165.578 217.149 173.334 217.149 173.334 191.6 193.409 218.061 198.883 218.061 198.883 179.281 191.127 179.281 191.127 204.83 171.052 178.368 165.578 178.368"/>
<path fill="currentColor" fill-rule="nonzero" d="M230.820119,197.073743 L230.820119,203.004832 L239.032396,203.004832 C238.861307,207.771248 234.960476,211.809584 230.363882,211.673347 C223.104634,211.809584 219.507327,204.794297 219.414179,198.442455 C219.507327,192.175525 223.053941,184.856713 230.363882,184.755327 C234.20008,184.856079 237.443169,187.480713 239.032396,190.686416 L245.419723,187.492753 C242.610693,181.575604 236.936238,178.294495 230.363882,178.368 C219.051089,178.295129 211.806416,187.632792 211.658139,198.442455 C211.806416,208.982812 218.848951,218.371168 229.907644,218.516911 C241.850931,218.371168 247.373307,208.831366 247.244674,197.986218 L247.244674,197.073743 L230.820119,197.073743 L230.820119,197.073743 L230.820119,197.073743 Z"/>
</g>
</svg>