<svg viewBox="0 0 1024 1024" xmlns="http://www.w3.org/2000/svg" fill="currentColor" height="1em" width="1em"><path d="M821.375 500.75c-16.875-11.25-33.75-16.875-56.25-11.25000001-22.50000001 0-33.75 11.25-45 28.12500001-11.25 16.875-11.25 33.75-11.25 56.25s5.625 33.75 22.5 50.62499999c11.25 11.25 28.125 22.50000001 50.625 22.50000001s39.375-5.625 50.625-22.50000001c11.25-11.25 16.875-33.75 16.87500001-61.87499999 0-33.75-5.625-50.625-28.12500001-61.875z"></path><path d="M62 62v900h900V62H62zm292.50000001 618.75H140.75V326.375H343.25v39.375H191.375v106.875h140.625V512H191.375v123.75h163.12500001v45zm230.62499999-22.5c-16.875 16.875-45 22.50000001-78.75 22.5-33.75 0-61.875-11.25-78.75-28.125-22.50000001-16.875-28.125-39.375-28.12500001-67.5V568.25h45v11.25000001c0 22.50000001 5.625 33.75 16.87500001 45 11.25 11.25 28.125 16.875 45 16.87499999 22.50000001 0 39.375-5.625 50.625-16.87499999 5.625-11.25 11.25-22.50000001 11.25-39.37500001 0-11.25-5.625-28.125-16.875-39.375-11.25-11.25-28.125-22.50000001-50.625-28.125-33.75-11.25-56.25-28.125-73.125-39.375-16.875-16.875-22.50000001-39.375-22.5-56.25 0-28.125 11.25-50.625 28.125-67.50000001 22.50000001-22.50000001 45-28.125 73.125-28.12499999 33.75 0 61.875 11.25 78.75 33.75 11.25 16.875 22.50000001 39.375 22.5 61.875h-45c0-16.875 0-28.125-11.25-39.375-11.25-11.25-28.125-16.875-45-16.875-16.875 0-28.125 5.625-39.375 11.25-11.25 11.25-11.25 22.50000001-11.25 39.375 0 11.25 0 22.50000001 11.25 28.12499999 5.625 11.25 28.125 16.875 56.25 33.75000001 28.125 11.25 50.625 28.125 67.5 45 16.875 16.875 22.50000001 39.375 22.5 56.24999999 5.625 33.75-5.625 56.25-28.125 78.75000001zm298.125-45c-5.625 16.875-16.875 33.75-33.75000001 50.625-16.875 16.875-39.375 22.50000001-67.49999999 22.5s-50.625-5.625-73.125-16.87499999c-22.50000001-11.25-33.75-28.125-39.37500001-50.62500001-5.625-22.50000001-11.25-39.375-11.24999999-61.875 0-22.50000001 5.625-33.75 11.24999999-50.625 11.25-11.25 22.50000001-28.125 33.75000001-50.625l84.375-129.375h45l-84.375 135c39.375-11.25 67.50000001-5.625 90 5.625 22.50000001 11.25 33.75 28.125 45 39.375 5.625 16.875 11.25 33.75 11.24999999 50.625 0 16.875 0 39.375-11.24999999 56.25z"></path></svg>