<svg xmlns="http://www.w3.org/2000/svg" viewBox="0 0 14 14" height="1em" width="1em" fill="currentColor">
  <path d="M12.777 2.551h-4.02v.744h1.185v1.177H8.757v.375h1.185v1.178H8.757v.386h1.185v1.115H8.757v.446h1.185v1.117H8.757v.446h1.185v1.124H8.757v.82h4.02c.063-.02.116-.095.159-.225.042-.13.064-.237.064-.317v-8.25c0-.064-.022-.103-.065-.116a.55.55 0 0 0-.159-.02Zm-.522 8.107h-1.929V9.535h1.929v1.124-.001zm0-1.569h-1.929V7.971h1.929V9.09zm0-1.564h-1.929v-1.11h1.929v1.111-.001zm0-1.5h-1.929V4.848h1.929v1.177zm0-1.56h-1.929v-1.17h1.929v1.178-.008zM1 2.365v9.301l7.08 1.224V1.11L1 2.37v-.005Zm4.197 7.036a68.442 68.442 0 0 0-.38-.931 60.93 60.93 0 0 0-.399-.959h-.013L3.647 9.32l-1.016-.07L3.835 7 2.732 4.75l1.035-.054.685 1.76h.013l.772-1.84 1.07-.067-1.274 2.434 1.313 2.484-1.15-.067v.001z"/>
</svg>