<svg xmlns="http://www.w3.org/2000/svg" width="1em" height="1em" viewBox="0 0 465 512"><path fill="currentColor" d="M248.872 63.164H0v381.678h261.91c-5.933-22.006-9.425-44.83-10.382-68.447c-68.347 4.003-133.766-13.78-180.387-34.21l8.366-19.544c57.24 24.51 114.676 35.3 171.812 32.432c.446-20.1 2.592-40.72 6.53-61.851h-80.66c-1.25-89.57 29.694-162.884 71.683-230.058m-134.6 60.62h21.255v51.408h-21.256z"/><path fill="currentColor" d="M275.335 353.01c37.076-4.358 73.997-14.42 110.621-30.343l8.48 19.491c-39.404 17.135-79.134 27.89-119.027 32.342c.925 24.412 4.796 47.862 11.426 70.342h177.716V63.164H277.265c-48.15 73.047-72.046 138.577-75.561 206.144h85.683c-4.489 18.091-10.965 48.315-12.052 83.702m60.787-177.818h-21.256v-51.407h21.256zM277.265 63.164c10.43-15.824 21.947-31.984 34.7-48.613L292.992 0c-16.643 21.701-31.247 42.669-44.12 63.164zm-15.378 381.678c6.312 23.342 15.365 45.765 27.28 67.158l20.893-11.635c-9.876-17.731-17.584-36.272-23.275-55.523z"/></svg>