<svg viewBox="0 0 1024 1024" fill="currentColor" xmlns="http://www.w3.org/2000/svg" height="1em" width="1em"><path d="M384 554.666667C384 625.493333 441.173333 682.666667 512 682.666667 582.826667 682.666667 640 625.493333 640 554.666667 640 483.84 582.826667 426.666667 512 426.666667 441.173333 426.666667 384 483.84 384 554.666667M853.333333 835.84 853.333333 341.333333 597.333333 85.333333 256 85.333333C209.066667 85.333333 170.666667 123.733333 170.666667 170.666667L170.666667 853.333333C170.666667 900.266667 209.066667 938.666667 256 938.666667L768 938.666667C787.2 938.666667 804.266667 932.266667 818.773333 921.6L629.76 732.586667C595.626667 754.773333 554.666667 768 512 768 394.24 768 298.666667 672.426667 298.666667 554.666667 298.666667 436.906667 394.24 341.333333 512 341.333333 629.76 341.333333 725.333333 436.906667 725.333333 554.666667 725.333333 597.333333 712.106667 638.293333 689.92 672L853.333333 835.84Z"></path>
</svg>