<svg xmlns="http://www.w3.org/2000/svg" fill="currentColor" viewBox="0 0 24 24" height="1em" width="1em">
  <path d="M13.78 18.29c0 .12.15 0 0 0zm-3.35-2.7c.39.17-.31-.6 0 0zm-5.03.28c.15.26 0-.12 0 0zm5.6.39c-.27-.42-.2.06 0 .32.48.47.18-.26 0-.32z"/>
  <path d="M20.24 19.06c-.53.63-1-.07-1.63.13-1.1 0 .09-.5.06-1-.58-.45-1.24.61-1.62.9a10.75 10.75 0 0 1-2.67-.83 8 8 0 0 1-2.6-1.94 8.36 8.36 0 0 1-1.87-2.84 21.36 21.36 0 0 1-.84-5.74c.07-1.3 1.44.14 2-.33-.21-.67-1.29-.88-1.89-1.16-.58 0-.79-.55-1.4-.59 0-.73-1.13-.33-1.56-.84.42-1.08-1.37 0-1.23-.91.58-1.2-1.78-1-.8.06.95.54-.93.93-.38 1.29a.59.59 0 0 1-.53.86c-.74.07-.67 1.09.06.55.81-.25.14.11-.25.18a1.3 1.3 0 0 0-.95 1.9 35.32 35.32 0 0 1 1 3.42A16.25 16.25 0 0 0 5.84 17 9.78 9.78 0 0 0 8 19a9.89 9.89 0 0 0 2.43 1.22 18 18 0 0 0 4.73.73 16.53 16.53 0 0 0 2.9-.24c.87.09 1.49-.65 2.26-.26.48-.42 1.16-.23 1.63-.54.32-1.22-1.22-.27-1.71-.85zm-1.74-.74c-.22 0 .05-.34 0 0zm-7.63-11c-.1 0-.08-.12-.16-.15-.8-.37.39-.23.16.19zm6.76 11.39c-.35-.08.28-.25 0 0zm-2.81.11c-.23 0 .18-.14 0 0zm-1.88-1.18c-.13 0 0-.13 0 0zm-.22-.17c-.36 0-.09-.23 0 0zm-.42-.36c-.33.08 0-.34 0 0zm-6-11.66c-.53-.28.11.33-.34.32-.24 0-.69-.52-.54-.78.3.16.83.21.92.5zm-.92-.81h-.11c-.03-.27.87-.06.15.04zm-1.02-.79c-.42-.19 0-.93.44-.58.51.73-.95-.08-.44.58zm.49.69c-.27.11.16-.21 0 0zm.48.92c.6.46-.34 0-.72.29-.61.06.66-.34.72-.29zm.17.6c.35 0 1.88-.69 1.37-.07.47.55.1.37-.21 0 .28.19.06 1-.37.45s-.5-.18-.17.21C5.8 6 4.88 6.28 4.21 6.5c-.43-.04 1.13-.37 1.29-.44zM3.58 7.51c-.16.4.24.53.62.6.62-.17-.41-.28.06-.44.26 0-.82-.26.08-.38S6.09 6.77 7 6.58a8.71 8.71 0 0 1 2.35-.19c.3.35-.23.94-.77 1a8.61 8.61 0 0 1-2 .39c-.8-.1-1.37.61-2.19.7.22-.4-.18-.14-.59-.16.21.82-1.47-.21-.48-.41-.74-.26-.75.52-.67 1-.65-.91.07-1.29.93-1.4zm1.88 1.08c-.22-.05.17-.2 0 0zm-.72.88s-.34-.08-.2-.17c1 .13-.9-.33.13-.22.66-.02.44.36.07.39zm.33.17c-.12.12 0-.24 0 0zm-.71 0c-.44-.09.21-.22 0 0zm-.06 1.43c-.07.1-.1-.08 0 0zM4 10.9c-.55-.19 0-.21 0 0zm-.12 1.28c-.26-.09-.25-.5-.37-.72-.38-1.03.41.4.33.72zm.23-1.49c-.69-.08-.05-.49 0 0zm0-.34h-.09c-.76-.35.45-.17-.02 0zM4 9.56c-.61-.31.58-.36 0 0zm.21.26c-.34.06.05-.32 0 0zm-1.3.07c-.12.08 0-.23 0 0zM3 9.75c-.16 0 0-.27 0 0zm.08-1c-.4-.1.33-.25 0 0zm.26 2c-.44-.1-.12-.65 0 0zm.3 1.25c.42.51.26.79.69 1.41-.56-.35-.67-1.2-1-1.75-.41-.9.23-.01.31.34zm4.09 6.38c-.34-.07-.57-.43-.81-.66a4.88 4.88 0 0 1-1.57-1.94 12.26 12.26 0 0 1-1.46-2.38c-.41-.92.25.07.35.42.21.68.88 1.07.94 1.52.74.42.36 1.12 1 1.31.27-.14.3.84.89.64-.33.15.13.33.3.61.35-.05 1.17.82.36.52zM4.62 12c-.31-.07.33-.11 0 0zm.2.47c-.55-.14.52-.2 0 0zm1.39.47c.4-.17.16.78.55.9.76 1-.53 0-1-.07.06 0-.38-.12-.19-.16-.14-.15-.45-.66.26-.32.6.24.65.06.38-.39zm1.31 1.76c0 .15-.72.13-.06.42-.38 0-.5 0 0 .3-.22.17.43.31.21.57.66.52-.12.13-.4-.08s-.85-.35-.75-.5c.81.42.21 0-.15-.3.65.16-.51-.48.1-.31.19.05-.27-.38.33-.07-.54-.52.47-.12.72-.07zm.48-.17c-.61-.14 0-.34 0 0zm-.17 2c-.61-.26.39 0 0 0zm-.45-.17c-.71-.23.52 0 0 0zm-.09.11c-.22 0 0-.17 0 0zm-1.08-1.55c-.72-.3-.2-.33 0 0zm-.54-.35c-.58-.33-.08-.33 0 0zm0 .65c-.57-.44-.07-.25 0 0zm-.15-1.34c-.35 0 .13-.2 0 0zM8 17.38c-.51-.15 0-.14 0 0zM7.63 17h-.16c-.68-.54.31-.38.75-.14.97.14-.22.39-.59.14zm2.7 1.65c-.68-.16.16-.27 0 0zm-.17-.52c-.05 0-.1-.11 0 0zm-.86-1.34c-.59-.14.21-.19.36 0 1.02.21-.06.26-.36 0zM9.51 18H9.4l-.13-.06c-.56-.59 1.19.28.24.06zm-.28.69c-.15.06 0-.14 0 0zm.29-1.19-.16-.05c-.66-.45.84.09.16 0zm.16 1.72c-.4-.16.26-.25 0 0zm.1-.74c-.58-.14.36-.13 0 0zm.13-.61c-.44-.06.05-.21 0 0zm-.72-.88c.46.06.47.27 0 .14-.09 0-.24 0-.28-.17-.76-.5.03-.25.28-.02zm-.06 2c-.2.12 0-.22 0 0zm-.31-.51c-.53 0 .4-.26 0 0zm-.12.35c-.26-.1.17-.08 0 0zm.3-.89c-.52-.14.25-.18 0 0zm-.16-.57c-.28 0-.06-.16 0 0zm-.54-.95c-.57-.46 1.18.38 0 0zm-.06.19c0 .06-.11-.09 0 0zm3.65 3.78a9.4 9.4 0 0 1-2.56-.85l-.33-.2c-.57-.31-.5-.38.06-.07.19.16 1.59.73.93.35-.29-.07-1.9-.95-.84-.57a20.92 20.92 0 0 0 2.74 1.21 7.14 7.14 0 0 0 2.43.15c.65.33 1.33-.08 2 .21a13.05 13.05 0 0 1-4.45-.23zm-1.25-.7c-.51-.09.16-.23 0 0zm.73-1c-.58-.11.6-.23 0 0zm.84 1.31c1 .37-.6.12-.93-.09-.92-.38.72.09.93.09zm-1.06-1.1c-.81-.12.9 0 0 0zm1.52.85c-.29.23 0-.3 0 0zm.29.05c-.15.06 0-.17 0 0zm.27-.38c-.16.2 0-.23 0 0zm.31 0c-.45.17.47-.39 0 0zm.14 0c.49-.42.51-.22.5.13-.43.48-.17-.2-.44.06s-.19-.1-.06-.17zm.83.45c-.5 0 .51-.54 0 0zm0 .18c-.2.05 0-.13 0 0zm-.16-.35c-.39-.26.94-.61 0 0zm.57.09h-.08c-.03-.23.54-.27.08.02zm.15.19c-.3-.08.47-.4 0 0zm.36-.1c-.51.18.48-.4 0 0zm.22.11-.12.08c-.23-.14.71-.48.12-.07zm-.43-.53c-.54-.18-1.4-.76-2-.37-.8.51.41-.56-.24-.08-.66.79-.45-.5-1.09-.11 0-.12-.57-.16-.17-.37-.36 0-.13-.05 0-.34-.16 0-1 0-1.36-.29-.4-.52.07-.3.48-.23-.67.12.24.5.68.29-.2-.09-.43-.52-1-.9a18.83 18.83 0 0 0-2.13-1c-.84-.5.18-.18.47.08.84.37.51-.51 0-.74-.54 0-.67-.59-1.1-.56.67.11 1.14-.17.39-.85s.3.63-.11.44c-.19-.25-.05-.6-.65-.73 0 .23-.08.58-.21.1-.17 0-.36.21-.5-.28.13-.57-.56-.7-.67-1.06.6.38.87.08.45-.33s-.33-.11-.49 0c-.59.6-.06-1-.32-.56-.26 0-.11.29-.1.65-.86-.21.2.45.45.81-.39-.4-.32.31-.65 0-.11-.3-.12-.77-.67-.85.62-.22-.36-.65-.28-.67.35-.32.4-.76.82-.07-.53 0 0 .88.12.6 0-.47.22-1-.59-1.19-.24.32-.65-.63-.18-.43-.06-.63.74-.26.69-.53.42-.18-.5-.77 0-1 .38.24 1.36-.36.7-.44.42 0 .75.18.79-.24.33.07 1.24.36.42-.09a3.45 3.45 0 0 1 1.13-.25c.79-.61.63 1 .45 1.45.3-.21.24.94.14 1.37.16-.22.23.36 0 .77 0-.07.4-.13.12.35-.22-.47-.31 1-.17.32.37-.61.28 0 .39.24.08.55.32 1.06.4 1.56.35.35-.15.11-.15.59.11-.14.58.19.57.68 0-.78.09-.18.47 0a5.48 5.48 0 0 0 1 1.42c.37.43 0 .13.14.39a3.19 3.19 0 0 0 2.09 1.28 1.46 1.46 0 0 0 1.57.7c-.6.37 1.68.47.91.67-.23.16-.62-.2-1.01-.18zM8.7 15.89c-.24 0 0-.2 0 0zm.38.22c-.18 0-.12-.24 0 0zm-2.61-3.65c-.24-.07.1-.09 0 0zm-.59 0c-.26 0 0-.34 0 0zm-.3-.08c-.1.05 0-.11 0 0zm11 8.25c-.39-.07.32-.22 0 0zm.73-1.05h-.3c.06-.45 1.33-.1 1.85-.09-.16.34-1.13.04-1.55.13zm2 0c-.27 0 .12-.32 0 0zm1-.09c-.25.13 0-.3 0 0zm.48.11c-.52-.12.24-.12.4-.14.94.02 0 .16-.47.16z"/>
  <path d="M6.51 7.11c1-.2-.38-.33-.69 0 .18.13.41-.21.69 0zm-.82.13c0 .19.18-.22 0 0zm2.62-.48c.67-.11.11-.41-.09.1.07.14.11-.05.09-.1zm-.62.1c.93.36-.05-1 0 0zm-2.92.93a.51.51 0 0 1 .33.1c.75.52-.1-.84-.33-.1z"/>
  <path d="M4.81 7.43c.16.13.29-.21 0 0zm.37.01.14.12c.68.06-.11-.46-.14-.12zM10.69 16c.09.3 0-.39 0 0zm-4.78-5c.1.18.18-.18 0 0zm.09.61c.19.34 0-.51 0 0zm.21-.49c.33.21-.28-.52 0 0zm-.41-.82c.07.15.24.16.37.2 1.32.61-.95-1-.37-.2zm.54 1.43c.31.53.18-.37 0 0zm.48-.16c.37.92-.23-.12-.3-.43a2.11 2.11 0 0 0 .28 1c.34.51.19-.28.55.23-.2-.45.1-.2.06-.4s-1-1.17-.59-.4zm.36 1.78c.09.31.18 0 0 0zM5.85 9c.06.14.11 0 0 0zm.67.42c.32.41.17-.36 0 0zm-.89 1.14.14.15c.99.29-1.05-.95-.14-.15zm.7-.37c1 .41-.09-.27-.44-.2.11.13.32.07.44.2zm-.18-.44c.18.18.82.51.31.06.32-.06 0-.16-.24-.32-.44-.67.07.06-.07.26z"/>
  <path d="M5.51 10.64c-.53-.44.16.21-.06.2-.55-.4-.32-.11 0 .2.33.5.6-.3.06-.4zm2.14.64c.12.11-.06-.68 0 0zm1.02-3.5c0 .12.07-.1 0 0zM9 12.47c0 .21 0-.18 0 0zm-.29-1.22c.08.46.1-.78 0 0zm.14.22v.1c.21-.51.04-.79 0-.1zm-.1-2.7c-.14.7-.27.41-.08-.11-.05-.67-.45.41-.27.72.29.47.6-1.16.35-.61zm1.01 5.98c.13.35.11-.42 0 0zm-1.35-4.28c0 .2 0-.14 0 0zm.64 1.7c0 .26.11-.38 0 0zM9.5 14l.07.11c.14-.49-.36-.79-.07-.11zm-1.56-.52c.27.22-.13-.23 0 0zm1.23-.85c.08.29 0-.42 0 0zM8.14 9.81c.15.33-.05-.27 0 0z"/>
  <path d="M8.3 10.23c.24.34-.26-.64 0 0zm-.06 1.15c-.13-1-.42.45 0 .69.13.34.25.2.3-.19-.32 0 .08-.62-.3-.5z"/>
</svg>
