<svg xmlns="http://www.w3.org/2000/svg" fill="currentColor" viewBox="0 0 1984 2048" height="1em" width="1em">
  <path d="M663.6 1589.6c0 8-9.2 14.4-20.8 14.4-13.2 1.2-22.4-5.2-22.4-14.4 0-8 9.2-14.4 20.8-14.4 12-1.2 22.4 5.2 22.4 14.4zm-124.4-18c-2.8 8 5.2 17.2 17.2 19.6 10.4 4 22.4 0 24.8-8s-5.2-17.2-17.2-20.8c-10.4-2.8-22 1.2-24.8 9.2zm176.8-6.8c-11.6 2.8-19.6 10.4-18.4 19.6 1.2 8 11.6 13.2 23.6 10.4 11.6-2.8 19.6-10.4 18.4-18.4-1.2-7.6-12-12.8-23.6-11.6zM979.2 32C424.4 32 0 453.2 0 1008c0 443.6 279.2 823.2 678 956.8 51.2 9.2 69.2-22.4 69.2-48.4 0-24.8-1.2-161.6-1.2-245.6 0 0-280 60-338.8-119.2 0 0-45.6-116.4-111.2-146.4 0 0-91.6-62.8 6.4-61.6 0 0 99.6 8 154.4 103.2 87.6 154.4 234.4 110 291.6 83.6 9.2-64 35.2-108.4 64-134.8-223.6-24.8-449.2-57.2-449.2-442 0-110 30.4-165.2 94.4-235.6-10.4-26-44.4-133.2 10.4-271.6 83.6-26 276 108 276 108 80-22.4 166-34 251.2-34s171.2 11.6 251.2 34c0 0 192.4-134.4 276-108 54.8 138.8 20.8 245.6 10.4 271.6 64 70.8 103.2 126 103.2 235.6 0 386-235.6 416.8-459.2 442 36.8 31.6 68 91.6 68 185.6 0 134.8-1.2 301.6-1.2 334.4 0 26 18.4 57.6 69.2 48.4 400-132.8 671.2-512.4 671.2-956 0-554.8-450-976-1004.8-976zM388.8 1411.6c-5.2 4-4 13.2 2.8 20.8 6.4 6.4 15.6 9.2 20.8 4 5.2-4 4-13.2-2.8-20.8-6.4-6.4-15.6-9.2-20.8-4zm-43.2-32.4c-2.8 5.2 1.2 11.6 9.2 15.6 6.4 4 14.4 2.8 17.2-2.8 2.8-5.2-1.2-11.6-9.2-15.6-8-2.4-14.4-1.2-17.2 2.8zm129.6 142.4c-6.4 5.2-4 17.2 5.2 24.8 9.2 9.2 20.8 10.4 26 4 5.2-5.2 2.8-17.2-5.2-24.8-8.8-9.2-20.8-10.4-26-4zm-45.6-58.8c-6.4 4-6.4 14.4 0 23.6 6.4 9.2 17.2 13.2 22.4 9.2 6.4-5.2 6.4-15.6 0-24.8-5.6-9.2-16-13.2-22.4-8z"/>
</svg>
