<svg xmlns="http://www.w3.org/2000/svg" fill="currentColor" viewBox="0 0 100 100" height="1em" width="1em">
  <g>
    <path fill-rule="evenodd" clip-rule="evenodd" d="M49.998,11.963C28.461,11.963,11,29.425,11,50.965 c0,17.231,11.172,31.849,26.671,37.003c1.952,0.361,2.662-0.84,2.662-1.877c0-0.924-0.034-3.375-0.051-6.633 c-10.849,2.359-13.138-5.229-13.138-5.229c-1.774-4.505-4.331-5.703-4.331-5.703c-3.541-2.418,0.269-2.371,0.269-2.371 c3.914,0.277,5.974,4.018,5.974,4.018c3.478,5.96,9.129,4.235,11.35,3.243c0.353-2.525,1.363-4.24,2.476-5.217 c-8.659-0.984-17.763-4.33-17.763-19.274c0-4.259,1.519-7.741,4.013-10.468c-0.399-0.982-1.74-4.947,0.383-10.319 c0,0,3.274-1.048,10.726,4.001c3.109-0.869,6.446-1.303,9.763-1.316c3.312,0.014,6.65,0.447,9.763,1.316 c7.447-5.049,10.716-4.001,10.716-4.001c2.128,5.372,0.788,9.337,0.388,10.319c2.5,2.727,4.008,6.209,4.008,10.468 c0,14.979-9.117,18.279-17.805,19.241c1.398,1.205,2.646,3.59,2.646,7.229c0,5.211-0.047,9.416-0.047,10.695 c0,1.045,0.701,2.26,2.681,1.873C77.836,82.798,89,68.191,89,50.965C89,29.425,71.539,11.963,49.998,11.963z"/>
  </g>
</svg>