<svg xmlns="http://www.w3.org/2000/svg" fill="currentColor" width="1em" height="1em" viewBox="0 0 107 107">
<g fill="none" fill-rule="evenodd" transform="translate(2.982 2.982)">
<path stroke="currentColor" stroke-linecap="round" stroke-linejoin="round" stroke-width="4.393" d="M19.7678571,0 C30.6853432,0 39.5357143,8.85037111 39.5357143,19.7678571 C39.5357143,30.6853432 30.6853432,39.5357143 19.7678571,39.5357143 C8.85037111,39.5357143 0,30.6853432 0,19.7678571 C0,8.85037111 8.85037111,0 19.7678571,0 L19.7678571,0 Z M48.3214286,39.5357143 C55.5997526,39.5357143 61.5,45.4359617 61.5,52.7142857 C61.5,59.9926097 55.5997526,65.8928571 48.3214286,65.8928571 C41.0431045,65.8928571 35.1428571,59.9926097 35.1428571,52.7142857 C35.1428571,45.4359617 41.0431045,39.5357143 48.3214286,39.5357143 Z M48.3214286,74.6785714 C55.5997526,74.6785714 61.5,80.5788188 61.5,87.8571429 C61.5,95.1354669 55.5997526,101.035714 48.3214286,101.035714 C41.0431045,101.035714 35.1428571,95.1354669 35.1428571,87.8571429 C35.1428571,80.5788188 41.0431045,74.6785714 48.3214286,74.6785714 Z"/>
<path stroke="currentColor" stroke-linecap="round" stroke-linejoin="round" stroke-width="4.393" d="M87.8571429,74.6785714 C95.1354669,74.6785714 101.035714,80.5788188 101.035714,87.8571429 C101.035714,95.1354669 95.1354669,101.035714 87.8571429,101.035714 C80.5788188,101.035714 74.6785714,95.1354669 74.6785714,87.8571429 C74.6785714,80.5788188 80.5788188,74.6785714 87.8571429,74.6785714 Z"/>
<polyline stroke="currentColor" stroke-linecap="round" stroke-linejoin="round" stroke-width="4.393" points="52.793 49.655 46.05 56.387 42.778 53.125"/>
<g stroke="currentColor" stroke-linecap="round" stroke-linejoin="round" stroke-width="4.393" transform="translate(74.679 39.536)">
<path d="M13.1785714,0 C20.4568955,0 26.3571429,5.9002474 26.3571429,13.1785714 C26.3571429,20.4568955 20.4568955,26.3571429 13.1785714,26.3571429 C5.9002474,26.3571429 0,20.4568955 0,13.1785714 C0,5.9002474 5.9002474,0 13.1785714,0 Z"/>
<polyline points="17.651 10.119 10.907 16.851 7.635 13.589"/></g>
<path stroke="currentColor" stroke-linecap="round" stroke-linejoin="round" stroke-width="4.393" d="M16.5456964,10.9074643 L27.7760357,17.9799643 C28.4178266,18.3833884 28.8062276,19.0892404 28.8035611,19.8472901 C28.8008672,20.6053399 28.4074847,21.3084277 27.7628571,21.7073036 L16.5325179,28.6699821 C15.8550724,29.0900649 15.0032059,29.1101448 14.3067197,28.7224479 C13.6102335,28.3347509 13.1785714,27.6001388 13.1785714,26.8030179 L13.1785714,12.7656429 C13.1785714,11.9658375 13.6135044,11.2293022 14.3137561,10.8428619 C15.0140079,10.4564216 15.8689689,10.481168 16.5456964,10.9074643 L16.5456964,10.9074643 Z M17.5714286,39.5357143 L17.5714286,72.4821429 C17.5714286,80.9735357 24.5494821,87.8571429 32.9464286,87.8571429 L35.1428571,87.8571429"/>
<path stroke="currentColor" stroke-linecap="round" stroke-linejoin="round" stroke-width="4.393" d="M17.5714286,39.6125893 C17.5714286,46.8484564 23.4372579,52.7142857 30.673125,52.7142857 L35.0308393,52.7142857 M61.6208036,52.7142857 L74.6785714,52.7142857"/>
<path fill="currentColor" fill-rule="nonzero" d="M43.9285714,85.660714 C44.7136722,85.6611066 45.4389259,86.0803154 45.8311365,86.7604287 C46.223347,87.4405421 46.2229284,88.2782346 45.8300382,88.9579556 C45.4371481,89.6376766 44.7114757,90.0561603 43.926375,90.0557681 C42.7127145,90.0551613 41.72934,89.0708033 41.7299463,87.8571429 C41.7305531,86.6434824 42.7149109,85.6601078 43.9285714,85.660714 M52.7142857,85.660714 C53.4993864,85.6611066 54.2246401,86.0803154 54.6168507,86.7604287 C55.0090613,87.4405421 55.0086427,88.2782346 54.6157525,88.9579556 C54.2228624,89.6376766 53.49719,90.0561603 52.7120893,90.0557681 C51.4984288,90.0551613 50.5150543,89.0708033 50.5156606,87.8571429 C50.5162674,86.6434824 51.5006252,85.6601078 52.7142857,85.660714"/>
<line x1="72.493" x2="70.268" y1="87.873" y2="87.945" stroke="currentColor" stroke-linecap="round" stroke-width="4.393"/>
</g>
</svg>