<svg xmlns="http://www.w3.org/2000/svg" width="1em" height="1em" viewBox="0 0 120 120"><path fill="currentColor" d="M60,0 C93.137085,-6.08718376e-15 120,26.862915 120,60 C120,93.137085 93.137085,120 60,120 C26.862915,120 4.05812251e-15,93.137085 0,60 C-4.05812251e-15,26.862915 26.862915,6.08718376e-15 60,0 Z M66.9375,44.8284375 C63.140625,42.2503125 58.921875,41.7346875 54.515625,42.5315625 C49.125,43.5159375 44.71875,46.2815625 41.390625,50.6409375 C38.296875,54.6721875 36.796875,59.2659375 37.40625,64.3753125 C37.921875,68.6878125 39.890625,72.1565625 43.359375,74.7815625 C47.109375,77.5940625 51.375,78.4846875 55.96875,77.8753125 C61.546875,77.1253125 65.953125,74.3596875 69.328125,69.9065625 C70.0941964,68.8967411 70.7503316,67.8351849 71.2989326,66.7266981 C72.0855742,69.5828677 73.6756442,72.0358799 75.984375,74.0315625 C79.265625,76.8440625 83.15625,78.0628125 87.421875,78.1565625 C88.640625,78.0159375 89.90625,77.9690625 91.171875,77.7346875 C95.53125,76.8440625 99.328125,74.8753125 102.421875,71.7346875 C106.78125,67.3284375 108.609375,62.1721875 107.8125,55.8440625 C107.203125,51.3440625 104.90625,47.9221875 101.203125,45.3909375 C97.125,42.6253125 92.625,42.1565625 87.84375,43.0003125 C82.265625,43.9846875 78.140625,46.3284375 74.71875,50.8284375 C73.2524636,52.7475477 72.1531891,54.7757695 71.4756823,56.9222289 L56.390625,56.9221875 C55.6875,56.9221875 55.359375,57.3909375 55.21875,57.6721875 C54.5625,58.8909375 53.4375,61.3284375 52.828125,62.7815625 C52.5,63.5784375 52.734375,64.1878125 53.71875,64.1878125 L62.765625,64.1878125 C62.296875,64.8440625 61.921875,65.4065625 61.5,65.9221875 C59.390625,68.3128125 56.71875,69.4378125 53.53125,69.0159375 C49.828125,68.5003125 47.25,65.4065625 47.203125,61.6565625 C47.15625,57.8596875 48.796875,54.8128125 51.984375,52.7503125 C54.65625,51.0159375 57.515625,50.5940625 60.46875,52.0471875 C61.453125,52.5159375 61.96875,53.0315625 62.671875,53.8284375 C63.28125,54.5315625 63.328125,54.4846875 64.03125,54.2971875 C66.9375,53.5471875 68.953125,52.9846875 71.90625,52.2346875 C72.46875,52.0940625 72.65625,51.8596875 72.375,51.4378125 C71.203125,48.7190625 69.421875,46.4690625 66.9375,44.8284375 Z M88.875,51.4378125 C93.328125,50.4065625 97.59375,53.0315625 98.4375,57.6721875 C98.53125,58.1409375 98.53125,58.6096875 98.578125,59.2190625 C98.34375,63.2503125 96.328125,66.2503125 92.625,68.1721875 C90.140625,69.4378125 87.5625,69.5784375 84.984375,68.4534375 C81.609375,66.9534375 79.828125,63.2503125 80.671875,59.5940625 C81.703125,55.1878125 84.515625,52.4221875 88.875,51.4378125 Z M33.609375,59.9690625 L24.234375,59.9690625 C24.046875,59.9690625 23.859375,60.1096875 23.765625,60.2503125 L23.109375,61.4221875 C23.015625,61.5628125 23.0625,61.7034375 23.25,61.7034375 L33.46875,61.7503125 C33.609375,61.7503125 33.796875,61.6096875 33.796875,61.4221875 L33.890625,60.2971875 C33.890625,60.1096875 33.796875,59.9690625 33.609375,59.9690625 Z M34.640625,55.6565625 L13.265625,55.6565625 C13.078125,55.6565625 12.84375,55.7503125 12.75,55.8909375 L11.765625,57.1565625 C11.671875,57.2971875 11.71875,57.3909375 11.90625,57.3909375 L34.078125,57.3440625 C34.265625,57.3440625 34.453125,57.2503125 34.5,57.0628125 L34.875,55.9378125 C34.921875,55.7971875 34.828125,55.6565625 34.640625,55.6565625 Z M37.078125,51.3440625 L20.34375,51.3440625 C20.15625,51.3440625 19.921875,51.4378125 19.828125,51.5784375 L18.84375,52.8440625 C18.75,52.9846875 18.796875,53.0784375 18.984375,53.0784375 L35.953125,53.1253125 C36.09375,53.1253125 36.328125,52.9846875 36.421875,52.8440625 L37.21875,51.6253125 C37.3125,51.4846875 37.265625,51.3440625 37.078125,51.3440625 Z"/></svg>