<svg viewBox="0 0 15 15" fill="none" xmlns="http://www.w3.org/2000/svg" height="1em" width="1em">
  <path d="m2.61 4.432 4.142-2.417-.504-.864-4.143 2.417.504.864ZM2 9.5v-4H1v4h1Zm6.248-7.485 4.143 2.417.504-.864-4.143-2.417-.504.864ZM13 5.5v4h1v-4h-1Zm-.252 4.86-4.5 2.625.504.864 4.5-2.625-.504-.864Zm-5.996 2.625-4.143-2.417-.504.864 4.143 2.417.504-.864ZM6.584 1.973l-5 7.5.832.554 5-7.5-.832-.554Zm6.832 7.5-5-7.5-.832.554 5 7.5.832-.554ZM2.5 11h10v-1h-10v1Zm5-9a.5.5 0 0 1-.5-.5H6A1.5 1.5 0 0 0 7.5 3V2Zm.5-.5a.5.5 0 0 1-.5.5v1A1.5 1.5 0 0 0 9 1.5H8ZM7.5 1a.5.5 0 0 1 .5.5h1A1.5 1.5 0 0 0 7.5 0v1Zm0-1A1.5 1.5 0 0 0 6 1.5h1a.5.5 0 0 1 .5-.5V0Zm6 5a.5.5 0 0 1-.5-.5h-1A1.5 1.5 0 0 0 13.5 6V5Zm.5-.5a.5.5 0 0 1-.5.5v1A1.5 1.5 0 0 0 15 4.5h-1Zm-.5-.5a.5.5 0 0 1 .5.5h1A1.5 1.5 0 0 0 13.5 3v1Zm0-1A1.5 1.5 0 0 0 12 4.5h1a.5.5 0 0 1 .5-.5V3Zm0 8a.5.5 0 0 1-.5-.5h-1a1.5 1.5 0 0 0 1.5 1.5v-1Zm.5-.5a.5.5 0 0 1-.5.5v1a1.5 1.5 0 0 0 1.5-1.5h-1Zm-.5-.5a.5.5 0 0 1 .5.5h1A1.5 1.5 0 0 0 13.5 9v1Zm0-1a1.5 1.5 0 0 0-1.5 1.5h1a.5.5 0 0 1 .5-.5V9Zm-6 5a.5.5 0 0 1-.5-.5H6A1.5 1.5 0 0 0 7.5 15v-1Zm.5-.5a.5.5 0 0 1-.5.5v1A1.5 1.5 0 0 0 9 13.5H8Zm-.5-.5a.5.5 0 0 1 .5.5h1A1.5 1.5 0 0 0 7.5 12v1Zm0-1A1.5 1.5 0 0 0 6 13.5h1a.5.5 0 0 1 .5-.5v-1Zm-6-1a.5.5 0 0 1-.5-.5H0A1.5 1.5 0 0 0 1.5 12v-1Zm.5-.5a.5.5 0 0 1-.5.5v1A1.5 1.5 0 0 0 3 10.5H2Zm-.5-.5a.5.5 0 0 1 .5.5h1A1.5 1.5 0 0 0 1.5 9v1Zm0-1A1.5 1.5 0 0 0 0 10.5h1a.5.5 0 0 1 .5-.5V9Zm0-4a.5.5 0 0 1-.5-.5H0A1.5 1.5 0 0 0 1.5 6V5Zm.5-.5a.5.5 0 0 1-.5.5v1A1.5 1.5 0 0 0 3 4.5H2ZM1.5 4a.5.5 0 0 1 .5.5h1A1.5 1.5 0 0 0 1.5 3v1Zm0-1A1.5 1.5 0 0 0 0 4.5h1a.5.5 0 0 1 .5-.5V3Z" fill="currentColor" />
</svg>
