<svg viewBox="0 0 20 20" fill="currentColor" xmlns="http://www.w3.org/2000/svg" height="1em" width="1em">
  <path d="M5 3a2 2 0 0 0-2 2v4.758A4.5 4.5 0 0 1 9.973 13h3.529a.5.5 0 0 1 0 1h-3.53a4.499 4.499 0 0 1-.411 1.439L11.122 17h3.879a2 2 0 0 0 2-2V5a2 2 0 0 0-2-2H5Zm2.5 4.25a.75.75 0 1 1-1.5 0 .75.75 0 0 1 1.5 0Zm2-.25h4a.5.5 0 0 1 0 1h-4a.5.5 0 0 1 0-1ZM9 10.5a.5.5 0 0 1 .5-.5h4a.5.5 0 0 1 0 1h-4a.5.5 0 0 1-.5-.5Zm-6.615 1.405A3.5 3.5 0 0 0 7.6 16.3l2.543 2.558a.5.5 0 0 0 .707-.708L8.3 15.6a3.5 3.5 0 1 0-5.916-3.695Zm5.194.206a2.5 2.5 0 1 1-4.157 2.778 2.5 2.5 0 0 1 4.157-2.778Z" />
</svg>
