<svg xmlns="http://www.w3.org/2000/svg" fill="currentColor" viewBox="0 0 32 32" height="1em" width="1em">
  <path d="M0 0v32h32V0zm4.964 4.145h6.667v2.448H9.776v8.371h1.855v2.443H4.964v-2.443h1.927V6.593H4.964zm14.739 0h2.964v8.667c0 .819-.073 1.485-.297 2.079a4.002 4.002 0 0 1-.963 1.479c-.371.371-.885.745-1.48.891a5.192 5.192 0 0 1-1.927.371c-1.036 0-1.927-.224-2.593-.595a6.403 6.403 0 0 1-1.704-1.405l1.855-2.073c.369.443.74.74 1.109.964.369.219.812.369 1.26.369.521 0 .959-.151 1.333-.521.292-.369.443-.891.443-1.703zM2.964 26h12v2h-12z"/>
</svg>
