<svg xmlns="http://www.w3.org/2000/svg" fill="currentColor" viewBox="0 0 32 32" height="1em" width="1em">
  <path d="M16.057 31.958a15.416 15.416 0 0 0 1.901-.125 15.825 15.825 0 0 0 4.193-1.151 16.528 16.528 0 0 0 5.057-3.391 15.922 15.922 0 0 0 3.255-4.573c.677-1.458 1.161-3.031 1.359-4.63.198-1.547.182-3.13-.057-4.667a16.195 16.195 0 0 0-1.057-3.719 15.426 15.426 0 0 0-1.141-2.156c-1.557-2.448-3.813-4.417-6.411-5.734A17.13 17.13 0 0 0 20.26.656h-.01c.161.083.323.172.464.266.156.099.318.198.469.302.755.51 1.458 1.099 2.078 1.771 1.417 1.526 2.396 3.401 2.953 5.391.38 1.307.583 2.661.661 4.021.057.99.057 1.99-.063 2.974-.198 1.693-.74 3.344-1.635 4.792a10.012 10.012 0 0 1-2.536 2.781c-1.661 1.234-3.839 1.974-5.917 1.484a5.091 5.091 0 0 1-.995-.344 6.254 6.254 0 0 1-1.042-.599 8.116 8.116 0 0 1-1.656-1.474 8.605 8.605 0 0 1-1.401-2.328 9.76 9.76 0 0 1-.656-3.391c-.042-1.698.297-3.401 1.135-4.891a8.503 8.503 0 0 1 2.219-2.557c.302-.24.62-.443.938-.641l.021-.01a6.976 6.976 0 0 0-1.922-.156 6.564 6.564 0 0 0-1.635.318 7.701 7.701 0 0 0-1.359.599 8.041 8.041 0 0 0-.974.661c-.281.24-.563.479-.823.74-1.495 1.536-2.359 3.573-2.698 5.672-.198 1.302-.198 2.615-.12 3.938.141 1.859.521 3.714 1.26 5.411a11.348 11.348 0 0 0 1.797 2.901 10.868 10.868 0 0 0 4.177 2.974c.901.359 1.859.62 2.818.719.099.021.198.021.276.021zm-3.911-.531a5.861 5.861 0 0 1-.599-.302c-.198-.115-.401-.224-.599-.349a11.13 11.13 0 0 1-2.12-1.698c-1.458-1.516-2.438-3.422-2.995-5.443-.38-1.38-.583-2.802-.661-4.229a16.458 16.458 0 0 1 .063-2.776c.177-1.677.661-3.333 1.5-4.771a9.098 9.098 0 0 1 2.375-2.74 8.147 8.147 0 0 1 2.177-1.198 7.079 7.079 0 0 1 3.417-.359c.443.057.88.156 1.281.297.036 0 .036 0 .057.042.021.021.063.021.083.036.057.026.135.063.219.099.318.161.635.365.938.563a8.408 8.408 0 0 1 2.797 3.333c.557 1.219.818 2.583.839 3.922.021 1.438-.24 2.875-.859 4.193a8.558 8.558 0 0 1-3.516 3.776c.12.042.24.057.359.099.302.057.599.099.917.099 1.958.063 3.859-.88 5.255-2.198.26-.24.5-.5.719-.776.302-.359.583-.719.823-1.099.318-.5.578-1 .818-1.536.302-.719.536-1.458.677-2.219.26-1.339.281-2.698.198-4.036-.177-2.698-.896-5.396-2.453-7.63-.24-.339-.479-.661-.74-.958a13.11 13.11 0 0 0-1.422-1.38A10.994 10.994 0 0 0 19.876.97a12.981 12.981 0 0 0-2.255-.797L17.22.09c-.276-.042-.557-.057-.844-.078a10.636 10.636 0 0 0-1.354.021c-.938.057-1.88.214-2.813.448C7.735 1.637 3.818 4.757 1.735 8.892A15.851 15.851 0 0 0 .177 18.1c.161 1.359.5 2.698 1.036 3.969.307.76.682 1.5 1.104 2.198 1.458 2.38 3.578 4.318 6.01 5.656.917.521 1.88.917 2.875 1.26.302.099.604.198.922.276z"/>
</svg>
