<svg xmlns="http://www.w3.org/2000/svg" fill="currentColor" width="1em" height="1em" viewBox="0 0 230 230"><path d="M176.09375,0 C205.86535,-5.46895416e-15 230,24.1346502 230,53.90625 L230,176.09375 C230,205.86535 205.86535,230 176.09375,230 L53.90625,230 C24.1346502,230 3.64596944e-15,205.86535 0,176.09375 L0,53.90625 C-3.64596944e-15,24.1346502 24.1346502,5.46895416e-15 53.90625,0 L176.09375,0 Z M46.6655391,74 L39,74 L39,156 L46.6655391,156 L46.6655391,129.650518 L49.6224434,126.261287 L69.8814961,156 L77.547334,156 L54.002666,121.450727 L71.8528652,101.333433 L70.7576602,101.333433 L46.6655391,128.447878 L46.6655391,74 Z M166.63517,101.605824 C155.279402,101.605824 148.80559,105.323536 147.426199,105.960807 L147.850535,106.70429 C150.50383,105.217325 158.675584,102.455817 165.255779,102.455817 C175.471142,102.455817 176.406034,109.037681 176.428332,111.278315 L176.428388,111.441925 C176.424978,111.802842 176.39908,112.014881 176.39908,112.014881 L176.39908,129.646341 C175.125475,129.54013 169.7131,129.327706 164.937229,129.752553 C146.046211,131.027095 143.499299,136.337984 144.560438,143.454176 C145.19724,147.702947 147.319816,155.562622 159.737021,155.562622 C170.24352,155.562622 174.276504,149.933396 176.39908,146.10977 L176.39908,147.596736 C176.39908,147.596736 176.396486,147.62746 176.394995,147.684985 L176.394581,147.834611 C176.41733,149.115868 177.139684,155.137775 188.709902,155.137775 L192,155.137476 L192,154.287782 L188.70601,154.287921 C188.703429,154.288003 188.699579,154.288109 188.694503,154.288209 L188.616885,154.288028 C187.942429,154.274794 183.828246,153.934323 183.828246,147.596437 L183.828246,112.015179 C183.828246,108.403679 182.023922,101.605824 166.63517,101.605824 Z M111.11141,101.498121 C96.1873359,101.498121 84.7236914,111.37582 84.7236914,129.113791 C84.7236914,148.44464 96.5115645,155.45462 110.246303,155.45462 C125.170377,155.45462 136.634021,145.576921 136.634021,127.839249 C136.634021,108.508101 124.846148,101.498121 111.11141,101.498121 Z M164.943803,130.353127 C170.178674,129.705713 175.099477,130.137422 176.356049,130.245125 L176.356049,143.304406 C176.041682,147.621499 169.550537,154.852853 161.593939,154.852853 C154.26518,154.852853 152.694838,148.700921 152.275881,143.412408 C151.647744,135.533639 153.846521,131.648255 164.943803,130.353127 Z M111.117088,102.20789 C121.305932,102.20789 129.523107,109.148952 129.523107,127.835669 C129.523107,144.920854 120.97752,154.744851 110.240625,154.744851 C100.051482,154.744851 91.8346055,147.804087 91.8346055,129.117072 C91.8346055,112.031887 100.380193,102.20789 111.117088,102.20789 Z"/></svg>