<svg xmlns="http://www.w3.org/2000/svg" width="1em" height="1em" viewBox="0 0 44 50"><g fill="none" fill-rule="evenodd"><polygon fill="#FFF" points="0 18.234 21.191 0 43.403 18.234 43.403 18.365 21.702 35.818 0 18.365"/><path fill="#40C4FF" d="M21.8169,35.8142 L21.9452,35.8142 C21.9452,35.8142 21.9868,39.0876 21.9452,40.6557 C21.9036,42.2237 21.8169,40.6557 21.8169,40.6557 L0,23.1217 L0,18.2803 L21.8169,35.8142 Z"/><polygon fill="#3DC4FF" points="21.817 40.525 21.945 40.525 21.945 45.235 21.817 45.366 0 27.832 0 22.991"/><polygon fill="#FFF" fill-opacity=".25" points="21.817 40.525 21.945 40.525 21.945 45.235 21.817 45.366 0 27.832 0 22.991"/><polygon fill="#3DC4FF" points="21.817 45.236 21.945 45.105 21.945 49.684 21.817 49.815 0 32.281 0 27.702"/><polygon fill="#FFF" fill-opacity=".5" points="21.817 45.236 21.945 45.105 21.945 49.684 21.817 49.815 0 32.281 0 27.702"/><polygon fill="#E040FB" points="21.656 35.814 21.656 40.656 43.403 23.122 43.403 18.28"/><polygon fill="#E040FB" points="21.656 40.525 21.656 45.366 43.403 27.832 43.403 22.991"/><polygon fill="#FFF" fill-opacity=".25" points="21.656 40.525 21.656 45.366 43.403 27.832 43.403 22.991"/><polygon fill="#E040FB" points="21.656 45.236 21.656 49.815 43.403 32.412 43.403 27.702"/><polygon fill="#FFF" fill-opacity=".5" points="21.656 45.236 21.656 49.815 43.403 32.412 43.403 27.702"/><path fill="#1C1C1F" fill-rule="nonzero" d="M14.559,11.6222 C14.559,11.6222 24.812,11.948 27.5377,14.2818 C30.2635,16.6157 30.6498,20.725 28.4006,23.4601 C26.1514,26.1953 22.1185,26.5206 19.3927,24.1868 C16.667,21.8529 14.559,11.6222 14.559,11.6222 Z"/></g></svg>