<svg xmlns="http://www.w3.org/2000/svg" fill="currentColor" height="1em" width="1em" viewBox="0 0 210 90">
<path d="M201.009375,32.7796875 C201.009375,26.053125 202.059375,22.0828125 202.059375,14.8640625 C202.059375,3.6421875 197.925,0.0328125 188.770313,0.0328125 L182.04375,0.0328125 L182.04375,7.9734375 L184.110938,7.9734375 C188.770313,7.9734375 189.7875,9.515625 189.7875,15.225 C189.7875,20.5734375 189.2625,25.921875 189.2625,32.1234375 C189.2625,40.0640625 191.854687,43.1484375 197.00625,44.3625 L197.00625,44.8875 C191.821875,46.1015625 189.2625,49.1859375 189.2625,57.1265625 C189.2625,63.328125 189.7875,68.3484375 189.7875,74.025 C189.7875,79.8984375 188.573437,81.440625 184.110938,81.440625 L184.110938,81.6046875 L182.04375,81.6046875 L182.04375,89.8734375 L188.770313,89.8734375 C197.892188,89.8734375 202.059375,86.2640625 202.059375,75.0421875 C202.059375,67.6265625 201.009375,63.8203125 201.009375,57.1265625 C201.009375,53.5171875 203.240625,49.7109375 209.967187,49.3828125 L209.967187,40.425 C203.240625,40.1953125 201.009375,36.3890625 201.009375,32.7796875 Z M166.359375,43.2796875 C161.175,41.2125 156.351562,39.9984375 156.351562,36.553125 C156.351562,33.9609375 158.41875,32.41875 162.225,32.41875 C166.03125,32.41875 169.476562,33.9609375 173.25,36.7171875 L180.140625,27.5953125 C175.842187,24.3140625 169.96875,20.86875 162.028125,20.86875 C150.314063,20.86875 142.373438,27.5953125 142.373438,37.078125 C142.373438,45.5109375 149.789063,49.8421875 155.990625,52.2375 C161.339063,54.3046875 166.523438,56.04375 166.523438,59.4890625 C166.523438,62.08125 164.45625,63.7875 159.796875,63.7875 C155.498438,63.7875 151.167188,62.0484375 146.507813,58.4390625 L139.617188,68.446875 C144.801563,72.7453125 152.709375,75.6984375 159.271875,75.6984375 C173.053125,75.6984375 180.46875,68.446875 180.46875,58.9640625 C180.46875,49.48125 173.085938,45.5109375 166.359375,43.2796875 L166.359375,43.2796875 Z M48.5953125,62.7703125 C47.38125,62.7703125 45.8390625,61.7203125 45.8390625,58.471875 L45.8390625,7.10542736e-15 L21.3609375,7.10542736e-15 C12.0421875,7.10542736e-15 7.9078125,3.609375 7.9078125,14.83125 C7.9078125,22.246875 8.9578125,26.38125 8.9578125,32.746875 C8.9578125,36.35625 6.7265625,40.1625 -6.99440506e-15,40.490625 L-6.99440506e-15,49.4484375 C6.7265625,49.6125 8.9578125,53.41875 8.9578125,57.028125 C8.9578125,63.39375 7.9078125,67.2 7.9078125,74.615625 C7.9078125,85.8375 12.0421875,89.446875 21.196875,89.446875 L27.9234375,89.446875 L27.9234375,81.50625 L25.85625,81.50625 C21.5578125,81.50625 20.1796875,79.7671875 20.1796875,74.090625 C20.1796875,68.4140625 20.7046875,63.5578125 20.7046875,57.1921875 C20.7046875,49.2515625 18.1125,46.1671875 12.9609375,44.953125 L12.9609375,44.428125 C18.1453125,43.2140625 20.7046875,40.1296875 20.7046875,32.1890625 C20.7046875,25.9875 20.1796875,20.9671875 20.1796875,15.290625 C20.1796875,9.6140625 21.39375,8.0390625 25.85625,8.0390625 L30.4828125,8.0390625 L30.4828125,57.5203125 C30.4828125,68.053125 34.0921875,74.94375 44.625,74.94375 C47.90625,74.94375 50.4984375,74.41875 52.36875,73.7296875 L50.6296875,62.5078125 C49.6125,62.7703125 49.1203125,62.7703125 48.5953125,62.7703125 Z M124.621875,43.2796875 C119.273437,41.2125 114.45,39.9984375 114.45,36.553125 C114.45,33.9609375 116.517187,32.41875 120.323437,32.41875 C124.129687,32.41875 127.575,33.9609375 131.348437,36.7171875 L138.239062,27.5953125 C133.940625,24.3140625 128.067187,20.86875 120.126562,20.86875 C108.4125,20.86875 100.471875,27.5953125 100.471875,37.078125 C100.471875,45.5109375 107.8875,49.8421875 114.089062,52.2375 C119.4375,54.3046875 124.621875,56.04375 124.621875,59.4890625 C124.621875,62.08125 122.554687,63.7875 117.895312,63.7875 C113.596875,63.7875 109.265625,62.0484375 104.60625,58.4390625 L97.8796875,68.446875 C103.064062,72.7453125 110.971875,75.6984375 117.534375,75.6984375 C131.315625,75.6984375 138.731358,68.446875 138.731358,58.9640625 C138.764062,49.48125 131.348437,45.5109375 124.621875,43.2796875 Z M73.7625,20.7046875 C61.1625,20.7046875 49.1203125,31.2375 49.4484375,47.775 C49.4484375,64.8375 60.6703125,74.8453125 75.46875,74.8453125 C81.6703125,74.8453125 88.5609375,72.6140625 93.909375,68.971875 L88.725,59.85 C84.91875,62.08125 81.309375,63.13125 77.503125,63.13125 C70.6125,63.13125 65.2640625,59.85 63.8859375,51.909375 L95.1234375,51.909375 C95.2875,50.6953125 95.6484375,48.3 95.6484375,45.54375 C95.8453125,31.565625 88.2328125,20.7046875 73.7625,20.7046875 L73.7625,20.7046875 Z M63.91875,42.4265625 C64.96875,35.5359375 69.103125,32.2546875 73.9265625,32.2546875 C80.128125,32.2546875 82.55625,36.553125 82.55625,42.4265625 L63.91875,42.4265625 L63.91875,42.4265625 Z" transform="translate(.033 .08)"/></svg>