<svg xmlns="http://www.w3.org/2000/svg" fill="currentColor" viewBox="0 0 32 32" height="1em" width="1em">
  <path d="m.505 13.839-.36-.052c-.067.459-.109.927-.135 1.391l.364.02c.027-.452.068-.911.131-1.359zm5.011-9.454-.245-.271c-.344.307-.683.635-.995.973l.265.256c.313-.333.636-.656.975-.959zm2.177-1.64-.199-.313c-.391.251-.781.516-1.145.792l.219.292a14.89 14.89 0 0 1 1.125-.771zM2.432 24.489c.245.396.511.781.792 1.151l.292-.219a15.077 15.077 0 0 1-.771-1.124zm-.927-2.62-.344.141c.172.421.365.844.579 1.255l.005.016.328-.167-.011-.016a15.065 15.065 0 0 1-.557-1.229zM.396 12.412l.359.083c.105-.443.224-.885.365-1.312l-.349-.115a15.9 15.9 0 0 0-.375 1.344zm-.032 4.151L0 16.574c.016.463.052.932.109 1.391l.364-.043a14.992 14.992 0 0 1-.109-1.359zm-.02 2.781c.093.453.213.907.349 1.349l.348-.105c-.129-.437-.244-.88-.344-1.323zM15.432.364 15.416 0c-.463.016-.932.052-1.389.109l.047.364c.448-.057.905-.093 1.359-.109zm15.532 11.057c.129.433.244.881.339 1.324l.359-.079a14.795 14.795 0 0 0-.349-1.355zm-7.469-9.566a15.542 15.542 0 0 0-1.26-.6l-.147.333c.423.177.833.376 1.235.589zM20.921.76a17.402 17.402 0 0 0-1.343-.364l-.084.353c.443.105.885.224 1.317.365zM8.901 2.063c.396-.203.807-.391 1.219-.557l-.141-.344a15.88 15.88 0 0 0-1.244.573l-.021.011.167.328zm22.735 13.39.369-.016a21.153 21.153 0 0 0-.109-1.396l-.365.047c.053.448.089.907.105 1.365zM18.203.14a15.693 15.693 0 0 0-1.391-.129l-.015.364c.453.021.911.068 1.359.131zm-5.479.563-.079-.359c-.452.093-.905.213-1.348.349l.109.348c.432-.129.875-.244 1.317-.339zM2.563 7.292l.307.197c.245-.375.511-.749.787-1.109l-.287-.229c-.287.371-.557.756-.807 1.141zM1.255 9.755l.339.147c.177-.417.376-.833.589-1.235l-.328-.172c-.215.412-.417.833-.6 1.26zm23.042 19.5.192.313c.396-.245.781-.511 1.151-.792l-.219-.292c-.359.271-.739.537-1.124.771zm4.031-3.63.292.229c.287-.365.557-.751.807-1.141l-.301-.197c-.251.38-.516.749-.797 1.109zm-1.855 1.995.245.271c.344-.307.683-.64.995-.973l-.265-.256c-.308.333-.641.651-.975.959zm3.339-4.281.324.172c.219-.412.421-.833.599-1.26l-.339-.141c-.177.417-.369.828-.584 1.229zm1.677-5.167.365.052c.063-.464.109-.927.135-1.391l-.364-.021c-.027.453-.073.912-.136 1.36zm-.614 2.656.355.115c.14-.443.265-.896.369-1.349l-.359-.083c-.1.448-.224.891-.365 1.317zm-.938-11.932c.203.407.396.823.568 1.244l.339-.14c-.172-.427-.371-.86-.584-1.271zM11.063 31.224c.443.14.891.265 1.344.369l.083-.353a15.487 15.487 0 0 1-1.312-.365zm2.718.631c.459.063.927.109 1.391.135l.016-.369a15.064 15.064 0 0 1-1.36-.131zm9.318-1.923c-.401.204-.812.396-1.235.563l.141.344c.421-.177.855-.365 1.26-.579l.005-.005-.161-.328zM6.151 28.625c.365.281.751.557 1.141.801l.197-.301c-.38-.251-.755-.516-1.115-.792zm10.406 3.011.011.364c.463-.021.932-.052 1.396-.115l-.047-.359c-.448.057-.907.093-1.36.109zM8.495 30.14c.407.215.833.417 1.26.6l.141-.339a17.761 17.761 0 0 1-1.229-.589zm-4.386-3.421c.312.349.64.683.979.995l.251-.265a15.397 15.397 0 0 1-.953-.975zm15.151 4.584.079.359c.453-.099.907-.219 1.355-.355l-.109-.348a21.46 21.46 0 0 1-1.324.344zM28.24.172a3.583 3.583 0 0 0-3.584 3.583 3.584 3.584 0 0 0 3.584 3.589c4.781 0 4.781-7.172 0-7.172zm-7.808 20.421c0 .631.417.88 1.136.88.896 0 1.729-.525 1.729-1.353v-.86c-.308.147-.505.188-1.475.324-.979.145-1.391.405-1.391 1.009zM16 3.755c-6.76 0-12.24 5.48-12.24 12.24S9.24 28.24 16 28.24s12.24-5.485 12.24-12.245c0-6.755-5.48-12.24-12.24-12.24zM12.683 22.12H7.694v-8.032h1.025v7.125h3.969v.907zm5.51 0h-.829v-.896c-.541.76-1.077 1.057-1.927 1.057-1.125 0-1.839-.62-1.839-1.579v-4.359h.912v4c0 .692.463 1.135 1.192 1.135.959 0 1.573-.771 1.573-1.948v-3.187h.917zm-.709-11.193a3.583 3.583 0 1 1 7.166 0 3.583 3.583 0 0 1-7.166 0zm7.423 10.474v.692c-.297.079-.437.1-.625.1a.976.976 0 0 1-.953-.761 2.695 2.695 0 0 1-1.959.849c-1.172 0-1.896-.615-1.896-1.661 0-.703.339-1.224 1.011-1.5.36-.141.552-.188 1.855-.349.729-.088.959-.255.959-.64v-.245c0-.547-.464-.859-1.287-.859-.865 0-1.276.323-1.36 1.025h-.921c.057-1.333.916-1.869 2.312-1.869 1.423 0 2.167.547 2.167 1.572v3.219c0 .287.177.448.5.448.052 0 .099 0 .199-.02z"/>
</svg>
