<svg xmlns="http://www.w3.org/2000/svg" fill="currentColor" height="1em" width="1em" viewBox="0 0 170 155">
<path fill="currentColor" d="M114.011719,0 C114.031753,0 114.051781,9.66838127e-05 114.071803,0.00028991369 L113.950625,0 C114.100589,0 114.249952,0.00491257692 114.398738,0.0147015257 C114.496091,0.0180986001 114.59346,0.0264563127 114.690679,0.0370869506 C114.763187,0.0481571338 114.835494,0.0572318789 114.907669,0.067464417 C114.971991,0.0739091229 115.036007,0.0841522806 115.099959,0.0953775501 C115.24595,0.122450074 115.39156,0.152173631 115.536656,0.18662408 C115.540798,0.188498498 115.544794,0.189486731 115.54879,0.190478791 C119.122197,1.04453486 122.383831,4.76737051 125.66002,10.8263087 C134.504866,26.8199813 143.233527,58.3720491 155.079417,90.6337197 C159.654754,102.628081 164.55935,114.497108 169.788199,126.226944 L169.804687,126.261915 C169.561883,126.036533 169.320725,125.810778 169.080287,125.584766 C157.868517,115.075569 148.22195,104.663526 137.239023,104.2475 C132.658523,104.354002 127.856902,106.798464 122.838279,110.852094 C115.884496,116.808357 108.801576,125.883622 101.371385,134.204547 C98.5874924,137.56095 95.5963582,140.611013 92.6231575,143.258032 C88.7439115,146.854737 84.755953,149.885794 80.6318234,151.86198 C77.8565289,153.320564 75.5138817,154.09239 73.9252344,154.03711 C73.9252344,154.03711 73.6050703,153.13142 73.0221211,151.57669 C72.3047411,149.730047 71.5034539,147.651723 70.6255994,145.430214 C66.7152626,135.747112 59.8767348,120.415838 53.1632895,113.088875 C51.6852935,111.572994 50.1641478,110.359882 48.6081822,109.545946 C44.005418,107.866712 38.8723879,108.38614 34.6886719,110.979493 L0.055,86.396 L48.3332422,66.8904688 L48.6560848,66.4654629 C53.451559,60.1199079 58.8698811,54.2694715 64.8303516,49.0016797 L64.5185432,49.2785154 C64.6217228,49.1857698 64.7250601,49.0931917 64.8285547,49.0007813 C68.8310937,46.8777734 76.3510156,48.0304688 90.1177734,30.9287109 C90.3414762,30.6490748 90.5626216,30.370121 90.781262,30.0919051 C92.8016022,27.5154524 94.6118072,25.0027302 96.2508432,22.5981511 L96.5028669,22.2275882 C105.052639,9.58238289 108.828956,0 113.950625,0 L113.994,0.001 Z"/>
</svg>