<svg xmlns="http://www.w3.org/2000/svg" height="1em" width="1em" viewBox="0 0 209 204">
<g fill="none" fill-rule="evenodd" transform="translate(5 5.644)">
<path fill="#F15A29" fill-rule="nonzero" d="M114,96.3562512 C114,104.088251 107.732,110.356251 100,110.356251 C92.268,110.356251 86,104.088251 86,96.3562512 C86,88.6242512 92.268,82.3562512 100,82.3562512 C107.732,82.3562512 114,88.6242512 114,96.3562512 Z"/>
<path stroke="#F7941E" stroke-width="4" d="M119.5,96.3562512 C119.5,107.126251 110.77,115.856251 100,115.856251 C89.23,115.856251 80.5,107.126251 80.5,96.3562512 C80.5,85.5862512 89.23,76.8562512 100,76.8562512 C110.77,76.8562512 119.5,85.5862512 119.5,96.3562512 Z"/>
<g stroke="currentColor" stroke-width="10">
<path d="M130,96.3562512 C130,112.925251 116.569,126.356251 100,126.356251 C83.431,126.356251 70,112.925251 70,96.3562512 C70,79.7872512 83.431,66.3562512 100,66.3562512 C116.569,66.3562512 130,79.7872512 130,96.3562512 Z"/>
<path d="M167,24.3562512 C133.273,-4.80574879 84.314,-8.11674879 46.967,16.2392512 C9.62,40.5952512 -7.089,86.7342512 6,129.356251 L44,129.356251 C55.0860053,149.157715 75.6966688,161.743751 98.3755043,162.561006 C121.05434,163.378261 142.517468,152.308398 155,133.356251 M0,96.3562512 L70,96.3562512"/></g>
<path fill="#F7941E" fill-rule="nonzero" d="M164,125.356251 C164,128.66996 161.313708,131.356251 158,131.356251 C154.686292,131.356251 152,128.66996 152,125.356251 C152,122.042543 154.686292,119.356251 158,119.356251 C161.313708,119.356251 164,122.042543 164,125.356251 Z"/>
<path stroke="currentColor" stroke-width="3.2" d="M20,10 C20,15.523 15.523,20 10,20 C4.477,20 0,15.523 0,10 C0,4.477 4.477,0 10,0 C15.523,0 20,4.477 20,10 Z" transform="translate(148 115.356)"/>
<path fill="#F7941E" fill-rule="nonzero" d="M179,31.3562512 C179,34.6699597 176.313708,37.3562512 173,37.3562512 C169.686292,37.3562512 167,34.6699597 167,31.3562512 C167,28.0425427 169.686292,25.3562512 173,25.3562512 C176.313708,25.3562512 179,28.0425427 179,31.3562512 Z"/>
<g stroke="currentColor" transform="translate(33 21.356)">
<path stroke-width="3.2" d="M20,10 C20,15.523 15.523,20 10,20 C4.477,20 0,15.523 0,10 C0,4.477 4.477,0 10,0 C15.523,0 20,4.477 20,10 Z" transform="translate(130)"/>
<path stroke-width="10" d="M0,147 C33.727,176.162 82.686,179.473 120.033,155.117 C157.38,130.761 174.089,84.622 161,42 L123,42 C111.913995,22.1985361 91.3033312,9.61250069 68.6244957,8.79524536 C45.9456602,7.97799002 24.4825319,19.0478528 12,38 M167,75 L97,75"/></g>
<path fill="#F7941E" fill-rule="nonzero" d="M48,67.3562512 C48,70.6699597 45.3137085,73.3562512 42,73.3562512 C38.6862915,73.3562512 36,70.6699597 36,67.3562512 C36,64.0425427 38.6862915,61.3562512 42,61.3562512 C45.3137085,61.3562512 48,64.0425427 48,67.3562512 Z"/>
<path stroke="currentColor" stroke-width="3.2" d="M20,10 C20,15.523 15.523,20 10,20 C4.477,20 0,15.523 0,10 C0,4.477 4.477,0 10,0 C15.523,0 20,4.477 20,10 Z" transform="translate(32 57.356)"/>
<path fill="#F7941E" fill-rule="nonzero" d="M33,161.356251 C33,163.499845 31.8564065,165.480607 30,166.552404 C28.1435936,167.624201 25.8564064,167.624201 24,166.552404 C22.1435935,165.480607 21,163.499845 21,161.356251 C21,158.042543 23.6862915,155.356251 27,155.356251 C30.3137085,155.356251 33,158.042543 33,161.356251 L33,161.356251 Z"/>
<path stroke="currentColor" stroke-width="3.2" d="M20,10 C20,15.523 15.523,20 10,20 C4.477,20 0,15.523 0,10 C0,4.477 4.477,0 10,0 C15.523,0 20,4.477 20,10 Z" transform="translate(17 151.356)"/>
</g>
</svg>