<svg viewBox="0 0 120 257" fill="none" xmlns="http://www.w3.org/2000/svg" height="1em" width="1em">
  <path d="M82.323 28.644C71.537 15.847 62.249 2.85 60.35.15c-.2-.2-.5-.2-.7 0-1.897 2.7-11.185 15.697-21.971 28.494C-54.902 146.721 52.26 226.406 52.26 226.406l.9.6C53.958 239.303 55.955 257 55.955 257h7.99s1.998-17.597 2.797-29.994l.899-.7c.1.1 107.263-79.585 14.68-197.662ZM59.95 224.606s-4.793-4.099-6.092-6.198v-.201l5.793-128.574c0-.4.6-.4.6 0l5.792 128.574v.201c-1.299 2.099-6.093 6.198-6.093 6.198Z" fill="currentColor"/>
</svg>
