<svg xmlns="http://www.w3.org/2000/svg" height="1em" width="1em" viewBox="0 0 230 230">
<path fill="currentColor" d="M176.09375,0 C205.86535,-5.46895416e-15 230,24.1346502 230,53.90625 L230,176.09375 C230,205.86535 205.86535,230 176.09375,230 L53.90625,230 C24.1346502,230 3.64596944e-15,205.86535 0,176.09375 L0,53.90625 C-3.64596944e-15,24.1346502 24.1346502,5.46895416e-15 53.90625,0 L176.09375,0 Z M34.8611719,43.6550781 C31.8918359,50.7590234 39.2626172,57.7533594 41.7647656,61.3623828 C43.6380078,63.8762109 46.0539063,66.7170703 47.3773047,69.5597266 C48.1167188,71.4167969 48.3637891,73.3861719 49.1355469,75.35375 C50.8928906,80.1621875 52.5442188,85.5204688 54.8541016,90.0036719 C56.0867578,92.2991797 57.3814063,94.7069922 58.9213281,96.7823828 C59.8017969,98.0069531 61.3426172,98.5316406 61.6705469,100.49832 C60.1297266,102.686016 60.0237109,105.961719 59.1432422,108.698359 C55.1820313,121.050078 56.7228516,136.352266 62.3308984,145.44625 C64.0936328,148.1775 68.2471094,154.191641 73.8830078,151.894336 C78.8325,149.926758 77.7283203,143.696992 79.1577344,138.230898 C79.4901563,136.920977 79.2691406,136.045898 79.9267969,135.169023 L79.9267969,135.414297 L84.4378516,144.48582 C87.8474219,149.841406 93.7887891,155.417109 98.7355859,159.135742 C101.373398,161.10332 103.464063,164.494023 106.762227,165.694336 L106.762227,165.363711 L106.545703,165.363711 C105.884453,164.383516 104.893477,163.942383 104.013906,163.177813 C102.034648,161.211133 99.8352734,158.805117 98.2944531,156.620117 C93.6773828,150.499961 89.6101563,143.72125 85.9786719,136.726914 C84.2168359,133.338906 82.6760156,129.62207 81.2510938,126.234063 C80.5853516,124.921445 80.5853516,122.951172 79.4883594,122.299805 C77.8361328,124.70043 75.4211328,126.783008 74.2055469,129.732578 C72.1148828,134.431406 71.8983594,140.22543 71.1292969,146.237773 C71.0553255,146.256042 70.9991482,146.26822 70.9559775,146.276964 L70.8606973,146.29554 C70.8058344,146.306853 70.8023405,146.31328 70.7754108,146.356283 L70.7270584,146.428098 C70.715529,146.443877 70.7018652,146.461784 70.6854688,146.482148 C67.1698828,145.610664 65.9569922,141.998945 64.6389844,138.941563 C61.3399219,131.180859 60.7873828,118.72043 63.6471094,109.756719 C64.4161719,107.461211 67.7197266,100.246758 66.4008203,98.0608594 C65.7359766,95.9836719 63.5410938,94.7833594 62.3282031,93.1419141 C60.8987891,91.0647266 59.3633594,88.4430859 58.3723828,86.1475781 C55.7345703,80.0229297 54.4156641,73.2487109 51.5532422,67.1276563 C50.2298438,64.285 47.9226563,61.3327344 46.0512109,58.7119922 C43.9605469,55.7597266 41.6560547,53.6816406 40.0047266,50.1858203 C39.4548828,48.96125 38.6858203,47.0161328 39.5653906,45.7026172 C39.7828125,44.8284375 40.2257422,44.4780469 41.1017188,44.2821875 C42.5302344,43.0567188 46.60375,44.6101172 48.0331641,45.2614844 C52.1003906,46.9029297 55.5099609,48.4320703 58.9195313,50.7248828 C60.4603516,51.8173828 62.1116797,53.8954688 64.0909375,54.4444141 L66.4035156,54.4444141 C69.9235938,55.2080859 73.8803125,54.6887891 77.1757813,55.6689844 C83.0066406,57.5305469 88.2840625,60.26 93.0170313,63.2140625 C107.423477,72.2864844 119.305313,85.1844531 127.331055,100.598945 C128.649961,103.112773 129.199805,105.408281 130.412695,108.031719 C132.725273,113.39 135.585,118.853398 137.889492,124.102969 L138.204251,124.804103 L138.832262,126.208099 C140.82212,130.653803 142.850419,135.071911 145.699609,138.752891 C147.350938,141.048398 153.947266,142.248711 156.915703,143.451719 C159.116875,144.431914 162.52375,145.31418 164.508398,146.514492 C168.245,148.81 171.985195,151.433438 175.502578,153.947266 C177.213676,155.220966 182.475818,157.846431 183.053474,159.996585 L183.077,160.109 L182.374032,160.092842 C173.92852,159.917396 167.324276,160.834138 161.76457,163.17332 C160.117734,163.83457 157.47543,163.83457 157.258008,165.907266 C158.138477,166.776953 158.244492,168.200078 159.01625,169.405781 C160.334258,171.593477 162.646836,174.540352 164.734805,176.069492 L171.773164,181.098945 C176.062305,183.719688 180.901289,185.251523 185.079922,187.874961 C187.500313,189.405898 189.918906,191.373477 192.339297,193.014922 C193.571953,193.889102 194.318555,195.313125 195.859375,195.85668 L195.859375,195.526055 C195.090313,194.545859 194.868398,193.12543 194.102031,192.027539 L190.798477,188.859648 C187.611719,184.597461 183.649609,180.87793 179.360469,177.820547 C175.840391,175.41543 168.144375,172.137031 166.714063,168.094961 L166.497539,167.849688 C168.913438,167.605313 171.773164,166.754492 174.084844,166.098633 C177.826836,165.118438 181.233711,165.334063 185.079922,164.351172 L190.362734,162.820234 L190.362734,161.840039 C188.382578,159.873359 186.953164,157.249023 184.865195,155.392852 C179.257148,150.583516 173.093867,145.881992 166.714063,141.947734 C163.305391,139.762734 158.904844,138.338711 155.276055,136.484336 C154.858139,136.276939 154.353138,136.102333 153.833509,135.926087 L153.311688,135.748018 C152.355916,135.41588 151.432161,135.039648 150.986914,134.407148 C149.002266,132.006523 147.905273,128.833242 146.475859,125.989688 L137.458242,106.971563 C135.478984,102.708477 134.266094,98.4453906 131.850195,94.5111328 C120.52,75.92875 108.199727,64.6722266 89.2822266,53.6304297 C85.215,51.3349219 80.3760156,50.3475391 75.2306641,49.1472266 L66.9830078,48.7069922 C65.2202734,47.9424219 63.4620313,45.8643359 61.9221094,44.8796484 C55.6528125,40.9444922 39.4845313,32.4201172 34.8611719,43.6550781 Z M70.9388281,65.1250391 C69.4196472,65.1116878 67.9051429,65.2953007 66.4331641,65.6712891 L66.4331641,65.9165625 L66.6496875,65.9165625 C67.5301563,67.6658203 69.0709766,68.8688281 70.1697656,70.3997656 L72.7015625,75.6466406 L72.9189844,75.4022656 C74.4589063,74.3097656 75.2306641,72.5605078 75.2306641,69.9397656 C74.5703125,69.1751953 74.4616016,68.4079297 73.9117578,67.6433594 C73.2514063,66.5508594 71.8219922,66.0019141 70.9388281,65.1304297 Z"/></svg>