<svg xmlns="http://www.w3.org/2000/svg" viewBox="0 0 16.933 16.933" height="1em" width="1em">
  <path d="M9.97.033c-.122 0-.236.026-.34.06a.97.97 0 0 1 .407.568c.004.03.013.052.017.083s.01.052.01.08c.018.385-.1.433-.184.66a.934.934 0 0 0 .06.86.52.52 0 0 0 .052.096c-.166-1.106.757-1.273.927-1.618.013-.302-.236-.503-.433-.643a.97.97 0 0 0-.516-.15zm1.39.25c-.018.1-.004.074-.01.127l-.01.114-.03.105c-.01.035-.022.07-.035.105l-.048.1c-.013.018-.022.035-.035.052l-.026.04-.066.087c-.026.026-.048.057-.08.08s-.052.052-.083.074c-.092.07-.197.122-.293.188-.03.022-.06.04-.087.066a.64.64 0 0 0-.083.07c-.03.026-.052.052-.08.083s-.048.057-.066.087l-.06.092-.048.1-.035.1-.03.11c-.004.018-.004.04-.01.057s-.004.035-.01.052l-.004.11c0 .026 0 .052.004.08 0 .035.004.07.013.11s.013.07.022.105l.035.105.03.06-1.006-.39-.507-.13-.276-.066a8.12 8.12 0 0 0-.796-.118c-.01 0-.013-.004-.022-.004l-.783-.04-.573.022a8.35 8.35 0 0 0-.8.096l-.197.035-.394.087-.197.052-.188.083-.144.066c-.01.004-.018.004-.022.01l-.122.06c-.013.004-.022.01-.03.013l-.136.07c-.03.013-.06.03-.087.044-.013.01-.03.017-.04.022l-.114.066a1.1 1.1 0 0 0-.105.066l-.087.06-.096.07-.074.06c-.01.004-.018.013-.026.018l-.066.057c-.004.01-.013.013-.018.018l-.08.074-.087.083-.074.08c-.01.01-.022.018-.03.026a1.23 1.23 0 0 1-.074.079c-.004.01-.013.013-.018.022l-.1.105-.236.227c-.08.07-.162.136-.245.192l-.262.166a2.41 2.41 0 0 1-.276.13 3.15 3.15 0 0 1-.284.105c-.184.04-.372.114-.534.127-.035 0-.074.01-.11.013l-.11.026-.105.04a1.12 1.12 0 0 0-.105.048c-.03.022-.066.04-.096.06s-.06.048-.087.074-.06.052-.087.08l-.074.087c-.022.035-.048.066-.066.1a.77.77 0 0 0-.061.101l-.048.114-.04.114-.022.105c-.013.052-.013.105-.018.13s0 .058 0 .089a.25.25 0 0 0 .004.057c.004.03.01.057.018.083l.03.08c.013.03.03.057.048.083l.057.08.074.07a.64.64 0 0 0 .083.07c.105.092.13.122.267.192.022.013.044.022.07.035.013.013.013.017.018.026.004.035.013.07.022.105a.59.59 0 0 0 .035.105l.035.08c.004.01.01.018.013.022l.052.096.066.092.074.083c.026.026.052.048.083.074l.087.066c.03.022.06.04.096.057a.71.71 0 0 0 .101.048c.026.013.057.022.087.03s.057.018.074.022c-.013.236-.018.46.018.538.04.087.232-.18.424-.485-.026.302-.044.656 0 .76s.31-.232.538-.608c3.1-.717 5.93 1.426 6.227 4.452-.057-.472-.638-.735-.905-.67-.13.324-.354.74-.713.997a2.83 2.83 0 0 0-.044-.875 2.83 2.83 0 0 1-.542 1.102c-.415.03-.83-.17-1.05-.472-.018-.013-.022-.04-.035-.057l-.035-.092c-.013-.03-.022-.06-.026-.092s-.004-.06-.004-.096v-.066c.004-.03.013-.06.022-.092l.03-.092c.018-.03.03-.06.052-.092.074-.2.074-.38-.06-.48a.502.502 0 0 0-.083-.044c-.018-.004-.04-.013-.057-.018l-.035-.013-.092-.022a.33.33 0 0 0-.092-.013.71.71 0 0 0-.096-.009c-.022 0-.044.004-.066.004a.34.34 0 0 0-.096.013l-.092.017-.092.03-.087.04-.083.044c-1.02.665-.41 2.22.284 2.672-.262.048-.53.105-.603.162.18.122.376.22.582.302l.708.2c.363.08.73.105 1.102.083a4.16 4.16 0 0 0 3.813-3.551l.026.114.04.245.018.118.01.13.01.144v.07c0 .022.004.048.004.07s-.004.052-.004.08v.06c0 .03-.004.057-.004.087 0 .017 0 .035-.004.057l-.004.096c-.004.013-.004.026-.004.04l-.013.1c0 .013 0 .026-.004.04l-.017.127v.01l-.026.122-.026.13-.035.136-.035.136-.044.14-.096.254-.052.127-.06.122c-.004.013-.01.022-.013.03a4.167 4.167 0 0 1-1.238 1.482c-.035.022-.07.048-.105.074-.01.01-.022.013-.03.022l-.096.066.013.026h.004l.184-.026h.004l.34-.06a.664.664 0 0 0 .096-.022l.06-.013.092-.017.08-.022a8.41 8.41 0 0 0 1.268-.42 6.993 6.993 0 0 1-2.716 2.217 7.163 7.163 0 0 0 1.49-.258 6.986 6.986 0 0 0 4.133-3.302 6.98 6.98 0 0 1-1.176 2.812c.424-.28.813-.603 1.168-.97a6.93 6.93 0 0 0 1.841-3.717c.15.69.192 1.404.127 2.108 3.157-4.404.262-8.97-.95-10.172-.004-.01-.01-.013-.01-.022-.01.052-.013.105-.017.157-.013.1-.026.197-.044.293s-.048.192-.074.29-.066.188-.105.28-.083.18-.13.267a2.98 2.98 0 0 1-.157.249 3.114 3.114 0 0 1-.18.236 3.27 3.27 0 0 1-.206.219c-.044.04-.083.074-.127.11l-.1.087a2.44 2.44 0 0 1-.245.171 3.03 3.03 0 0 1-.258.149 6.638 6.638 0 0 1-.276.122 3.08 3.08 0 0 1-.284.092c-.096.026-.197.048-.293.066s-.2.026-.297.035c-.07.004-.14.01-.2.01-.1 0-.2-.01-.297-.018s-.2-.022-.298-.044a2.21 2.21 0 0 1-.293-.074h-.004c.096-.01.192-.018.29-.035s.197-.04.293-.066.192-.057.284-.092.188-.08.276-.122a3.06 3.06 0 0 0 .262-.144c.083-.057.166-.114.245-.175a2.39 2.39 0 0 0 .223-.197c.074-.066.14-.14.206-.214s.127-.157.184-.236c.01-.013.018-.03.026-.044l.127-.2c.048-.087.092-.175.13-.267s.074-.184.105-.28.052-.188.074-.284.035-.197.044-.293.017-.2.017-.297c0-.07-.004-.14-.01-.2-.01-.1-.022-.197-.035-.293a3.2 3.2 0 0 0-.066-.293c-.03-.092-.06-.188-.096-.28s-.08-.184-.122-.27-.096-.175-.15-.258-.114-.162-.175-.24l-.2-.223a2.73 2.73 0 0 0-.114-.109 8.05 8.05 0 0 0-.608-.429 1.184 1.184 0 0 0-.087-.044 1.711 1.711 0 0 0-.415-.184z" fill="currentColor" fill-rule="evenodd"/>
</svg>
