<svg xmlns="http://www.w3.org/2000/svg" height="1em" width="1em" viewBox="0 0 30 27">
<path fill="currentColor" fill-rule="evenodd" d="M24.1575957,7.91399838 C19.6909292,2.9579985 10.7162627,2.9579985 6.2509295,7.91399838 C4.72692954,9.60599833 4.04826289,11.7206649 4.28826288,14.0313316 C4.61226288,17.1499981 5.87759618,19.8033314 7.83359613,21.6193314 C7.8642628,21.0966647 7.86159613,20.4646647 7.78559613,19.6833314 L7.46692947,16.4099982 L10.3602627,17.9726648 C13.4069293,19.6179981 17.0002626,19.6179981 20.0455958,17.9726648 L22.9389291,16.4099982 L22.6215958,19.6833314 C22.5442624,20.4646647 22.5429291,21.0966647 22.5735958,21.6193314 C24.5295957,19.8033314 25.794929,17.1499981 26.118929,14.0313316 C26.358929,11.7206649 25.682929,9.60599833 24.1575957,7.91399838 M29.6015956,14.3926649 C29.0642623,19.5833314 26.430929,23.8366646 22.3789291,26.0646646 L21.1455958,26.7433312 L20.2189292,25.6833313 C20.1015958,25.5486646 19.2989292,24.5486646 19.0975958,22.153998 C16.7162626,22.8913313 13.6909293,22.8913313 11.3109294,22.153998 C11.109596,24.5486646 10.3069294,25.5486646 10.1895961,25.6833313 L9.26159609,26.7433312 L8.02826279,26.0646646 C3.97626289,23.837998 1.34426296,19.5833314 0.805596305,14.3926649 C0.46426298,11.1153316 1.47492962,7.98333171 3.64959623,5.56999844 C9.51359609,-0.934001402 20.8949291,-0.934001402 26.7575957,5.56999844 C28.9335956,7.98333171 29.9429289,11.1153316 29.6015956,14.3926649" transform="matrix(1 0 0 -1 0 27.435)"/>
</svg>