<svg xmlns="http://www.w3.org/2000/svg" fill="currentColor" height="1em" width="1em" viewBox="0 0 46 52">
  <path d="M21.6686953,0.373850863 C22.4859141,-0.124616954 23.5140859,-0.124616954 24.3575391,0.373850863 L44.6555781,12.0199042 C45.4992109,12.491911 46,13.3837179 46,14.3541925 L46,37.6459416 C46,38.6164162 45.4992109,39.5084019 44.6555781,39.9804087 L24.3575391,51.6262832 C23.5403203,52.1245723 22.5123281,52.1245723 21.6686953,51.6262832 L1.37083594,39.9804087 C0.948929687,39.7444053 0.606265625,39.4295553 0.369078125,39.009934 C0.105476562,38.5903128 0,38.1444094 0,37.672045 L0,14.3541925 C0,13.3837179 0.500789062,12.491911 1.37101563,12.0199042 Z M32.1078203,14.5377872 C31.4147694,14.5348957 30.749258,14.8075453 30.2591927,15.2951641 C29.7691273,15.782783 29.4951098,16.444972 29.4980391,17.134563 L29.4980391,30.0655834 L18.5843594,17.0821774 L17.7937344,16.1378062 C16.9238672,15.0623815 15.4739687,14.5640925 14.2348437,14.5640925 C12.5215234,14.5640925 11.2825549,15.6919028 11.2825549,17.0821774 L11.2825549,34.8918533 C11.2796492,35.5814132 11.5536421,36.2435748 12.0436685,36.7311885 C12.5336949,37.2188021 13.1991599,37.4914728 13.8921797,37.4886291 C14.5852306,37.4915206 15.250742,37.218871 15.7408073,36.7312522 C16.2308727,36.2436333 16.5048902,35.5814443 16.5019609,34.8918533 L16.5019609,21.9869363 L28.2062656,35.8886101 C29.0761328,36.9640348 30.5260312,37.4623238 31.7651562,37.4623238 C33.4784766,37.4623238 34.7174451,36.3345135 34.7174451,34.9444177 L34.7174451,17.134563 C34.7203508,16.4450031 34.4463579,15.7828415 33.9563315,15.2952278 C33.4663051,14.8076142 32.8008401,14.5349435 32.1078203,14.5377872 Z"/>
</svg>