<svg  fill="currentColor" height="1em" width="1em" viewBox="0 0 573 573" xmlns="http://www.w3.org/2000/svg" xmlns:xlink="http://www.w3.org/1999/xlink">
    <g stroke="none" stroke-width="1" fill="none" fill-rule="evenodd">
        <g transform="translate(-44, 0)" fill-rule="nonzero">
            <g transform="translate(-0, 0)">
                <g transform="translate(179.2478, 344.2665) rotate(60) translate(-179.2478, -344.2665)translate(39.4675, 217.9911)" fill="#7EBAE4">
                    <polygon points="247.986334 -1.77635684e-15 165.324004 143.175778 7.10542736e-15 143.175778 31.5740916 197.862998 133.750004 197.862998 165.324004 252.550728 279.560554 54.68749"></polygon>
                </g>
                <g transform="translate(204.7907, 184.1915) rotate(120) translate(-204.7907, -184.1915)translate(65.0104, 57.9162)" fill="#5277C3">
                    <polygon points="247.986334 -1.77635684e-15 165.324004 143.175778 7.10542736e-15 143.175778 31.5740916 197.862998 133.750004 197.862998 165.324004 252.550728 279.560554 54.68749"></polygon>
                </g>
                <g transform="translate(356.1917, 126.2754) rotate(180) translate(-356.1917, -126.2754)translate(216.4114, 0)" fill="#7EBAE4">
                    <polygon points="247.986334 -1.77635684e-15 165.324004 143.175778 7.10542736e-15 143.175778 31.5740916 197.862998 133.750004 197.862998 165.324004 252.550728 279.560554 54.68749"></polygon>
                </g>
                <g transform="translate(482.0485, 228.4337) rotate(-120) translate(-482.0485, -228.4337)translate(342.2683, 102.1584)" fill="#5277C3">
                    <polygon points="247.986334 -1.77635684e-15 165.324004 143.175778 7.10542736e-15 143.175778 31.5740916 197.862998 133.750004 197.862998 165.324004 252.550728 279.560554 54.68749"></polygon>
                </g>
                <g transform="translate(456.5059, 388.5084) rotate(-60) translate(-456.5059, -388.5084)translate(316.7256, 262.233)" fill="#7EBAE4">
                    <polygon points="247.986334 -1.77635684e-15 165.324004 143.175778 7.10542736e-15 143.175778 31.5740916 197.862998 133.750004 197.862998 165.324004 252.550728 279.560554 54.68749"></polygon>
                </g>
                <g transform="translate(165.3253, 320.1492)" fill="#5277C3">
                    <polygon points="247.986334 -1.77635684e-15 165.324004 143.175778 7.10542736e-15 143.175778 31.5740916 197.862998 133.750004 197.862998 165.324004 252.550728 279.560554 54.68749"></polygon>
                </g>
            </g>
        </g>
    </g>
</svg>