<svg xmlns="http://www.w3.org/2000/svg" height="1em" width="1em" viewBox="0 0 256 256">
<defs><linearGradient id="IconifyId18e425c03bba7dc7a0" x1="40.196%" x2="55.577%" y1="64.058%" y2="47.965%"><stop offset="0%" stop-color="#AF1DF5"/><stop offset="21%" stop-color="#BC20E4"/><stop offset="63%" stop-color="#DD29B8"/><stop offset="100%" stop-color="#FF318C"/></linearGradient><linearGradient id="IconifyId18e425c03bba7dc7a1" x1="42.885%" x2="63.378%" y1="78.603%" y2="-4.057%"><stop offset="2%" stop-color="#6B57FF"/><stop offset="42%" stop-color="#B74AF7"/><stop offset="75%" stop-color="#FF318C"/></linearGradient><linearGradient id="IconifyId18e425c03bba7dc7a2" x1="73.258%" x2="32.049%" y1="102.209%" y2="-3.688%"><stop offset="0%" stop-color="#293896"/><stop offset="8%" stop-color="#3B3AA2"/><stop offset="29%" stop-color="#6740C0"/><stop offset="49%" stop-color="#8A44D8"/><stop offset="68%" stop-color="#A347E9"/><stop offset="86%" stop-color="#B249F3"/><stop offset="100%" stop-color="#B74AF7"/></linearGradient><linearGradient id="IconifyId18e425c03bba7dc7a3" x1="62.87%" x2="39.747%" y1="72.446%" y2="45.568%"><stop offset="2%" stop-color="#6B57FF"/><stop offset="78%" stop-color="#B74AF7"/></linearGradient></defs><path fill="url(#IconifyId18e425c03bba7dc7a0)" d="M141.307 45.013L132.773 19.2L43.68 0L0 49.413l48 24.56v-28.96z"/><path fill="url(#IconifyId18e425c03bba7dc7a1)" d="m48 61.813l-48-12.4l24.4 146.56l23.52-.186z"/><path fill="url(#IconifyId18e425c03bba7dc7a2)" d="M208 45.013h-83.493L158.053 15.2l64.64 12L256 109.973l-47.973 47.654z"/><path fill="url(#IconifyId18e425c03bba7dc7a3)" d="M208.053 108.88L208 205.013H70.56l3.547 20.907L160.4 256l95.6-57.227z"/><path d="M47 43.771h162v162H47z"/><path fill="#FFF" d="M67.947 175.093h60v10h-60zm52.32-58.133l7.813-9.6a27.573 27.573 0 0 0 17.973 7.307c5.334 0 8.694-2.16 8.694-5.68v-.16c0-1.364-.343-2.46-1.422-3.451l-.242-.211a7.3 7.3 0 0 0-.557-.414l-.315-.204a11.058 11.058 0 0 0-.522-.302l-.382-.2a15.25 15.25 0 0 0-.201-.1l-.425-.198a20.305 20.305 0 0 0-.454-.198l-.484-.199a27.087 27.087 0 0 0-.254-.1l-.531-.198a34.56 34.56 0 0 0-.278-.1l-.58-.201l-.303-.101l-.63-.203l-.667-.205l-.702-.208c-.12-.035-.242-.07-.365-.104l-.758-.212l-.795-.215l-2.44-.633l-.766-.205l-1.126-.31l-.368-.105l-.728-.212l-.714-.215a67.125 67.125 0 0 1-.351-.11l-.694-.222l-.68-.226a50.843 50.843 0 0 1-.334-.116l-.658-.235l-.643-.24a23.119 23.119 0 0 1-.316-.124l-.622-.251l-.606-.259c-6.286-2.757-10.049-6.826-10.165-14.88l-.002-.573c0-10.792 8.59-17.981 20.68-18.131l.386-.003a34.667 34.667 0 0 1 22.347 7.654l-6.88 9.973a28.107 28.107 0 0 0-15.653-5.92c-5.067 0-7.734 2.32-7.734 5.333v.187c0 2.23.852 3.644 3.457 4.932l.414.197c.143.066.29.131.443.196l.472.195l.502.195l.533.195l.563.196l.596.198l.629.199l.662.202l1.057.308l1.137.318l1.219.328l1.303.341c.287.075.572.151.853.228l.836.232c.275.078.548.157.817.237l.8.242c.131.04.262.082.392.123l.772.25l.754.256c.372.13.737.262 1.096.397l.707.273c7.675 3.042 11.938 7.422 12.063 15.448l.003.554c0 11.947-9.12 18.667-22.106 18.667a38.27 38.27 0 0 1-25.52-9.627M68 65.333h24.533c14.15 0 22.786 8.312 22.958 20.354l.002.526c0 13.867-10.8 21.067-24.24 21.067h-9.92v17.973H68zm23.627 30.214c6.586 0 10.453-3.92 10.453-9.067v-.16c0-5.92-4.107-9.093-10.667-9.093h-10.08v18.32z"/>
</svg>