<svg viewBox="0 0 256 331" xmlns="http://www.w3.org/2000/svg" height="1em" width="1em"><defs><linearGradient id="a" x1="55.342%" x2="42.817%" y1="0%" y2="42.863%"><stop offset="0%" stop-color="#52CE63"/><stop offset="100%" stop-color="#51A256"/></linearGradient><linearGradient id="b" x1="55.349%" x2="42.808%" y1="0%" y2="42.863%"><stop offset="0%" stop-color="#52CE63"/><stop offset="100%" stop-color="#51A256"/></linearGradient><linearGradient id="c" x1="50%" x2="50%" y1="0%" y2="58.811%"><stop offset="0%" stop-color="#8AE99C"/><stop offset="100%" stop-color="#52CE63"/></linearGradient><linearGradient id="d" x1="51.378%" x2="44.585%" y1="17.473%" y2="100%"><stop offset="0%" stop-color="#FFE56C"/><stop offset="100%" stop-color="#FFC63A"/></linearGradient></defs><path fill="url(#a)" d="M67.56 173.328c30.366-2.985 41.08-27.648 44.735-64.823 3.654-37.175-21.174-70.814-31.502-69.799-10.328 1.015-43.15 40.322-46.805 77.497-3.654 37.175 3.205 60.11 33.572 57.125Z" transform="rotate(-38 72.877 106.136)"/><path fill="url(#b)" d="M184.454 186.277c30.367 2.986 36.394-20.032 32.74-57.207-3.655-37.175-35.645-76.4-45.973-77.415-10.328-1.015-35.989 32.542-32.334 69.717 3.654 37.175 15.201 61.92 45.567 64.905Z" transform="rotate(52 178.34 119.085)"/><path fill="url(#c)" d="M129.232 151.601c27.341 0 34.878-26.184 34.878-67.013 0-40.83-25.579-80.843-34.878-80.843S93.605 43.758 93.605 84.588c0 40.829 8.286 67.013 35.627 67.013Z" transform="rotate(7 128.858 77.673)"/><path fill="url(#d)" d="M113.386 330.307c56.896 0 103.038-16.528 103.038-91.482 0-74.955-46.142-136.462-103.038-136.462-56.897 0-103.002 61.507-103.002 136.462 0 74.954 46.105 91.482 103.002 91.482Z"/><ellipse cx="165.427" cy="216.677" fill="#EAADCC" rx="14.717" ry="6.845"/><ellipse cx="57.273" cy="212.57" fill="#EAADCC" rx="14.717" ry="6.845" transform="rotate(7 57.273 212.57)"/><path d="M96.266 210.285a2.054 2.054 0 1 0-3.406 2.295c3.151 4.676 7.997 7.39 14.373 8.119 6.348.725 12.016-.902 16.877-4.852a2.054 2.054 0 1 0-2.59-3.187c-3.999 3.249-8.563 4.559-13.82 3.958-5.23-.598-8.986-2.7-11.434-6.333ZM65.818 178.63a14.672 14.672 0 0 1 10.551 3.945 14.67 14.67 0 0 1 4.672 10.25 14.671 14.671 0 0 1-3.945 10.55 14.672 14.672 0 0 1-10.25 4.672 14.67 14.67 0 0 1-10.551-3.945 14.672 14.672 0 0 1-4.67-10.25 14.67 14.67 0 0 1 3.944-10.55 14.67 14.67 0 0 1 10.249-4.672Z"/><path fill="#FFF" d="M66.59 190.932a4.792 4.792 0 1 0-9.578.336 4.792 4.792 0 0 0 9.579-.336Z"/><path d="M154.99 182.366a14.671 14.671 0 0 1 10.552 3.944 14.67 14.67 0 0 1 4.67 10.25 14.672 14.672 0 0 1-3.944 10.551 14.67 14.67 0 0 1-10.25 4.671 14.671 14.671 0 0 1-10.55-3.945 14.671 14.671 0 0 1-4.672-10.25 14.67 14.67 0 0 1 3.945-10.55 14.671 14.671 0 0 1 10.25-4.671Z"/><path fill="#FFF" d="M65.71 175.552c9.824-.343 18.066 7.342 18.409 17.165.343 9.824-7.342 18.065-17.166 18.408-9.824.343-18.064-7.342-18.407-17.166-.343-9.823 7.341-18.064 17.164-18.407Zm12.252 17.38c-.224-6.423-5.613-11.448-12.037-11.223-6.422.224-11.447 5.612-11.222 12.035.224 6.424 5.612 11.448 12.035 11.224 6.423-.224 11.448-5.612 11.224-12.036ZM154.883 179.287c9.824-.343 18.065 7.342 18.408 17.165.343 9.824-7.342 18.065-17.165 18.408-9.824.343-18.065-7.342-18.408-17.165-.343-9.824 7.342-18.065 17.165-18.408Zm12.251 17.38c-.224-6.423-5.612-11.447-12.036-11.223-6.423.224-11.448 5.613-11.223 12.036.224 6.423 5.612 11.448 12.035 11.224 6.424-.225 11.448-5.613 11.224-12.037Z"/><path fill="#FFF" d="M155.763 194.668a4.792 4.792 0 1 0-9.578.335 4.792 4.792 0 0 0 9.578-.335Z"/><path fill="#ECB732" d="m38.083 243.16 22.33 23.235 16.022-17.044a3.765 3.765 0 0 1 5.486 5.157l-16.283 17.324 23.1 24.036a3.765 3.765 0 1 1-5.43 5.218l-22.834-23.761-10.725 11.41a3.765 3.765 0 1 1-5.486-5.158l10.986-11.688-22.595-23.511a3.765 3.765 0 1 1 5.43-5.218ZM188.04 243.16a3.765 3.765 0 1 1 5.429 5.218l-22.596 23.511 10.988 11.688a3.765 3.765 0 0 1-.042 5.201l-.123.121a3.765 3.765 0 0 1-5.322-.165l-10.725-11.41-22.834 23.762a3.765 3.765 0 0 1-5.197.222l-.127-.116a3.765 3.765 0 0 1-.105-5.324l23.1-24.036-16.284-17.324a3.765 3.765 0 0 1 .042-5.2l.123-.121a3.765 3.765 0 0 1 5.321.164l16.021 17.044 22.331-23.235Z"/><path fill="#FFC73B" d="M136.602 126.74a3.765 3.765 0 0 1 0 5.323l-17.53 17.531 10.684 10.686a3.765 3.765 0 0 1 .12 5.2l-.12.125a3.765 3.765 0 0 1-5.324 0l-10.686-10.686-10.686 10.686a3.765 3.765 0 1 1-5.324-5.325l10.685-10.686-17.53-17.53a3.765 3.765 0 0 1-.12-5.2l.12-.125a3.765 3.765 0 0 1 5.324 0l17.531 17.53 17.531-17.53a3.765 3.765 0 0 1 5.325 0Z"/></svg>