<svg xmlns="http://www.w3.org/2000/svg" width="1em" height="1em" viewBox="0 0 156 156">
<g fill="none" fill-rule="evenodd">
<polygon fill="#F9AD00" fill-rule="nonzero" points="155.808 48.684 107.027 48.684 107.027 -.097 155.808 -.097"/>
<polygon fill="#F9AD00" fill-rule="nonzero" points="102.139 48.684 53.358 48.684 53.358 -.097 102.139 -.097"/>
<polygon fill="#F9AD00" fill-rule="nonzero" points="48 48.684 0 48.684 0 -.097 48 -.097"/>
<polygon fill="#F9AD00" fill-rule="nonzero" points="155.808 102.344 107.027 102.344 107.027 53.562 155.808 53.562"/>
<polygon fill="#4E4E4E" fill-rule="nonzero" points="102.139 102.344 53.358 102.344 53.358 53.562 102.139 53.562"/>
<polygon fill="#4E4E4E" fill-rule="nonzero" points="102.139 156.003 53.358 156.003 53.358 107.222 102.139 107.222"/>
<polygon fill="#4E4E4E" fill-rule="nonzero" points="155.808 156.003 107.027 156.003 107.027 107.222 155.808 107.222"/>
<polygon fill="#4E4E4E" fill-rule="nonzero" points="48 156.003 0 156.003 0 107.222 48 107.222"/>
</g>
</svg>