<svg id="Layer_1" data-name="Layer 1" xmlns="http://www.w3.org/2000/svg" viewBox="0 0 64 64" height="1em" width="1em">
  <path d="m64 10.5-7.11 42a4.64 4.64 0 0 1-4.62 3.5H4.44C2.24 56 .72 54.43 1 52.5l7.11-42a3.93 3.93 0 0 1 1.3-2.19A5 5 0 0 1 12.73 7h47.83a3.25 3.25 0 0 1 3.35 2.32A2.73 2.73 0 0 1 64 10.5z" fill="#0078d7"/>
  <path fill="#fff" d="M17.72 49.6a2.43 2.43 0 0 1-1.45-4.38l20.54-15.11L22 16.18a2.42 2.42 0 0 1-.1-3.43 2.45 2.45 0 0 1 3.45-.1l17 15.92a2.42 2.42 0 0 1-.22 3.72L19.17 49.13a2.44 2.44 0 0 1-1.45.47zm26.87.4H33.41a2.5 2.5 0 0 1 0-5h11.18a2.5 2.5 0 0 1 0 5z"/>
  <path fill="#fff" d="m63.91 9.32-7.06 42.27a4 4 0 0 1-.95 2C44.76 42.64 21.52 19.89 9.41 8.31A5 5 0 0 1 12.73 7h47.83a3.25 3.25 0 0 1 3.35 2.32z" opacity=".25"/>
</svg>
