<svg viewBox="0 0 256 256" fill="none" xmlns="http://www.w3.org/2000/svg" height="1em" width="1em">
    <rect width="256" height="256" rx="60" fill="#242938" />
    <path fill-rule="evenodd" clip-rule="evenodd"
        d="M36.407 203.248a8.242 8.242 0 0 1-6.627-3.021 8.81 8.81 0 0 1-1.5-7.512L58.252 61.787a12.855 12.855 0 0 1 12.004-9.784h149.338a8.259 8.259 0 0 1 6.627 3.021 8.815 8.815 0 0 1 1.5 7.513l-29.993 130.935a12.855 12.855 0 0 1-12.005 9.783H36.406v-.007Z"
        fill="url(#a)" />
    <path fill-rule="evenodd" clip-rule="evenodd"
        d="M70.256 53.686h149.338a6.516 6.516 0 0 1 5.445 2.553 6.52 6.52 0 0 1 1.039 5.924L196.085 193.09a11.252 11.252 0 0 1-10.362 8.476H36.406a6.51 6.51 0 0 1-5.445-2.553 6.52 6.52 0 0 1-1.04-5.923L59.916 62.163a11.24 11.24 0 0 1 10.34-8.477Z"
        fill="url(#b)" />
    <path fill-rule="evenodd" clip-rule="evenodd"
        d="M128.286 167.219h36.32a7.986 7.986 0 0 1 7.647 7.977 7.985 7.985 0 0 1-7.647 7.977h-36.32a7.986 7.986 0 0 1-7.647-7.977 7.985 7.985 0 0 1 7.647-7.977Zm23.56-35.463a12.576 12.576 0 0 1-4.221 4.285l-67.406 48.382a8.739 8.739 0 0 1-11.835-2.186 8.74 8.74 0 0 1 1.566-11.932l60.786-44.019v-.9L92.545 84.781a8.74 8.74 0 0 1 12.725-11.94l45.833 48.753a8.329 8.329 0 0 1 .743 10.162Z"
        fill="#2C5591" />
    <path fill-rule="evenodd" clip-rule="evenodd"
        d="M150.138 130.071a12.5 12.5 0 0 1-4.213 4.285L78.54 182.745a8.748 8.748 0 0 1-10.276-14.119l60.793-44.018v-.907L90.866 83.074a8.741 8.741 0 0 1 12.733-11.94l45.825 48.753a8.295 8.295 0 0 1 .714 10.184Zm-22.851 36.207h36.32a7.565 7.565 0 0 1 7.563 7.562 7.564 7.564 0 0 1-7.563 7.563h-36.32a7.564 7.564 0 0 1 0-15.125Z"
        fill="#fff" />
    <defs>
        <linearGradient id="a" x1="180.31" y1="174.355" x2="65.586" y2="71.877"
            gradientUnits="userSpaceOnUse">
            <stop stop-color="#5391FE" />
            <stop offset="1" stop-color="#3E6DBF" />
        </linearGradient>
        <linearGradient id="b" x1="64.443" y1="70.511" x2="177.996" y2="172.56"
            gradientUnits="userSpaceOnUse">
            <stop stop-color="#5391FE" />
            <stop offset="1" stop-color="#3E6DBF" />
        </linearGradient>
    </defs>
</svg>
  