<svg xmlns="http://www.w3.org/2000/svg" viewBox="0 0 24 24" fill="currentColor" height="1em" width="1em">
  <circle cx="12" cy="11.245" r="1.785"/>
  <path d="m7.002 14.794-.395-.101c-2.934-.741-4.617-2.001-4.617-3.452 0-1.452 1.684-2.711 4.617-3.452l.395-.1.111.391a19.507 19.507 0 0 0 1.136 2.983l.085.178-.085.178c-.46.963-.841 1.961-1.136 2.985l-.111.39zm-.577-6.095c-2.229.628-3.598 1.586-3.598 2.542 0 .954 1.368 1.913 3.598 2.54.273-.868.603-1.717.985-2.54a20.356 20.356 0 0 1-.985-2.542zm10.572 6.095-.11-.392a19.628 19.628 0 0 0-1.137-2.984l-.085-.177.085-.179c.46-.961.839-1.96 1.137-2.984l.11-.39.395.1c2.935.741 4.617 2 4.617 3.453 0 1.452-1.683 2.711-4.617 3.452l-.395.101zm-.41-3.553c.4.866.733 1.718.987 2.54 2.23-.627 3.599-1.586 3.599-2.54 0-.956-1.368-1.913-3.599-2.542a20.683 20.683 0 0 1-.987 2.542z"/>
  <path d="m6.419 8.695-.11-.39c-.826-2.908-.576-4.991.687-5.717 1.235-.715 3.222.13 5.303 2.265l.284.292-.284.291a19.718 19.718 0 0 0-2.02 2.474l-.113.162-.196.016a19.646 19.646 0 0 0-3.157.509l-.394.098zm1.582-5.529c-.224 0-.422.049-.589.145-.828.477-.974 2.138-.404 4.38.891-.197 1.79-.338 2.696-.417a21.058 21.058 0 0 1 1.713-2.123c-1.303-1.267-2.533-1.985-3.416-1.985zm7.997 16.984c-1.188 0-2.714-.896-4.298-2.522l-.283-.291.283-.29a19.827 19.827 0 0 0 2.021-2.477l.112-.16.194-.019a19.473 19.473 0 0 0 3.158-.507l.395-.1.111.391c.822 2.906.573 4.992-.688 5.718a1.978 1.978 0 0 1-1.005.257zm-3.415-2.82c1.302 1.267 2.533 1.986 3.415 1.986.225 0 .423-.05.589-.145.829-.478.976-2.142.404-4.384-.89.198-1.79.34-2.698.419a20.526 20.526 0 0 1-1.71 2.124z"/>
  <path d="m17.58 8.695-.395-.099a19.477 19.477 0 0 0-3.158-.509l-.194-.017-.112-.162A19.551 19.551 0 0 0 11.7 5.434l-.283-.291.283-.29c2.08-2.134 4.066-2.979 5.303-2.265 1.262.727 1.513 2.81.688 5.717l-.111.39zm-3.287-1.421c.954.085 1.858.228 2.698.417.571-2.242.425-3.903-.404-4.381-.824-.477-2.375.253-4.004 1.841.616.67 1.188 1.378 1.71 2.123zM8.001 20.15a1.983 1.983 0 0 1-1.005-.257c-1.263-.726-1.513-2.811-.688-5.718l.108-.391.395.1c.964.243 2.026.414 3.158.507l.194.019.113.16c.604.878 1.28 1.707 2.02 2.477l.284.29-.284.291c-1.583 1.627-3.109 2.522-4.295 2.522zm-.993-5.362c-.57 2.242-.424 3.906.404 4.384.825.47 2.371-.255 4.005-1.842a21.17 21.17 0 0 1-1.713-2.123 20.692 20.692 0 0 1-2.696-.419z"/>
  <path d="M12 15.313c-.687 0-1.392-.029-2.1-.088l-.196-.017-.113-.162a25.697 25.697 0 0 1-1.126-1.769 26.028 26.028 0 0 1-.971-1.859l-.084-.177.084-.179c.299-.632.622-1.252.971-1.858.347-.596.726-1.192 1.126-1.77l.113-.16.196-.018a25.148 25.148 0 0 1 4.198 0l.194.019.113.16a25.136 25.136 0 0 1 2.1 3.628l.083.179-.083.177a24.742 24.742 0 0 1-2.1 3.628l-.113.162-.194.017c-.706.057-1.412.087-2.098.087zm-1.834-.904c1.235.093 2.433.093 3.667 0a24.469 24.469 0 0 0 1.832-3.168 23.916 23.916 0 0 0-1.832-3.168 23.877 23.877 0 0 0-3.667 0 23.743 23.743 0 0 0-1.832 3.168 24.82 24.82 0 0 0 1.832 3.168z"/>
</svg>
