<svg aria-hidden="true" xmlns="http://www.w3.org/2000/svg" fill="currentColor" viewBox="0 0 14 14" height="1em" width="1em">
  <path d="M8.676 5.214a5.533 5.533 0 0 0-.312-1.527c-.253-.729-.379-1.23-.379-1.505 0-.387.09-.68.268-.881A.892.892 0 0 1 8.933 1c.23 0 .43.1.602.301.17.2.256.487.256.858 0 .335-.1.803-.3 1.405a7.515 7.515 0 0 0-.358 1.65c.41-.26.777-.576 1.104-.947.506-.588.88-.952 1.126-1.093.245-.141.494-.212.747-.212.245 0 .45.086.613.257.171.163.257.36.257.59 0 .275-.123.52-.368.736-.246.216-.859.431-1.84.647a8.032 8.032 0 0 0-1.427.435c.387.2.859.353 1.416.457.9.163 1.487.368 1.762.613.282.245.423.513.423.803a.776.776 0 0 1-.256.58.793.793 0 0 1-.58.245c-.223 0-.472-.078-.747-.235-.267-.156-.632-.505-1.092-1.048a5.909 5.909 0 0 0-1.138-1.025c.015.423.1.884.257 1.382.267.877.401 1.476.401 1.795 0 .297-.089.55-.267.758-.179.2-.368.301-.569.301-.275 0-.524-.108-.747-.323-.156-.156-.234-.405-.234-.747 0-.357.085-.784.256-1.282.171-.505.28-.851.324-1.037.044-.193.085-.476.122-.847a6.15 6.15 0 0 0-1.148.97c-.543.61-.951.996-1.226 1.16a1.133 1.133 0 0 1-.602.178.9.9 0 0 1-.647-.257c-.178-.17-.268-.36-.268-.568 0-.186.075-.38.223-.58.157-.208.387-.38.692-.513.2-.09.657-.208 1.37-.357a7.284 7.284 0 0 0 1.35-.423 5.726 5.726 0 0 0-1.438-.469c-.914-.193-1.48-.367-1.695-.524-.334-.245-.502-.542-.502-.891 0-.201.082-.383.246-.547a.812.812 0 0 1 .59-.256c.246 0 .506.078.781.234.275.156.617.472 1.026.948.408.468.825.832 1.248 1.092M2.93 9.18c.54 0 .993.19 1.36.568.367.367.55.814.55 1.342 0 .528-.189.98-.567 1.36-.367.366-.815.55-1.343.55-.527 0-.98-.184-1.359-.55a1.884 1.884 0 0 1-.55-1.36c0-.54.183-.992.55-1.36.379-.367.832-.55 1.36-.55"/>
</svg>
