<svg viewBox="0 0 256 256" fill="none" xmlns="http://www.w3.org/2000/svg" height="1em" width="1em">
  <g clip-path="url(#a)">
    <path
      d="M60 0C26.863 0 0 26.863 0 60v136c0 33.137 26.863 60 60 60h108.46c-1.779-5.243-3.172-13.546-3.956-23.023-.675-8.152-.899-17.171-.525-25.87-.101-1.286-.162-2.122-.162-2.122s-1.874-12.61-4.571-22.969c-1.194-4.598-2.553-8.756-3.98-11.166-.735-1.243.08-6.351 2.131-13.916 1.2 2.071 6.263 10.932 7.28 13.788 1.145 3.228 1.385 4.153 1.385 4.153s-2.777-14.272-7.333-22.6a303.417 303.417 0 0 1 3.542-11.066c1.578 2.767 5.165 9.121 6.461 12.132.12.279.228.541.307.757.184.522.339.965.478 1.371.731 2.118.909 2.792.909 2.792s-.271-1.386-.775-3.524c-.213-.903-.478-1.965-.773-3.096-1.148-4.409-2.892-10.181-5.125-14.704 5.732-29.794 24.181-68.807 44.057-89.868 1.713-1.814 3.434-3.511 5.158-5.041 11.619-10.3 23.392-13.78 33.115-5.118 7.034 6.267 9.912 14.925 9.917 24.89V60c0-33.137-26.863-60-60-60H60Z"
      fill="#D9D9D9" />
    <path
      d="M60 0C26.863 0 0 26.863 0 60v136c0 33.137 26.863 60 60 60h108.46c-1.779-5.243-3.172-13.546-3.956-23.023-.675-8.152-.899-17.171-.525-25.87-.101-1.286-.162-2.122-.162-2.122s-1.874-12.61-4.571-22.969c-1.194-4.598-2.553-8.756-3.98-11.166-.735-1.243.08-6.351 2.131-13.916 1.2 2.071 6.263 10.932 7.28 13.788 1.145 3.228 1.385 4.153 1.385 4.153s-2.777-14.272-7.333-22.6a303.417 303.417 0 0 1 3.542-11.066c1.578 2.767 5.165 9.121 6.461 12.132.12.279.228.541.307.757.184.522.339.965.478 1.371.731 2.118.909 2.792.909 2.792s-.271-1.386-.775-3.524c-.213-.903-.478-1.965-.773-3.096-1.148-4.409-2.892-10.181-5.125-14.704 5.732-29.794 24.181-68.807 44.057-89.868 1.713-1.814 3.434-3.511 5.158-5.041 11.619-10.3 23.392-13.78 33.115-5.118 7.034 6.267 9.912 14.925 9.917 24.89V60c0-33.137-26.863-60-60-60H60Z"
      fill="url(#b)" />
    <path
      d="M246.083 36.91c-9.723-8.662-21.496-5.183-33.115 5.118-1.724 1.53-3.445 3.227-5.158 5.04-19.876 21.063-38.325 60.075-44.057 89.869 2.233 4.523 3.977 10.295 5.125 14.704.295 1.131.56 2.193.773 3.096.504 2.138.775 3.524.775 3.524s-.178-.674-.909-2.792c-.139-.406-.294-.849-.478-1.371a15.467 15.467 0 0 0-.307-.757c-1.296-3.011-4.883-9.365-6.461-12.132a303.417 303.417 0 0 0-3.542 11.066c4.556 8.328 7.333 22.6 7.333 22.6s-.24-.925-1.385-4.153c-1.017-2.856-6.08-11.717-7.28-13.788-2.051 7.565-2.866 12.673-2.131 13.916 1.427 2.41 2.786 6.568 3.98 11.166 2.697 10.359 4.571 22.969 4.571 22.969s.061.836.162 2.122c-.374 8.699-.15 17.718.525 25.87.893 10.791 2.575 20.062 4.719 25.023l1.455-.793c-3.148-9.774-4.427-22.584-3.867-37.358.847-22.581 6.05-49.813 15.662-78.196 16.24-42.847 38.772-77.224 59.394-93.642-18.796 16.956-44.235 71.839-51.85 92.163-8.526 22.759-14.569 44.117-18.21 64.579 6.283-19.183 26.598-27.429 26.598-27.429s9.964-12.274 21.608-29.81c-6.975 1.589-18.428 4.309-22.265 5.919-5.658 2.371-7.183 3.18-7.183 3.18s18.33-11.15 34.056-16.198c21.628-34.025 45.19-82.362 21.462-103.505M28.52 49c-3.063 0-5.554.895-7.463 2.683-1.91 1.79-2.878 4.137-2.878 7.012 0 1.49.24 2.848.714 4.093.474 1.247 1.212 2.403 2.203 3.447.992 1.045 2.977 2.465 5.936 4.27 3.63 2.186 6.005 3.96 7.145 5.346 1.141 1.385 1.707 2.836 1.707 4.348 0 2.026-.675 3.642-2.064 4.858-1.391 1.215-3.251 1.82-5.558 1.82-2.433 0-4.552-.845-6.372-2.526-1.82-1.682-2.738-3.908-2.759-6.698H18V87.78h1.131c.346-.959.824-1.45 1.45-1.45.3 0 1.005.205 2.104.588 2.671.938 4.865 1.39 6.59 1.39 2.971 0 5.508-1.026 7.622-3.114 2.11-2.086 3.176-4.602 3.176-7.54 0-2.278-.704-4.305-2.084-6.071-1.381-1.769-4.066-3.826-8.08-6.19-3.452-2.046-5.694-3.713-6.728-5.013-1.036-1.298-1.568-2.733-1.568-4.309 0-1.704.634-3.072 1.885-4.093 1.252-1.022 2.891-1.528 4.943-1.528 2.309 0 4.233.676 5.756 2.037 1.521 1.363 2.401 3.252 2.66 5.68h1.132v-8.774h-1.053c-.128.447-.247.733-.357.861-.106.128-.311.196-.615.196-.366 0-1.019-.152-1.945-.45-1.985-.66-3.816-.999-5.499-.999Zm36.98 0c-3.733 0-7.121.868-10.183 2.605-3.066 1.734-5.493 4.14-7.285 7.207-1.79 3.066-2.68 6.323-2.68 9.793 0 4.662 1.547 8.816 4.665 12.456 3.12 3.638 6.858 5.905 11.195 6.777.992.51 2.41 1.826 4.268 3.956 2.093 2.404 3.864 4.138 5.32 5.17a16.074 16.074 0 0 0 4.684 2.292c1.661.499 3.457.744 5.4.744 2.351 0 4.457-.403 6.311-1.234l-.416-1.018a10.184 10.184 0 0 1-3.434.568c-1.642 0-3.3-.534-4.963-1.606-1.66-1.075-3.736-3.125-6.213-6.15-1.164-1.45-1.967-2.364-2.421-2.722 4.745-.915 8.648-3.184 11.691-6.816 3.043-3.63 4.565-7.774 4.565-12.417 0-5.514-1.988-10.147-5.935-13.925C76.12 50.9 71.262 49 65.5 49Zm23.085 0 .06 1.195c2.484 0 3.876.722 4.188 2.174.115.52.169 1.478.178 2.86l-.02 26.42c-.02 1.973-.305 3.233-.853 3.78-.549.543-1.476.882-2.819 1.018l-.06 1.195h24.773l.635-5.993h-1.131c-.323 1.632-1.064 2.802-2.243 3.466-1.183.67-3.273 1-6.293 1h-2.342c-2.717 0-4.289-.97-4.704-2.92a6.011 6.011 0 0 1-.12-1.253l.1-26.714c0-1.97.252-3.29.774-3.937.528-.643 1.48-1.004 2.858-1.096L101.507 49H88.585Zm-22.688 1.45c4.21 0 7.647 1.635 10.302 4.935 2.654 3.3 3.97 7.824 3.97 13.553 0 5.428-1.335 9.774-4.01 13.044-2.675 3.268-6.235 4.896-10.66 4.896-4.25 0-7.696-1.679-10.34-5.053-2.643-3.374-3.95-7.755-3.95-13.142 0-5.535 1.323-9.967 3.989-13.279 2.665-3.308 6.233-4.955 10.699-4.955Zm56.968 5.679c-.604 0-1.065.201-1.409.607-.353.404-.461.894-.338 1.489.119.576.449 1.082.973 1.508.521.425 1.083.646 1.687.646.584 0 1.03-.221 1.35-.646.32-.426.417-.931.298-1.508-.124-.595-.442-1.085-.933-1.489-.497-.406-1.044-.607-1.628-.607Zm16.336 4.054c-1.027 3.897-3.252 6.006-6.669 6.346l.039 1.116h3.99l-.079 13.2c.006 2.258.076 3.76.238 4.525.393 1.83 1.605 2.761 3.632 2.761 2.934 0 6.012-1.763 9.23-5.288l-.972-.822c-2.324 2.32-4.379 3.486-6.173 3.486-1.103 0-1.787-.626-2.045-1.86a4.658 4.658 0 0 1-.099-1.058l.04-14.944h6.093l-.059-1.782h-6.015v-5.68h-1.151Zm23.561 4.975c-3.408 0-6.181 1.632-8.336 4.877-2.145 3.25-2.809 6.85-1.965 10.81.496 2.32 1.484 4.12 2.997 5.387 1.51 1.267 3.426 1.9 5.716 1.9 2.133 0 5.103-.534 6.352-1.607 1.253-1.072 2.408-2.81 3.474-5.19l-.854-.881c-1.7 3.087-5.133 4.642-7.721 4.642-3.559 0-5.738-1.927-6.55-5.758a13.745 13.745 0 0 1-.239-1.567c4.234-.662 7.442-1.833 9.608-3.526 2.163-1.693 4.336-3.489 3.93-5.386-.242-1.127-.835-2.013-1.747-2.683-.924-.67-3.324-1.018-4.665-1.018Zm-37.257.137-7.344 1.665v1.292l2.54-.313c1.231 0 1.955.55 2.184 1.645.077.367.125.881.139 1.528l-.08 11.849c-.02 1.64-.205 2.593-.575 2.879-.374.287-1.36.43-2.958.43l-.04 1.117h11.652l-.02-1.116c-1.619 0-2.668-.126-3.136-.372-.46-.245-.776-.69-.913-1.371-.106-.492-.152-1.338-.159-2.507l.04-16.726h-1.33Zm35.392 2.194c.709 0 1.394.27 2.084.802.68.531 1.095 1.122 1.23 1.763.665 3.15-2.166 5.328-8.535 6.542-.182-2.297.222-4.383 1.251-6.268 1.021-1.883 2.351-2.84 3.97-2.84Z"
      fill="#003B57" />
  </g>
  <defs>
    <linearGradient id="b" x1="147.614" y1="5.239" x2="147.614" y2="241.763"
      gradientUnits="userSpaceOnUse">
      <stop stop-color="#97D9F6" />
      <stop offset=".92" stop-color="#0F80CC" />
      <stop offset="1" stop-color="#0F80CC" />
    </linearGradient>
    <clipPath id="a">
      <rect width="256" height="256" rx="60" fill="#fff" />
    </clipPath>
  </defs>
</svg>
  