<svg xmlns="http://www.w3.org/2000/svg" height="1em" width="1em" viewBox="0 0 1024 1024">
<path fill="currentColor" d="M924.999924,0 C979.676115,-1.00438532e-14 1023.99992,44.3238098 1023.99992,99 L1023.99992,924.999924 C1023.99992,979.676115 979.676115,1023.99992 924.999924,1023.99992 L99,1023.99992 C44.3238098,1023.99992 2.09067569e-14,979.676115 0,924.999924 L0,99 C-6.69590214e-15,44.3238098 44.3238098,2.42547079e-14 99,0 L924.999924,0 Z M297.983357,621.999996 C235.914893,621.999996 189.713556,661.247852 189.713556,713.578343 C189.713556,761.703699 223.78121,786.93446 254.5821,800.017085 L296.583318,818.239305 C325.050813,830.387461 340.451258,836.928764 340.451258,857.95441 C340.451258,877.578338 325.984169,891.595432 292.849882,891.595432 C266.715783,891.595432 238.714972,878.045577 217.714368,858.421639 C214.914289,856.085462 211.180843,856.552701 209.314121,858.888879 L177.579873,895.800557 C175.713151,897.669505 175.246467,901.407401 177.579873,903.743578 C207.447408,933.179475 249.448625,949.999996 291.916516,949.999996 C362.851901,949.999996 407.653208,907.014234 407.653208,853.749275 C407.653208,806.558398 379.185713,781.327626 342.317981,765.441584 L300.783436,748.153834 C274.649348,737.407396 255.98214,729.931614 255.98214,710.774926 C255.98214,692.552697 270.449229,680.87179 297.983357,680.87179 C322.717407,680.87179 341.384614,689.74928 360.518505,705.635322 C363.318584,707.971499 367.05203,707.03703 368.918753,704.700843 L396.452881,670.125352 C398.319604,668.256404 398.319604,664.518508 395.986198,662.182331 C371.252149,637.418799 334.85109,621.999996 297.983357,621.999996 Z M544.855967,621.999996 C482.787502,621.999996 436.586166,661.247852 436.586166,713.578343 C436.586166,761.703699 470.653819,786.93446 501.45471,800.017085 L543.455927,818.239305 C571.923422,830.387461 587.323867,836.928764 587.323867,857.95441 C587.323867,877.578338 572.856778,891.595432 539.722491,891.595432 C513.588403,891.595432 485.587591,878.045577 464.586977,858.421639 C461.786898,856.085462 458.053453,856.552701 456.18673,858.888879 L424.452483,895.800557 C422.58576,897.669505 422.119077,901.407401 424.452483,903.743578 C454.320017,933.179475 496.321234,949.999996 538.789125,949.999996 C609.72452,949.999996 654.525817,907.014234 654.525817,853.749275 C654.525817,806.558398 626.058322,781.327626 589.19059,765.441584 L547.656056,748.153834 C521.521957,737.407396 502.854749,729.931614 502.854749,710.774926 C502.854749,692.552697 517.321838,680.87179 544.855967,680.87179 C569.590016,680.87179 588.257224,689.74928 607.391114,705.635322 C610.191194,707.971499 613.924639,707.03703 615.791362,704.700843 L643.32549,670.125352 C645.192213,668.256404 645.192213,664.518508 642.858807,662.182331 C618.124758,637.418799 581.723709,621.999996 544.855967,621.999996 Z M758.127976,627.60683 L703.993075,627.60683 C701.659669,627.60683 697.926234,629.475778 697.926234,633.213664 L697.926234,938.786319 C697.926234,941.122496 700.25963,944.393152 703.993075,944.393152 L758.127976,944.393152 C760.461382,944.393152 763.728134,942.524204 763.728134,938.786319 L763.728134,808.894575 L876.198064,808.894575 L876.198064,938.786319 C876.198064,941.122496 878.064787,944.393152 881.798222,944.393152 L935.933123,944.393152 C938.266529,944.393152 941.999974,942.524204 941.999974,938.786319 L941.999974,633.213664 C941.999974,630.877486 939.666568,627.60683 935.933123,627.60683 L881.798222,627.60683 C879.464826,627.60683 876.198064,629.475778 876.198064,633.213664 L876.198064,750.022782 L763.728134,750.022782 L763.728134,633.213664 C763.728134,630.877486 761.861421,627.60683 758.127976,627.60683 Z"/>
</svg>