<svg xmlns="http://www.w3.org/2000/svg" height="1em" width="1em" viewBox="0 0 151 180"><g fill="none"><path fill="#5BD3F3" d="M123.054863 93.4254443C124.041858 95.7626109 128.450105 105.044084 129.355779 107.321152 123.84289 116.561307 122.549601 118.95899 111.024753 133.60593 64.1232983 182.705627 27.9371992 190.639891 5.76263041 167.701852 3.59627766 165.361764 1.67512566 162.319274 0 158.574382.471825684 159.433291 1.09514745 160.379843 1.86996531 161.414039L2.15025371 161.78256C2.19772524 161.844746 2.24602235 161.906931 2.29473227 161.969534L2.59359648 162.349323 2.90484457 162.735791 3.22888933 163.12977 3.56531797 163.530845 3.91454328 163.939431 4.27615246 164.355113 4.65014553 164.77789 5.03734806 165.208179 5.23549007 165.426036 5.64126842 165.867176 5.84890474 166.090459 6.2732589 166.542451 6.49038953 166.771159C33.8818726 191.84228 61.2048315 170.332834 98.3027967 128.773838 103.902786 122.190123 112.153337 110.407464 123.054863 93.4254443ZM137.380118 14.1032604C154.739423 29.1884191 154.739423 52.5968124 141.717364 86.0295639 140.719637 83.5713654 136.323774 73.7444144 135.221609 71.226952 145.472981 42.8320467 145.710752 29.3332399 130.967334 15.8715774 122.485617 8.12762615 116.462513 7.80876984 104.995043 9.69477985L104.244168 9.82123726C104.118678 9.84252217 103.992775 9.86464178 103.866872 9.8867614L103.107328 10.0236526 102.342004 10.1663867 101.956866 10.2402579 92.9145722 12.0507273 92.9145722 12.0340333 93.1139526 11.9605794C111.260459 5.27670019 126.843916 4.74249067 137.380118 14.1032604L137.380118 14.1032604Z"/><path fill="#D573DE" d="M125.890167,63.5141248 C153.449324,115.583313 155.188797,143.75817 146.009025,163.468062 C142.702042,170.570383 134.455253,175.478804 130.907687,177.387749 C122.003636,182.178957 103.568032,179.793293 87.0876824,174.955283 L84.6173661,173.901615 C92.8984649,176.570162 110.89548,180.056296 120.598168,177.387749 C152.463016,168.623747 148.671973,130.669324 116.64467,71.0621007 C84.6173661,11.4548774 49.5757474,-4.8960329 21.9537585,6.3426811 C19.3015581,7.42161421 16.9891503,8.8960871 15,10.7226111 L15.212887,10.4952275 L15.6399012,10.0462588 L15.853615,9.82508786 L16.282696,9.38854448 C19.3635641,6.29215141 22.5576963,3.87542408 25.8493845,2.76294257 C50.8282672,-5.6788289 93.7099159,2.71324123 125.890167,63.5141248 Z"/></g></svg>