<svg xmlns="http://www.w3.org/2000/svg" fill="currentColor" viewBox="0 0 14 14" height="1em" width="1em">
  <path d="M13 11.377V8.223c-1.643.648-3.681 1.278-6.115 1.893-2.267.573-4.229.986-5.885 1.238v.022h12zM1 8.038v2.566a51.332 51.332 0 0 0 5.065-.983c1.481-.374 2.623-.738 3.424-1.09.8-.351 1.17-.648 1.11-.89-.054-.21-.424-.318-1.109-.323-.351.005-.835.03-1.452.075-.618.045-1.387.117-2.305.213-1.425.152-2.608.269-3.55.348-.448.037-.842.066-1.183.085Zm.517 1.475c.03 0 .058.013.08.035a.116.116 0 0 1-.128.191.117.117 0 0 1-.037-.025.072.072 0 0 1-.025-.037c0-.008-.008-.023-.008-.045 0-.03.015-.06.037-.083.023-.022.053-.03.09-.03zm.406 0a.12.12 0 0 1 .082.035.115.115 0 0 1 .033.083c0 .033-.011.06-.034.084a.135.135 0 0 1-.135.024.097.097 0 0 1-.038-.025c-.014-.007-.022-.022-.03-.037-.007-.008-.007-.023-.007-.045 0-.03.007-.06.03-.083a.112.112 0 0 1 .082-.03zm-.405-.755c.03 0 .057.011.08.035.023.022.035.05.035.083 0 .031-.012.06-.035.082a.114.114 0 0 1-.082.035.114.114 0 0 1-.084-.035.115.115 0 0 1-.035-.082c0-.034.008-.062.03-.085a.117.117 0 0 1 .083-.034Zm.405 0c.031 0 .058.011.082.035.022.022.033.05.033.083 0 .031-.011.06-.034.082-.03.022-.053.035-.09.035a.106.106 0 0 1-.083-.035.118.118 0 0 1-.037-.082c0-.034.007-.062.03-.085a.116.116 0 0 1 .082-.034ZM13 3.299v2.406c-.818.05-1.84.138-3.069.267-1.245.135-2.26.24-3.046.307-.788.075-1.357.114-1.705.12-.682.016-1.045-.075-1.098-.277-.053-.224.353-.524 1.223-.885.87-.367 2.025-.735 3.45-1.095a43.649 43.649 0 0 1 4.244-.825zm-.428-.675a81.77 81.77 0 0 0-5.056 1.115C4.793 4.426 2.622 5.11 1 5.787V2.624h11.573z"/>
</svg>
