<svg xmlns="http://www.w3.org/2000/svg" fill="currentColor" width="1em" height="1em" viewBox="0 0 150 150">
  <path d="M149.996652,41.5504118 C149.996652,40.0404009 149.969865,38.5370862 149.929684,37.0237271 C149.889479,33.7232863 149.600703,30.4305622 149.065807,27.1735006 C148.507382,23.9127729 147.466929,20.7532587 145.978615,17.7987099 C142.956518,11.8649909 138.1316,7.04156844 132.19675,4.0211156 C129.242865,2.53082012 126.082821,1.49033249 122.821331,0.934130935 C119.563242,0.396319522 116.269046,0.106431705 112.967097,0.066962791 C111.456985,0.0267851164 109.953569,0.0100444187 108.440109,0 L41.5565427,0 C40.0464306,0 38.5430153,0.0267851164 37.0295549,0.066962791 C36.2092058,0.0903997679 35.3855083,0.117184884 34.5618108,0.157362559 C32.0854761,0.256798914 29.6181641,0.516263128 27.1753203,0.934130935 C24.7417426,1.35877149 22.3608012,2.04348485 20.0734408,2.97649606 C19.3010849,3.30014955 18.5410063,3.64835606 17.7932051,4.0211156 C15.5863952,5.15055914 13.519722,6.53499141 11.6355641,8.14602353 C11.0060717,8.68507399 10.4000179,9.2442133 9.81740256,9.8200933 C7.47219368,12.1591083 5.51152349,14.8541431 4.00799143,17.8054061 C2.51889323,20.7596305 1.47840127,23.9192644 0.920800036,27.1801969 C0.390726031,30.4353902 0.106428217,33.7258611 0.0703156391,37.0237271 C0.0267869101,38.5337381 0.0100450913,40.0370527 0,41.5504118 L0,108.456284 C0,109.966295 0.0267869101,111.46961 0.0703156391,112.979621 C0.110229315,116.280076 0.39900748,119.572822 0.934193491,122.829848 C1.49106583,126.090961 2.53159273,129.250701 4.02138488,132.204638 C7.04518753,138.133686 11.8652306,142.95575 17.7932051,145.982233 C20.747852,147.46998 23.9076759,148.509267 27.1686236,149.065869 C30.4267126,149.60368 33.7209094,149.893568 37.0228582,149.933037 C38.5296219,149.973215 40.0363856,149.989956 41.549846,150 L108.446806,150 C109.956918,150 111.460333,149.973215 112.973793,149.933037 C116.276759,149.891708 119.571929,149.601833 122.831376,149.065869 C126.092204,148.508782 129.251957,147.469519 132.206795,145.982233 C138.136507,142.956565 142.95707,138.132809 145.978615,132.20129 C147.468407,129.247353 148.508934,126.087613 149.065807,122.826499 C149.603754,119.569766 149.893662,116.276895 149.933033,112.976273 C149.973213,111.46961 149.989955,109.962947 150,108.452936 L150,46.9241758 C149.996652,45.1329211 149.996652,43.3416665 149.996652,41.5504118 Z M126.598286,122.240575 C119.901558,109.206268 107.4356,112.440571 101.046922,115.721747 C100.471003,116.056561 99.8816911,116.391375 99.2890308,116.726189 L99.1483995,116.809893 C85.9223626,123.840986 68.1659896,124.356599 50.312514,116.682663 C35.779112,110.381458 23.4900254,99.8344883 15.0575919,86.4255262 C19.1601349,89.4606647 23.5534617,92.08168 28.1731327,94.2501283 C47.0445109,103.089217 66.0096433,102.449722 79.4030984,94.2501283 C60.3174249,79.5685364 44.3792134,60.4339189 32.161034,44.9588179 C29.8334165,42.2434232 27.7304143,39.3433109 25.8728068,36.2871364 C40.5051565,49.6796946 63.6088665,66.4940515 71.9061119,71.1479654 C54.3037636,52.5691391 38.7941426,29.6511239 39.5207375,30.3877146 C67.2418412,58.3178947 92.819992,74.1110689 92.819992,74.1110689 C93.7843207,74.640075 94.4941738,75.0652887 95.0734408,75.4503248 C95.6092689,74.0835027 96.0741937,72.6899392 96.4663601,71.2751948 C100.892897,55.0936363 95.9105317,36.5951653 84.6432876,21.3209527 C110.355373,36.7491797 125.553596,66.075534 119.32564,90.8785518 C119.178312,91.45778 119.007545,92.0169193 118.843475,92.5827548 C131.741372,108.452936 128.232287,125.451441 126.588241,122.243923 L126.598286,122.240575 Z"/>
</svg>