<svg viewBox="0 0 256 317" xmlns="http://www.w3.org/2000/svg" height="1em" width="1em">
  <path d="M198.814 98.655a10.349 10.349 0 0 1 8.975 5.244l35.586 61.635c25.367 43.937 11.463 104.796-32.341 141.562a10.331 10.331 0 0 1-3.116 1.8 128.641 128.641 0 0 1-43.96 7.784c-39.453 0-76.278-18.462-94.807-50.556l-42.35-73.35a10.348 10.348 0 0 1 3.788-14.136l28.846-16.655a10.349 10.349 0 1 1 10.349 17.924L49.9 191.387l37.175 64.388c20.152 34.905 68.066 49.46 112.043 34.282 35.13-30.495 46.485-79.27 26.334-114.174l-35.586-61.635a10.349 10.349 0 0 1 8.948-15.593Zm-108.74 96.59c.12.216 6.66 11.866 12.895 22.894l.583 1.032c3.298 5.832 6.45 11.381 8.448 14.842 14.574 25.244 41.265 34.887 71.401 25.778 5.472-1.653 11.247 1.443 12.9 6.914 1.652 5.472-1.444 11.247-6.915 12.9a95.73 95.73 0 0 1-27.672 4.247 76.222 76.222 0 0 1-67.639-39.49 2209.073 2209.073 0 0 1-8.391-14.737l-.576-1.018-.577-1.022-.579-1.023-.578-1.023-.576-1.02a7893.27 7893.27 0 0 1-10.805-19.202c-2.782-4.993-.989-11.296 4.004-14.077 4.993-2.781 11.295-.988 14.077 4.005ZM19.272 5.105l122.265 211.771c3.335 5.774 12.789 15.683 24.682 11.845 5.44-1.754 11.272 1.235 13.025 6.675 1.753 5.44-1.236 11.272-6.676 13.025a38.083 38.083 0 0 1-11.719 1.875c-16.345 0-30.2-10.884-37.236-23.07L1.348 15.454C-1.455 10.51.253 4.23 5.176 1.388 10.098-1.454 16.39.206 19.272 5.106Zm89.756 60.963 29.135 50.463 18.53-10.7c4.945-2.812 11.234-1.105 14.078 3.821 2.845 4.927 1.18 11.226-3.729 14.103L139.55 139.63a10.35 10.35 0 0 1-4.812 1.381l-.364.006-.324-.005a10.35 10.35 0 0 1-8.637-5.169L91.104 76.417c-2.803-4.945-1.095-11.225 3.828-14.067 4.922-2.842 11.215-1.182 14.096 3.718Z" fill="currentColor"/>
</svg>
