<svg viewBox="0 0 15 15" fill="none" xmlns="http://www.w3.org/2000/svg" height="1em" width="1em">
  <path d="M7.5 2.5c-1.026 0-1.908.277-2.6.87-.688.59-1.137 1.447-1.387 2.516a.5.5 0 0 0 .897.4c.316-.452.632-.723.936-.863.294-.135.611-.162.975-.065.366.098.65.386 1.095.87l.015.016c.336.365.745.81 1.305 1.156.582.359 1.305.6 2.264.6 1.026 0 1.908-.277 2.6-.87.688-.59 1.138-1.447 1.387-2.516a.5.5 0 0 0-.897-.4c-.316.452-.632.723-.936.863-.294.135-.611.162-.975.065-.366-.098-.65-.386-1.095-.87l-.015-.016c-.336-.365-.745-.81-1.305-1.156-.582-.359-1.305-.6-2.264-.6ZM4 7c-1.026 0-1.908.277-2.6.87C.712 8.46.263 9.317.013 10.386a.5.5 0 0 0 .897.4c.316-.452.632-.723.936-.863.294-.135.611-.162.975-.065.366.098.65.386 1.095.87l.015.016c.336.365.745.81 1.305 1.156.582.359 1.305.6 2.264.6 1.026 0 1.908-.277 2.6-.87.688-.59 1.138-1.447 1.387-2.516a.5.5 0 0 0-.897-.4c-.316.452-.632.723-.936.863-.294.135-.611.162-.975.065-.366-.098-.65-.386-1.095-.87l-.015-.016c-.335-.365-.745-.81-1.305-1.156C5.682 7.24 4.959 7 4 7Z" fill="currentColor"/>
</svg>
