<svg viewBox="0 0 256 289" xmlns="http://www.w3.org/2000/svg" preserveAspectRatio="xMidYMid" height="1em" width="1em">
  <path d="M178.497 104.93c0 15.155-12.285 27.44-27.44 27.44-15.153 0-27.438-12.285-27.438-27.44 0-15.153 12.285-27.438 27.439-27.438s27.439 12.285 27.439 27.439Z" fill="#FFC131"/>
  <circle fill="#24C8DB" transform="rotate(180 104.91 183.505)" cx="104.911" cy="183.505" r="27.439"/>
  <path d="M207.93 192.86a104.766 104.766 0 0 1-36.168 14.717 73.586 73.586 0 0 0 3.617-33.176c29.953-10.472 49.82-38.964 49.292-70.69-.53-31.727-21.336-59.542-51.622-69.008-30.286-9.467-63.23 1.546-81.733 27.324a122.227 122.227 0 0 0-40.16 11.723C64.86 29.536 105.956-.445 152.244.005c46.288.45 86.794 31.224 99.636 75.697 12.841 44.473-5.026 92.103-43.95 117.157ZM52.404 92.832l25.693 3.118a73.586 73.586 0 0 1 3.243-14.593 104.766 104.766 0 0 0-28.936 11.475Z" fill="#FFC131"/>
  <path d="M47.913 95.577a104.766 104.766 0 0 1 36.419-14.842 73.46 73.46 0 0 0-4.116 33.3c-29.847 10.619-49.549 39.148-48.906 70.822.642 31.673 21.484 59.38 51.738 68.78 30.253 9.399 63.127-1.62 81.604-27.352a122.227 122.227 0 0 0 40.16-11.6c-13.736 44.169-54.812 74.1-101.064 73.645-46.252-.453-86.733-31.184-99.602-75.612-12.87-44.427 4.92-92.037 43.768-117.141Zm155.528 100.026-.5.25.5-.25Z" fill="#24C8DB"/>
</svg>
