<svg t="1711186299619" class="icon" viewBox="0 0 1071 1024" version="1.1" xmlns="http://www.w3.org/2000/svg" p-id="8165" data-spm-anchor-id="a313x.search_index.0.i11.500b3a818DLPdx" fill="currentColor" height="1em" width="1em"><path d="M398.985219 50.022022C155.18801 109.140702 1.691015 339.075518 56.137774 563.579423c18.601168 76.717036 59.350703 142.721688 114.395216 194.17181l-22.069715 186.530781 163.450388-98.712032c86.115935 33.108506 184.910552 41.532121 284.232137 17.444985 243.797209-59.122613 397.294204-289.053497 342.851378-513.541671-54.442826-224.503905-296.21475-358.573887-540.011959-299.451274z" fill="#bfbfbf" p-id="8166" data-spm-anchor-id="a313x.search_index.0.i8.500b3a818DLPdx" class=""></path><path d="M606.217172 324.017617h58.021487c32.042773 0 58.021486 24.531519 58.021486 54.79676 0 30.261308-25.978713 54.79676-58.021486 54.79676h-58.021487V324.017617z" fill="#bfbfbf" p-id="8167"></path><path d="M232.785947 278.175374H481.34946v66.618136H232.785947v-66.618136z" fill="#ffffff" p-id="8168" data-spm-anchor-id="a313x.search_index.0.i19.500b3a818DLPdx" class="selected"></path><path d="M320.895707 343.798563H391.804303v287.248436H320.89964V343.798563z" fill="#ffffff" p-id="8169" data-spm-anchor-id="a313x.search_index.0.i16.500b3a818DLPdx" class="selected"></path><path d="M516.369206 278.265823h79.51311v351.711511h-79.51311V278.265823z" fill="#ffffff" p-id="8170" data-spm-anchor-id="a313x.search_index.0.i17.500b3a818DLPdx" class="selected"></path><path d="M518.512469 277.691664h130.723345c72.202419 0 130.73121 47.143932 130.73121 105.299127 0 58.151262-58.528791 105.295194-130.73121 105.295195H518.512469V277.691664z" fill="#ffffff" p-id="8171" data-spm-anchor-id="a313x.search_index.0.i18.500b3a818DLPdx" class="selected"></path><path d="M595.504787 329.739541h59.099017c32.640527 0 59.095084 22.930953 59.095085 51.218099 0 28.287146-26.45849 51.218099-59.095085 51.2181h-59.099017V329.739541z" fill="#bfbfbf" p-id="8172" data-spm-anchor-id="a313x.search_index.0.i9.500b3a818DLPdx" class=""></path></svg>