<svg viewBox="0 0 1024 1024" fill="currentColor" xmlns="http://www.w3.org/2000/svg" height="1em" width="1em">
  <path d="M945 412H689c-4.4 0-8 3.6-8 8v48c0 4.4 3.6 8 8 8h256c4.4 0 8-3.6 8-8v-48c0-4.4-3.6-8-8-8zM811 548H689c-4.4 0-8 3.6-8 8v48c0 4.4 3.6 8 8 8h122c4.4 0 8-3.6 8-8v-48c0-4.4-3.6-8-8-8zM477.3 322.5H434c-6.2 0-11.2 5-11.2 11.2v248c0 3.6 1.7 6.9 4.6 9l148.9 108.6c5 3.6 12 2.6 15.6-2.4l25.7-35.1v-.1c3.6-5 2.5-12-2.5-15.6l-126.7-91.6V333.7c.1-6.2-5-11.2-11.1-11.2z"/>
  <path d="M804.8 673.9H747c-5.6 0-10.9 2.9-13.9 7.7-12.7 20.1-27.5 38.7-44.5 55.7-29.3 29.3-63.4 52.3-101.3 68.3-39.3 16.6-81 25-124 25-43.1 0-84.8-8.4-124-25-37.9-16-72-39-101.3-68.3s-52.3-63.4-68.3-101.3c-16.6-39.2-25-80.9-25-124 0-43.1 8.4-84.7 25-124 16-37.9 39-72 68.3-101.3 29.3-29.3 63.4-52.3 101.3-68.3 39.2-16.6 81-25 124-25 43.1 0 84.8 8.4 124 25 37.9 16 72 39 101.3 68.3 17 17 31.8 35.6 44.5 55.7 3 4.8 8.3 7.7 13.9 7.7h57.8c6.9 0 11.3-7.2 8.2-13.3-65.2-129.7-197.4-214-345-215.7-216.1-2.7-395.6 174.2-396 390.1C71.6 727.5 246.9 903 463.2 903c149.5 0 283.9-84.6 349.8-215.8 3.1-6.1-1.4-13.3-8.2-13.3z"/>
</svg>
