<svg viewBox="0 0 1024 1024" xmlns="http://www.w3.org/2000/svg" fill="currentColor" height="1em" width="1em">
<path d="M283.02655555 307.55600001c140.717 72.074 260.839 66.925 260.839 66.92499999s-44.617-157.87599999 94.384-228.234c138.998-70.359 236.816 48.048 236.816 48.048s24.025-6.863 42.901-13.728 44.617-18.87599999 44.61700001-18.876l-42.90100001 77.222 66.92500001-6.863s-8.579 12.014-34.31900001 36.038c-25.741 24.025-37.754 37.754-37.754 37.754s10.297 190.483-90.95 338.062c-99.53 147.58000001-229.952 235.099-417.002 253.973-187.05 18.87599999-310.606-58.347-310.606-58.347s82.37-5.149 133.852-24.025c51.483-20.592 126.99-73.79 126.99-73.79s-106.397-32.605-145.866-70.35899999-48.048-60.062-48.048-60.06200001l106.397-1.716s-111.542-60.062-142.433-106.397c-30.89-46.333-36.038-92.666-36.038-92.666l80.656 32.605s-66.925-92.666-77.222-163.025c-10.297-72.074 12.014-109.826 12.014-109.826s36.038 65.21 176.752 137.283z"></path>
</svg>