<svg xmlns="http://www.w3.org/2000/svg" viewBox="0 0 32 32" fill="currentColor" height="1em" width="1em">
  <path d="M32 15.979h-.036l-5.755-5.755 5.734-5.885V1.948l-.865-.865H20.146l-.88.807v1.396L16.021.036V0L16 .021 15.979 0v.036L14.26 1.755l-.719-.719H2.713l-.849.927v2.51l.818.823h.964v7.078L.037 15.983H.001l.021.016-.021.021h.036l3.609 3.604v8.625l1.208.698h3.094l2.479-2.542 5.552 5.557v.036l.021-.021.021.021v-.036l3.344-3.344h.646a.352.352 0 0 0 .333-.24l.198-.568a.356.356 0 0 0-.052-.323l1.948-1.948-.813 2.615a.352.352 0 0 0 .234.443.242.242 0 0 0 .104.021h2.432a.365.365 0 0 0 .323-.219l.219-.526a.333.333 0 0 0-.005-.271.313.313 0 0 0-.193-.188.45.45 0 0 0-.13-.031h-.099l1.12-3.521h1.641l-1.354 4.292a.359.359 0 0 0 .343.459h2.667a.362.362 0 0 0 .333-.224l.219-.573a.355.355 0 0 0-.334-.474h-.193l1.505-4.901a.347.347 0 0 0-.052-.318l-.5-.672v-.005a.355.355 0 0 0-.281-.141h-1.917a.348.348 0 0 0-.25.109l-.536.589h-.828l-.057-.063 5.927-5.927h.036l-.021-.016zM13.12 28.188l2.104-6.016h-.672l.401-.406h2.208l-2.083 6.078h.833l-.109.344zm4.922-10.027.203.203-.359 1.229-.302.302h-1.292l-.24-.24.417-1.161.38-.333zm-10.589 9.61H5.172l-.354-.198V4.12H3.172l-.135-.13V2.422l.193-.208h9.828l.286.286v1.479l-.193.229h-1.438v11.583L23.458 4.208h-2.781l-.234-.25V2.406l.161-.146h9.984l.177.177v1.427L17.307 17.666h-.557l-.026.005a.41.41 0 0 0-.156.078l-.458.396-.005.005a.407.407 0 0 0-.099.146l-.391 1.109zm19.693-5.266.63-.693h1.776l.417.552-1.688 5.474h.656l-.109.281h-2.375l1.5-4.755h-2.688l-1.438 4.521h.568l-.099.234h-2.141l1.479-4.729h-2.797l-1.417 4.453h.583l-.099.276H17.69l2.021-5.948h-.781l.12-.359h2.198l.693.714h1.208l.656-.734h1.411l.656.714z"/>
</svg>
