<?xml version="1.0" encoding="UTF-8"?>
<svg width="43px" height="25px" viewBox="0 0 43 25" version="1.1" xmlns="http://www.w3.org/2000/svg" xmlns:xlink="http://www.w3.org/1999/xlink">
    <title>wails</title>
    <defs>
        <linearGradient x1="-0.2%" y1="49.9996942%" x2="99.8%" y2="49.9996942%" id="linearGradient-1">
            <stop stop-color="#E33232" offset="0%"></stop>
            <stop stop-color="#6B000D" offset="100%"></stop>
        </linearGradient>
        <linearGradient x1="57.4612403%" y1="49.999806%" x2="105.910853%" y2="49.999806%" id="linearGradient-2">
            <stop stop-color="#E33232" offset="0%"></stop>
            <stop stop-color="#6B000D" offset="100%"></stop>
        </linearGradient>
        <linearGradient x1="37.15%" y1="49.9997381%" x2="137.15%" y2="49.9997381%" id="linearGradient-3">
            <stop stop-color="#E33232" offset="0%"></stop>
            <stop stop-color="#6B000D" offset="100%"></stop>
        </linearGradient>
        <linearGradient x1="112.55%" y1="91.3957%" x2="32.3601%" y2="31.6497%" id="linearGradient-4">
            <stop stop-color="#E33232" offset="0%"></stop>
            <stop stop-color="#6B000D" offset="100%"></stop>
        </linearGradient>
        <linearGradient x1="11.95%" y1="49.9998072%" x2="111.95%" y2="49.9998072%" id="linearGradient-5">
            <stop stop-color="#E33232" offset="0%"></stop>
            <stop stop-color="#6B000D" offset="100%"></stop>
        </linearGradient>
        <linearGradient x1="25.85%" y1="50.0000968%" x2="125.85%" y2="50.0000968%" id="linearGradient-6">
            <stop stop-color="#E33232" offset="0%"></stop>
            <stop stop-color="#6B000D" offset="100%"></stop>
        </linearGradient>
    </defs>
    <g id="Page-1" stroke="none" stroke-width="1" fill="none" fill-rule="evenodd">
        <g id="wails" transform="translate(-2, -16)">
            <polygon id="Path" fill="url(#linearGradient-1)" fill-rule="nonzero" transform="translate(7.0309, 29.4785) scale(-1, 1) rotate(1.5717) translate(-7.0309, -29.4785)" points="11.9494683 28.4327958 2.11242576 30.5241355 3.85520888 28.6651669"></polygon>
            <polygon id="Path" fill="url(#linearGradient-2)" fill-rule="nonzero" transform="translate(36.5284, 31.0714) scale(-1, 1) rotate(-8.5836) translate(-36.5284, -31.0714)" points="45.1336155 28.6949336 37.2037952 36.9916435 27.9231538 35.590792 37.9375746 32.7974273 30.7582105 31.7134351 40.7726313 28.9200704 33.6016056 27.8360782 43.2241214 25.1511127"></polygon>
            <polygon id="Path" fill="url(#linearGradient-3)" fill-rule="nonzero" transform="translate(26.7683, 36.8365) scale(-1, 1) rotate(-54.8194) translate(-26.7683, -36.8365)" points="31.562747 36.2208083 28.8692495 35.9745456 27.514805 43.5625128 20.0037949 32.9116542 28.8230753 30.1104168 33.532848 30.1104168"></polygon>
            <polygon id="Path" fill="url(#linearGradient-4)" fill-rule="nonzero" transform="translate(25.014, 20.7986) scale(-1, 1) rotate(128.5441) translate(-25.014, -20.7986)" points="21.9947129 16.4027699 26.1092974 16.4027699 27.4413571 19.4221053 28.0333837 25.1943641"></polygon>
            <polygon id="Path" fill="url(#linearGradient-5)" fill-rule="nonzero" transform="translate(36.3109, 20.727) scale(-1, 1) rotate(-14.7678) translate(-36.3109, -20.727)" points="38.8713907 20.875032 39.5522206 22.562306 33.0695361 18.8917449"></polygon>
            <polygon id="Path" fill="#FFFFFF" transform="translate(23.7731, 24.2307) rotate(-70.4489) translate(-23.7731, -24.2307)" points="23.1059371 22.8465329 24.9921646 25.6148058 22.5539813 23.7394335"></polygon>
            <polygon id="Path" fill="url(#linearGradient-6)" fill-rule="nonzero" transform="translate(21.3064, 24.9941) scale(-1, 1) rotate(-6.2086) translate(-21.3064, -24.9941)" points="19.70206 25.0327874 20.4365745 24.298273 35.7067436 25.4580326 32.0341713 28.4347491 22.8720698 27.6229174 19.70206 30.2130473 29.8692865 32.493908 26.4286662 35.2773312 17.3052234 32.1846388 13.7872857 26.2698644 6.90604496 14.7109263"></polygon>
        </g>
    </g>
</svg>