<svg viewBox="0 0 1024 1024" version="1.1" xmlns="http://www.w3.org/2000/svg" fill="currentColor" height="1em" width="1em"><path d="M141.744 113.262C126.017 113.262 113.262 126.008 113.262 141.744L113.262 768.331 56.3 768.331 56.3 141.744C56.3 94.554 94.554 56.3 141.744 56.3L904.837 56.3C942.903 56.3 961.959 102.315 935.044 129.23L465.054 599.228 597.444 599.228 597.444 540.481 654.406 540.481 654.406 613.469C654.406 637.061 635.279 656.191 611.684 656.191L408.088 656.191 310.184 754.091 754.091 754.091 754.091 398.075 811.053 398.075 811.053 754.091C811.053 785.553 785.55 811.053 754.091 811.053L253.221 811.053 153.537 910.737 882.256 910.737C897.983 910.737 910.737 897.992 910.737 882.256L910.737 255.669 967.7 255.669 967.7 882.256C967.7 929.446 929.446 967.7 882.256 967.7L119.163 967.7C81.096 967.7 62.041 921.685 88.956 894.769L557.166 426.556 426.556 426.556 426.556 483.519 369.594 483.519 369.594 412.316C369.594 388.723 388.721 369.594 412.316 369.594L614.128 369.594 713.813 269.909 269.909 269.909 269.909 625.925 212.947 625.925 212.947 269.909C212.947 238.446 238.446 212.947 269.909 212.947L770.775 212.947 870.46 113.262 141.744 113.262Z"></path></svg>