<svg xmlns="http://www.w3.org/2000/svg" fill="currentColor" height="1em" width="1em" viewBox="0 0 32 32">
  <path d="M28.057 6.53 17.952.532a3.8 3.8 0 0 0-3.88 0L3.965 6.53A4.03 4.03 0 0 0 2 10.002v11.996a4.03 4.03 0 0 0 1.948 3.472l10.105 5.998a3.8 3.8 0 0 0 3.88 0L28.04 25.47a4.03 4.03 0 0 0 1.948-3.472V10.002a4.03 4.03 0 0 0-1.93-3.472zM20.23 25.262v.86a.318.318 0 0 1-.148.265l-.512.293c-.08.042-.148 0-.148-.113v-.847a1.66 1.66 0 0 1-1.164.113c-.062-.042-.086-.122-.056-.2l.183-.78a.322.322 0 0 1 .102-.17.18.18 0 0 1 .05-.035.11.11 0 0 1 .08 0 1.41 1.41 0 0 0 1.059-.134 1.41 1.41 0 0 0 .79-1.21c0-.438-.24-.62-.82-.625-.734 0-1.4-.14-1.43-1.224a3.137 3.137 0 0 1 1.186-2.4v-.872a.34.34 0 0 1 .148-.268l.494-.314c.08-.042.148 0 .148.116v.872a1.61 1.61 0 0 1 .967-.116c.07.04.098.128.064.2l-.173.773a.325.325 0 0 1-.138.195c-.02.012-.05.008-.074 0a1.28 1.28 0 0 0-.931.152 1.17 1.17 0 0 0-.706 1.037c0 .395.208.515.907.53.935 0 1.337.423 1.348 1.362a3.346 3.346 0 0 1-1.228 2.53zm5.293-1.45a.201.201 0 0 1-.078.194L22.9 25.558c-.024.02-.06.023-.087.007s-.04-.05-.033-.08v-.66a.184.184 0 0 1 .116-.162l2.516-1.507c.024-.02.06-.023.087-.007s.04.05.033.08v.582zM27.288 9.06l-9.562 5.906c-1.193.706-2.07 1.478-2.07 2.914v11.778c0 .86.353 1.4.882 1.58a3.14 3.14 0 0 1-.53.053 3.13 3.13 0 0 1-1.595-.441L4.308 24.853A3.3 3.3 0 0 1 2.706 22V10.002a3.304 3.304 0 0 1 1.602-2.858l10.105-5.998c.98-.58 2.196-.58 3.176 0l10.105 5.998c.833.504 1.4 1.35 1.552 2.3-.328-.713-1.083-.9-1.962-.395h.003z" fill-rule="evenodd"/>
</svg>
