<svg xmlns="http://www.w3.org/2000/svg" height="1em" width="1em" viewBox="0 0 38 42">
<path fill="currentColor" fill-rule="evenodd" d="M20.096,0.28575 C21.6507561,1.15835976 24.653163,2.84381008 27.7615951,4.58873655 L28.7451648,5.14086432 C32.0250464,6.98202246 35.2659268,8.80121341 36.903,9.71975 C37.582,10.09975 38,10.80375 38,11.56575 L38,30.43275 C38,31.19475 37.582,31.89875 36.903,32.27975 C35.3482439,33.1523598 32.345837,34.8378101 29.2374049,36.5827365 L28.2538352,37.1348643 C24.9739536,38.9760225 21.7330732,40.7952134 20.096,41.71375 C19.417,42.09475 18.581,42.09475 17.903,41.71375 C16.3482439,40.8411402 13.345837,39.1556899 10.2374049,37.4107635 L9.2538352,36.8586357 C5.9739536,35.0174775 2.73307317,33.1982866 1.096,32.27975 C0.418,31.89875 0,31.19575 0,30.43375 L0,11.56675 C0,10.80475 0.418,10.10075 1.097,9.71975 C4.451,7.83675 14.549,2.16875 17.903,0.28575 C18.582,-0.09525 19.418,-0.09525 20.096,0.28575 Z M19,6.99975 C11.273,6.99975 5,13.27275 5,20.99975 C5,28.72675 11.273,34.99975 19,34.99975 C24.2106279,34.99975 28.7600712,32.1471979 31.1706024,27.9198213 L25.0359394,24.544542 C23.8185152,26.6113911 21.5699125,27.99975 19,27.99975 C15.137,27.99975 12,24.86275 12,20.99975 C12,17.13575 15.136,13.99975 19,13.99975 C21.527968,13.99975 23.7450291,15.3427307 24.9755084,17.353858 L31.0544381,13.8798146 C28.6157645,9.76264004 24.1280833,6.99975 19,6.99975 Z"/>
</svg>