<svg xmlns="http://www.w3.org/2000/svg" height="1em" width="1em" viewBox="0 0 187 155">
<path fill="currentColor" d="M77.4039102,0.01171875 C104.893578,0.01171875 130.532863,14.8054453 144.312707,38.6186211 L110.875113,57.9682852 C103.978656,46.0481602 91.1520117,38.6428945 77.4039102,38.6428945 C56.1021016,38.6428945 38.7718008,55.9731953 38.7718008,77.2750039 C38.7718008,98.5758789 56.1021016,115.90618 77.4039102,115.90618 C91.1529453,115.90618 103.97959,108.500914 110.87698,96.5789219 L144.314574,115.927652 C130.53473,139.743629 104.895445,154.537355 77.4039102,154.537355 C34.800293,154.537355 0.140625,119.877688 0.140625,77.2750039 C0.140625,34.6713867 34.800293,0.01171875 77.4039102,0.01171875 Z M146.080934,64.3970117 L146.080934,72.9823398 L154.666262,72.9823398 L154.666262,81.5667344 L146.080934,81.5667344 L146.080934,90.1520625 L137.497473,90.1520625 L137.497473,81.5667344 L128.912145,81.5667344 L128.912145,72.9823398 L137.497473,72.9823398 L137.497473,64.3970117 L146.080934,64.3970117 Z M178.274047,64.3970117 L178.274047,72.9823398 L186.859375,72.9823398 L186.859375,81.5667344 L178.274047,81.5667344 L178.274047,90.1520625 L169.690586,90.1520625 L169.690586,81.5667344 L161.105258,81.5667344 L161.105258,72.9823398 L169.690586,72.9823398 L169.690586,64.3970117 L178.274047,64.3970117 Z"/></svg>