<svg xmlns="http://www.w3.org/2000/svg" fill="currentColor" width="1em" height="1em" viewBox="0 0 200 218">
<path d="M100,0.44 L100,0.455333333 L199.666667,58.5993333 L199.666667,159.400667 L100,217.56 L0.333333333,159.400667 L0.333333333,58.5993333 L100,0.44 Z M82.0833333,55.333 C53.8740706,55.3333333 31,78.2074039 31,106.424 L31,111.576 C31.0041913,129.277326 40.1707165,145.7152 55.2277239,155.022373 C70.2847313,164.329546 89.0864906,165.17968 104.922,157.269333 L111.101333,154.202667 L104.232,140.479333 L98.068,143.546 C86.9899096,149.088667 73.8317911,148.500121 63.2927817,141.99055 C52.7537723,135.480978 46.336719,123.978635 46.3333333,111.591333 L46.3333333,106.439333 C46.3346881,94.0500894 52.7491422,82.5443897 63.2870103,76.0292762 C73.8248785,69.5141628 86.9843283,68.9181542 98.068,74.454 L104.232,77.536 L111.101333,63.828 L104.922,60.746 C98.0448161,57.3003013 90.4812112,55.4533442 82.7961467,55.3389754 L82.0833333,55.333 Z M138.333333,70.6666667 L123,70.6666667 L123,86 L107.666667,86 L107.666667,101.333333 L123,101.333333 L123,116.666667 L107.666667,116.666667 L107.666667,132 L123,132 L123,147.333333 L138.333333,147.333333 L138.333333,132 L153.666667,132 L153.666667,147.333333 L169,147.333333 L169,132 L184.333333,132 L184.333333,116.666667 L169,116.666667 L169,101.333333 L184.333333,101.333333 L184.333333,86 L169,86 L169,70.6666667 L153.666667,70.6666667 L153.666667,86 L138.333333,86 L138.333333,70.6666667 Z M153.666667,101.333333 L153.666667,116.666667 L138.333333,116.666667 L138.333333,101.333333 L153.666667,101.333333 Z"/></svg>