<svg xmlns="http://www.w3.org/2000/svg" fill="currentColor" viewBox="0 0 50 50" height="1em" width="1em">
  <path style="text-indent:0;text-align:start;line-height:normal;text-transform:none;block-progression:tb;-inkscape-font-specification:Sans" d="M20 9v5H10v5H5v5H1.125a1 1 0 0 0-.969.813S0 25.666 0 26.75c0 .687.07 1.433.188 2.188C.13 28.95.051 28.986 0 29h.188a15.52 15.52 0 0 0 2.062 5.563c.005.007-.005.023 0 .03a1 1 0 0 0 .031.063 1 1 0 0 0 .375.594 1 1 0 0 0 .063.031c.307.445.633.89 1 1.313C6.396 39.679 10.737 42 17 42c10.221 0 18.869-4.354 23.75-13h9.094c-1.086-.275-3.42-.64-3.032-2.063-1.292 1.496-3.755 1.684-5.656 1.344.362-.688.717-1.385 1.032-2.125 2.891-.073 4.964-1.004 6.124-2.125 1.268-1.225 1.657-2.593 1.657-2.593a1 1 0 0 0-.344-1.032s-2.527-1.842-6.313-1.218c-1.08-3.537-3.874-5.25-3.874-5.25a1 1 0 0 0-.688-.126 1 1 0 0 0-.438.22s-.668.57-1.218 1.593c-.55 1.024-1.057 2.582-.875 4.594.085.941.382 1.837.812 2.687-.242.148-.383.273-.781.438-.828.342-2.034.656-3.75.656H32v-5h-5V9h-7zm2 2h3v3h-3v-3zm-10 5h3v3h-3v-3zm5 0h3v3h-3v-3zm5 0h3v3h-3v-3zm17.094.219c.742.549 2.085 1.701 2.562 4.218a1 1 0 0 0 1.25.782c2.55-.7 3.93-.125 4.688.312-.145.315-.12.514-.688 1.063-.91.88-2.452 1.766-5.343 1.656a1 1 0 0 0-.97.625 27.36 27.36 0 0 1-1.343 2.813 2.11 2.11 0 0 1-.375-.282c-1.338 1.94-9.113 1.2-9.656-.312-1.677 1.968-6.885 1.968-8.563 0-.543 1.512-8.35 2.252-9.687.312-1.201 1.126-5.932 1.816-7.906-.468.187.688-.297 1.133-.938 1.437A11.462 11.462 0 0 1 2 26.75c0-.431.033-.47.063-.75H32.5c1.969 0 3.446-.377 4.5-.813 1.054-.435 1.803-.969 1.906-1.03a1 1 0 0 0 .25-1.47c-.554-.724-.844-1.627-.937-2.656-.146-1.612.234-2.74.625-3.468.133-.248.139-.195.25-.344zM7 21h3v3H7v-3zm5 0h3v3h-3v-3zm5 0h3v3h-3v-3zm5 0h3v3h-3v-3zm5 0h3v3h-3v-3zM2.25 29H38.5C33.912 36.414 26.29 40 17 40c-5.47 0-9.016-1.854-11.344-4.313 4.438.211 7.875-.968 7.875-.968a1.008 1.008 0 0 0-.25-2 1.005 1.005 0 0 0-.156.031 1 1 0 0 0-.25.063S8.785 34.208 4 33.53A13.95 13.95 0 0 1 2.25 29zM16 31a1 1 0 1 0 1 1 .949.949 0 0 0-.063-.375.443.443 0 0 1-.375.219c-.225 0-.406-.213-.406-.438 0-.15.097-.273.219-.343A1.055 1.055 0 0 0 16 31z"/>
</svg>
