<svg xmlns="http://www.w3.org/2000/svg" fill="currentColor" viewBox="0 0 230 230" height="1em" width="1em"><path d="M176.09375,0 C205.86535,-5.46895416e-15 230,24.1346502 230,53.90625 L230,176.09375 C230,205.86535 205.86535,230 176.09375,230 L53.90625,230 C24.1346502,230 3.64596944e-15,205.86535 0,176.09375 L0,53.90625 C-3.64596944e-15,24.1346502 24.1346502,5.46895416e-15 53.90625,0 L176.09375,0 Z M96.3915625,71.8417578 C72.1633984,52.8083594 36.9455469,65.5976172 28.3034766,96.3196875 C26.8542969,101.414727 26.205625,106.860156 25.15625,111.855469 C25.15625,114.753001 25.1735062,117.650508 25.2065625,120.547852 C25.5560547,122.146172 26.205625,123.845117 26.205625,125.543164 C27.040801,136.25108 31.3566466,146.391645 38.4944531,154.417148 C53.2945034,168.337492 75.3687421,171.159676 93.1949219,161.410586 C103.851236,155.025409 110.993734,144.108874 112.576914,131.787305 C107.831367,130.339023 105.333711,131.188047 103.784805,136.183359 C101.384533,146.161673 94.1154179,154.257423 84.4522266,157.714414 C55.1290234,167.505586 32.2,148.323047 33.4991406,116.551602 L113.426836,116.551602 C114.12582,98.7679297 110.578789,82.9823828 96.3915625,71.8417578 Z M134.6075,70.6917578 C131.648507,65.8588504 125.699893,63.7717491 120.369961,65.6964453 L156.287695,112.505039 L117.672852,164.308047 C122.86047,166.177143 128.629968,163.911928 131.160195,159.012656 C140.551562,145.274648 150.842266,132.03707 161.132969,118.249648 L164.880352,123.244961 C173.522422,135.133984 182.513984,146.773242 190.656523,158.962344 C193.339516,164.091123 199.430792,166.407513 204.84375,164.357461 C192.654648,148.072383 180.815937,132.187109 168.876602,116.35125 C167.81759,115.403944 167.212286,114.050351 167.212286,112.629473 C167.212286,111.208595 167.81759,109.855001 168.876602,108.907695 C175.370508,100.864883 181.514922,92.5723047 187.759062,84.3300391 L201.696523,65.8464844 C196.612958,63.8698897 190.855156,66.0182947 188.308906,70.8417969 C179.766562,82.9311719 170.624961,94.6207422 161.382734,106.860156 C152.191719,94.5210156 142.949492,82.8817578 134.6075,70.6917578 Z M70.8691642,70.1898981 L71.5147266,70.1940234 C90.8967188,70.3431641 105.433437,86.6785547 105.883555,109.707305 L33.5988672,109.707305 L33.5485547,109.607578 C34.4982031,85.8789453 49.9342578,69.8939453 71.5147266,70.1940234 Z"/></svg>