<svg fill="currentColor" xmlns="http://www.w3.org/2000/svg" viewBox="0 0 14 14" height="1em" width="1em">
  <path d="M1 1h12v12H1V1Zm11.017 9.138c-.087-.547-.444-1.008-1.502-1.437-.367-.172-.777-.292-.898-.57-.046-.165-.053-.255-.023-.352.075-.323.458-.42.757-.33.195.06.375.21.488.45.517-.338.517-.338.878-.563a2.08 2.08 0 0 0-.293-.39c-.315-.352-.734-.532-1.417-.516l-.352.044c-.338.082-.66.263-.855.502-.57.646-.406 1.771.284 2.236.682.51 1.68.622 1.808 1.103.12.584-.435.772-.983.704-.406-.09-.63-.293-.878-.668l-.915.526c.105.24.225.344.405.554.87.879 3.045.834 3.436-.501.014-.046.12-.353.037-.826l.023.034zM7.525 6.515H6.401c0 .97-.004 1.932-.004 2.903 0 .616.031 1.181-.069 1.355-.165.345-.59.301-.783.24-.198-.098-.298-.232-.415-.427-.032-.053-.055-.098-.064-.098l-.912.563c.152.314.375.585.662.758.427.255 1.002.338 1.603.203.392-.114.73-.346.906-.706.255-.465.201-1.035.198-1.673.006-1.027 0-2.054 0-3.09l.002-.028z"/>
</svg>
