<svg xmlns="http://www.w3.org/2000/svg" width="1em" height="1em" viewBox="0 0 234 151">
<path fill="currentColor" d="M44.4519565,56.2879688 L44.4519565,123.30109 C44.6129734,128.045059 43.9365796,132.780279 42.4538159,137.289445 C41.3975884,140.486966 39.488118,143.335289 36.9315073,145.526977 C34.4491469,147.561382 31.4874884,148.926728 28.328351,149.493094 C24.6499538,150.207169 20.9090714,150.549532 17.1621635,150.515016 C14.697617,150.540493 12.237511,150.300076 9.82452683,149.797934 C7.94021993,149.417438 6.12125023,148.76498 4.42470261,147.861035 C3.12541251,147.189554 2.00596054,146.216479 1.16012839,145.023328 C0.417866268,144.066901 0.0104722421,142.893053 0.000640110633,141.68243 C-0.027402649,139.682282 0.867265468,137.78067 2.42610495,136.527117 C4.3072243,135.065905 6.65332886,134.3343 9.03157761,134.467277 C10.0050542,134.446711 10.9730464,134.612156 11.8839096,134.955387 C12.6625959,135.255777 13.396535,135.661265 14.0653198,136.160578 C14.6903806,136.665327 15.2815339,137.210678 15.8349448,137.793094 C16.3079721,138.40323 16.7352964,138.967664 17.1009214,139.501477 C17.7517198,140.395652 18.5274342,141.191836 19.4043589,141.865699 C19.9237689,142.223017 20.5298596,142.433783 21.1589018,142.475836 C21.6975954,142.482029 22.226807,142.333907 22.6840151,142.048969 C23.1959461,141.666448 23.5748251,141.13282 23.7671792,140.523398 C24.1022021,139.584499 24.3074764,138.604256 24.3773159,137.609824 C24.5619565,136.060945 24.6433081,134.502012 24.6213706,132.942164 L24.6213706,61.7494922 L44.4519565,56.2879688 Z M73.4350503,57.8747812 L73.4355073,103.730098 C73.4286776,104.981036 73.6725016,106.220669 74.1525893,107.375836 C74.68359,108.436549 75.4020238,109.3925 76.2732143,110.197547 C77.1726157,111.012132 78.204284,111.667454 79.3238979,112.135359 C80.4824619,112.623247 81.7276268,112.872124 82.9847182,112.867066 C83.8358383,112.829018 84.6708213,112.621593 85.4408042,112.25693 C86.4244048,111.805426 87.3469967,111.231417 88.1866479,110.548547 C89.1830827,109.791696 90.1071945,108.944083 90.9471167,108.016594 C91.8743056,107.030822 92.6974967,105.952174 93.4036596,104.797723 L93.4036596,57.8747812 L113.234246,57.8747812 L113.234246,123.469277 L93.4036596,123.469277 L93.4036596,117.367453 C90.9171044,119.552956 88.1270511,121.366706 85.1204253,122.752195 C82.4487719,124.000813 79.5419179,124.666376 76.5931362,124.704633 C73.5251745,124.748269 70.4750348,124.231265 67.5928198,123.179062 C64.9275784,122.157209 62.4680675,120.663885 60.3319643,118.770539 C58.3044443,116.935342 56.6609537,114.716319 55.4965737,112.241848 C54.3249743,109.713798 53.7257243,106.95834 53.7412673,104.172047 L53.7412673,57.8747812 L73.4350503,57.8747812 Z M218.824917,58.1796211 C221.811594,58.8462298 224.650304,60.0561363 227.199558,61.7490352 C229.26996,63.1619009 230.94079,65.0850713 232.050488,67.3325859 C233.110219,69.6305216 233.631969,72.139862 233.576058,74.6697656 L233.606679,123.46882 L213.776093,123.469277 L213.776093,118.252266 C212.738565,119.14526 211.664698,119.995144 210.557222,120.799758 C209.454858,121.594613 208.280135,122.283961 207.048593,122.858684 C205.667911,123.461583 204.225495,123.91184 202.747015,124.201441 C200.844491,124.543437 198.913468,124.701537 196.980652,124.673555 C194.21834,124.714756 191.469081,124.286681 188.850066,123.407578 C186.610925,122.631205 184.540214,121.435311 182.748699,119.883867 C181.102652,118.382826 179.797056,116.546763 178.919691,114.499125 C178.02715,112.390849 177.575479,110.122227 177.592472,107.832867 C177.549509,105.510229 178.023622,103.207105 178.980476,101.090285 C179.962005,99.0695119 181.27701,97.2285663 182.870269,95.6447578 C184.601742,93.9607701 186.533262,92.4955533 188.62155,91.2819375 C190.907645,89.955973 193.276946,88.7789557 195.714675,87.7582266 C198.262167,86.7056836 200.901066,85.7445469 203.601207,84.8446523 L211.609765,82.235918 L213.791175,81.7628906 L213.791175,75.2648203 C213.826367,73.4869688 213.600136,71.7136875 213.119796,70.0021055 C212.806131,68.7110809 212.206705,67.5069173 211.36571,66.4783945 C210.662106,65.568045 209.715437,64.8751942 208.634949,64.4797969 C207.491799,64.0623595 206.282436,63.8556375 205.065535,63.8696602 C203.722822,63.8357393 202.384874,64.0423751 201.114957,64.4797969 C200.146021,64.8391405 199.273899,65.4188342 198.567464,66.1730977 C197.92048,66.8612473 197.444799,67.6922011 197.179003,68.5985625 C196.879148,69.587118 196.735132,70.616354 196.752136,71.6492461 C196.759527,72.8573622 196.615974,74.0616703 196.324812,75.2341992 C196.101603,76.3438826 195.626752,77.3875549 194.936808,78.2848828 C194.20353,79.1532532 193.264827,79.8245633 192.206046,80.2377773 C190.806474,80.8203451 189.296765,81.0909386 187.781984,81.0307266 C186.480405,81.0463326 185.185686,80.8399998 183.953433,80.4205898 C182.883637,80.017973 181.896278,79.4235441 181.039859,78.6665039 C180.237737,77.9013332 179.581294,76.9968076 179.102503,75.9969844 C178.65841,74.9446518 178.430255,73.8138252 178.431582,72.671625 C178.444506,70.3816085 179.259551,68.1685341 180.735019,66.4171523 C182.441591,64.3416967 184.547455,62.6299639 186.927792,61.3834102 C189.777698,59.894272 192.815374,58.7961888 195.95873,58.1188359 C199.520008,57.294594 203.164685,56.8851142 206.820078,56.8985625 C210.858863,56.8300078 214.891249,57.2609883 218.824917,58.1796211 Z M172.588894,56.4716953 L172.588894,123.469277 L152.758308,123.469277 L152.758308,61.9323047 L172.588894,56.4716953 Z M142.08023,26.7715195 L142.08023,123.469277 L122.249644,123.469277 L122.249644,32.2321289 L142.08023,26.7715195 Z M213.776093,89.6498789 C211.807296,90.4928035 209.887201,91.4452216 208.024812,92.502668 C206.158286,93.5022364 204.391063,94.6770696 202.747015,96.0112969 C201.259992,97.1732505 199.949705,98.5451188 198.857222,100.083902 C197.896681,101.384874 197.363634,102.951918 197.331595,104.56875 C197.328092,105.77543 197.492369,106.976741 197.819761,108.138164 C198.113186,109.170696 198.560622,110.153082 199.14698,111.052195 C199.656049,111.801128 200.290767,112.456411 201.023093,112.989094 C201.699087,113.460751 202.502275,113.716209 203.326531,113.721715 C205.051154,113.657969 206.726792,113.130998 208.17746,112.196145 C210.0836,111.038818 211.926962,109.781127 213.699769,108.428379 L213.776093,89.6498789 Z M161.39757,28.2664675 C168.893339,28.2692109 174.968656,34.3468125 174.968656,41.842582 C174.960429,49.3433789 168.877343,55.4191523 161.377003,55.4191523 C153.880777,55.4104688 147.810488,49.3287539 147.815968,41.8325273 C147.821457,34.3367578 153.901343,28.2632695 161.39757,28.2664675 Z M194.026402,28.2664675 C201.522628,28.2692109 207.597945,34.3468125 207.597945,41.842582 C207.589382,49.2392012 201.674423,55.250106 194.317535,55.4156487 L194.005,55.419 L193.694787,55.4157268 C186.342606,55.2412594 180.439402,49.2246396 180.445257,41.8325273 C180.450746,34.3367578 186.530632,28.2632695 194.026402,28.2664675 Z M33.8200385,28.2664687 C41.3180932,28.2664687 47.3961518,34.3449844 47.3961518,41.842582 C47.3879253,49.3374375 41.314437,55.4109258 33.8200385,55.4191523 C26.3219839,55.4196094 20.2434682,49.3410937 20.2434682,41.842582 C20.2434682,34.3445273 26.3219839,28.2664687 33.8200385,28.2664687 Z M177.699417,0 C185.197472,0 191.275539,6.07851563 191.275539,13.5765703 C191.279539,17.1784066 189.85049,20.6338734 187.303605,23.1807579 C184.756721,25.7276424 181.301254,27.1566916 177.699417,27.152692 C170.201363,27.152692 164.122847,21.074168 164.122847,13.5765703 C164.122847,6.07851563 170.201363,0 177.699417,0 Z"/></svg>