<svg viewBox="0 0 1024 1024" xmlns="http://www.w3.org/2000/svg"  fill="currentColor" height="1em" width="1em">
  <path d="M107.946667 838.4l57.173333 23.893333v-385.28l-103.68 250.026667c-17.493333 43.52 3.413333 93.44 46.506667 111.36z m832-157.866667L728.32 169.813333a85.888 85.888 0 0 0-77.226667-52.48c-11.093333 0-22.613333 1.706667-33.706666 6.4L302.933333 253.866667a85.290667 85.290667 0 0 0-46.08 110.933333l211.626667 510.72a85.248 85.248 0 0 0 110.933333 46.08l314.026667-130.133333a85.077333 85.077333 0 0 0 46.506667-110.933334zM336.213333 373.333333c-23.466667 0-42.666667-19.2-42.666666-42.666666s19.2-42.666667 42.666666-42.666667 42.666667 19.2 42.666667 42.666667-19.2 42.666667-42.666667 42.666666z m-85.333333 469.333334c0 46.933333 38.4 85.333333 85.333333 85.333333h61.866667l-147.2-355.84v270.506667z"></path>
</svg>