<svg xmlns="http://www.w3.org/2000/svg" height="1em" width="1em" viewBox="0 0 64 37"><path fill="currentColor" d="M16.365,3.888 C12.8963333,3.888 10.1373333,5.18133333 8.088,7.768 C6.05466667,10.3533333 5.038,13.8766667 5.038,18.338 C5.038,22.7846667 6.05466667,26.3003333 8.088,28.885 C10.1373333,31.4716667 12.8963333,32.765 16.365,32.765 C19.8336667,32.765 22.577,31.4716667 24.595,28.885 C26.6283333,26.2996667 27.645,22.784 27.645,18.338 C27.645,13.876 26.6283333,10.3526667 24.595,7.768 C22.577,5.18133333 19.8336667,3.888 16.365,3.888 Z M16.365,0.01 C21.3156667,0.01 25.273,1.67666667 28.237,5.01 C31.201,8.32066667 32.683,12.7666667 32.683,18.348 C32.683,23.9133333 31.201,28.3593333 28.237,31.686 C25.273,34.9966667 21.3156667,36.652 16.365,36.652 C11.3983333,36.652 7.425,34.9966667 4.445,31.686 C1.48166667,28.368 0,23.9186667 0,18.338 C0,12.7566667 1.482,8.31066667 4.446,5 C7.426,1.66666667 11.3993333,0 16.366,0 L16.365,0.01 Z M61.682,1.76 L61.682,9.233 C59.742,8.36633333 57.85,7.712 56.006,7.27 C54.1613333,6.82866667 52.4193333,6.608 50.78,6.608 C48.604,6.608 46.996,6.908 45.956,7.508 C44.916,8.108 44.396,9.038 44.396,10.298 C44.396,11.2446667 44.7426667,11.9856667 45.436,12.521 C46.1453333,13.041 47.422,13.4903333 49.266,13.869 L53.144,14.649 C57.0706667,15.4376667 59.8613333,16.636 61.516,18.244 C63.172,19.852 64,22.1376667 64,25.101 C64,28.9943333 62.8413333,31.8953333 60.524,33.804 C58.222,35.696 54.6986667,36.642 49.954,36.642 C47.7153333,36.642 45.4686667,36.4286667 43.214,36.002 C40.9593333,35.5766667 38.7046667,34.946 36.45,34.11 L36.45,26.436 C38.7046667,27.634 40.8803333,28.5406667 42.977,29.156 C45.0903333,29.756 47.1236667,30.056 49.077,30.056 C51.0636667,30.056 52.585,29.725 53.641,29.063 C54.697,28.401 55.225,27.455 55.225,26.225 C55.225,25.1216667 54.8623333,24.2703333 54.137,23.671 C53.4276667,23.071 52.001,22.535 49.857,22.063 L46.333,21.283 C42.8016667,20.5263333 40.216,19.3203333 38.576,17.665 C36.952,16.0096667 36.14,13.7786667 36.14,10.972 C36.14,7.456 37.275,4.752 39.545,2.86 C41.815,0.968 45.0783333,0.022 49.335,0.022 C51.275,0.022 53.2693333,0.172 55.318,0.472 C57.3673333,0.756 59.488,1.18933333 61.68,1.772 L61.682,1.76 Z" transform="translate(0 .164)"/></svg>