<svg xmlns="http://www.w3.org/2000/svg" height="1em" width="1em" viewBox="0 0 18 18">
  <path fill="currentColor" d="M17.71,16.29 L14.31,12.9 C15.4069846,11.5024547 16.0022094,9.77665502 16,8 C16,3.581722 12.418278,0 8,0 C3.581722,0 0,3.581722 0,8 C0,12.418278 3.581722,16 8,16 C9.77665502,16.0022094 11.5024547,15.4069846 12.9,14.31 L16.29,17.71 C16.4777666,17.8993127 16.7333625,18.0057983 17,18.0057983 C17.2666375,18.0057983 17.5222334,17.8993127 17.71,17.71 C17.8993127,17.5222334 18.0057983,17.2666375 18.0057983,17 C18.0057983,16.7333625 17.8993127,16.4777666 17.71,16.29 Z M2,8 C2,4.6862915 4.6862915,2 8,2 C11.3137085,2 14,4.6862915 14,8 C14,11.3137085 11.3137085,14 8,14 C4.6862915,14 2,11.3137085 2,8 Z"/>
</svg>