<svg xmlns="http://www.w3.org/2000/svg" fill="currentColor" height="1em" width="1em" viewBox="0 0 64 64">
  <path d="M9.864 42.916c1.66-1.986 1.855-4.036.57-7.844-.814-2.4-2.165-4.264-1.172-5.76 1.058-1.595 3.304-.05 1.432 2.083l.374.26c2.246.26 3.353-2.816 1.676-3.694-4.427-2.3-8.3 2.132-6.6 7.275.732 2.18 1.758 4.492.928 6.33-.716 1.58-2.1 2.506-3.027 2.54-1.937.098-.65-4.345 1.58-5.452.195-.098.472-.228.212-.553-2.75-.3-4.362.96-5.3 2.734-2.702 5.16 5.126 7.063 9.3 2.083zM58.2 27.748c.635 1.562 1.595 3.108 1.025 4.476-.472 1.172-1.1 1.66-1.774 1.774-.96.163-.7-2.848.944-3.743.146-.08.358-.472.163-.7-2.083-.114-3.255.88-3.9 2.197-1.84 3.857 4.166 4.915 7.112 1.123 1.172-1.514 1.22-3 .098-5.73-.716-1.725-1.806-3-1.123-4.15.732-1.204 2.5-.163 1.172 1.448l.293.163c1.7.098 2.4-2.18 1.107-2.75-3.434-1.465-6.64 2.23-5.126 5.9zM36.456 23.63c-1.188-.944-4.524.635-5.468 2.978-1.188 2.978-2.946 7.324-4.67 9.228-1.823 2.002-2.002.456-1.823-.7.423-2.718 3.076-9.016 4.524-10.8-.537-.797-4.052-.684-6.494 3.108-.9 1.432-2.995 6.2-5.306 9.96-.505.814-1.14.244-.65-1.66.553-2.197 2.18-8.235 4.28-12.987 5.5-1.1 11.343-1.855 15.82-1.872.602-.163 1-.7 0-.732-3.857-.13-9.65.325-15.07 1 1.04-2.063 2.163-3.733 3.3-4.433-1.237-.78-3.743-.472-5.175 1.644-.635.944-1.27 2.083-1.872 3.32-3.97.618-7.372 1.318-9.098 1.97-1.8.684-1.595 2.848-.505 2.44 2.262-.846 5.322-1.725 8.723-2.506-2.165 4.882-3.857 10.644-4.264 12.987-1 5.696 2.523 5.664 4.248 3.418 1.872-2.457 5.777-11.1 6.38-12 .18-.3.423-.146.293.13-4.362 8.707-3.987 12.076-.456 11.327 1.595-.342 4.345-3.076 5.06-4.492.146-.342.456-.3.4-.163-2.767 7.177-6.282 12.987-8.642 14.8-2.148 1.644-3.743-1.92 3.857-7.03 1.123-.765.602-1.806-.667-1.448-3.922.618-15.152 4.183-20.083 7.6-.374.26-.716.472-.7 1 .016.3.553.195.814.033 6.38-3.825 11.604-5.322 17.593-6.575.08.033.18.05.26.016.277-.065.26.08.08.195-.407.228-.814.44-.9.472-4.036 1.58-6.477 5.06-5.615 6.835.732 1.53 4.687.976 6.56-.033 4.6-2.5 7.926-7.372 10.204-14.1 1.986-5.973 4.492-12.743 5.078-12.938zM63.13 37.415c-7.47-.976-23.582.325-30.694 2.213-2.116.553-1.53 1.676-.456 1.465.016 0 .472-.114.488-.114 5.843-1.14 20.018-2.132 28.285-.553.993.18 3.97-2.8 2.376-3zm-24.6-.88c2.083-1.042 5.175-7.486 7.2-11.018.146-.26.407-.05.26.13-5.143 8.853-2.962 9.88-.928 9.748 2.718-.163 5.224-4.07 5.777-4.947.228-.342.358-.065.228.18-.13.407-.602 1.123-1.042 2.1-.618 1.383.033 1.92.57 2.165.846.407 3.157.146 3.515-1.27-2.3-.05 3.222-10.953 3.792-11.62-1.546-.895-3.938.08-5.03 2.23-2.327 4.606-4.28 8.316-5.5 8.38-2.376.13 2.734-10.27 3.564-10.595-.505-.732-3.743-.423-5.55 2.376-.65 1-4.622 8.04-5.598 9.195-1.725 2.05-1.855.293-1.367-1.758.163-.7.44-1.595.797-2.588 1.14-2.57 2.36-3.385 3.108-4.215 5.03-5.582 7.9-10.107 6.77-11.88-1-1.58-4.378-.88-6.542 2.376-3.987 5.973-7.665 14.16-8.137 17.902-.456 3.743 2.262 4.02 4.1 3.108zm2.116-10.953c.18-.407.293-.52.602-1.204 1.8-3.938 4.036-8.088 5.582-10.025.96-1 2.3.358-.13 4.1a37.625 37.625 0 0 1-4.834 6.038c-.456.52-.863.944-1.042 1.188-.13.163-.277.13-.18-.098z"/>
</svg>
