<svg xmlns="http://www.w3.org/2000/svg" viewBox="0 0 24 24" fill="currentColor" class="light" height="1em" width="1em">
  <path d="M6.995 12c0 2.761 2.246 5.007 5.007 5.007s5.007-2.246 5.007-5.007-2.246-5.007-5.007-5.007S6.995 9.239 6.995 12zM11 19h2v3h-2zm0-17h2v3h-2zm-9 9h3v2H2zm17 0h3v2h-3zM5.637 19.778l-1.414-1.414 2.121-2.121 1.414 1.414zM16.242 6.344l2.122-2.122 1.414 1.414-2.122 2.122zM6.344 7.759 4.223 5.637l1.415-1.414 2.12 2.122zm13.434 10.605-1.414 1.414-2.122-2.122 1.414-1.414z"/>
</svg>
