<svg aria-hidden="true" xmlns="http://www.w3.org/2000/svg" fill="currentColor" viewBox="0 0 14 14" height="1em" width="1em">
  <path d="m13 5.065-.96-2.378-.6-1.44L8.65 1l-.435.42-.555-.21-1.763.938L4 1.022l-3 1.23 1.612 9.586L9.25 13l.42-2.13.075-.045h-6.57v-7.65h7.65v7.013L13 8.898l-1.313-2.46m-8.362 4.238h7.35V3.325h-7.35v7.35zm3.45-.863H3.963V9.34h2.812v.473zm2.063-5.648c.412 0 .824.15 1.14.398l-.353.525a1.383 1.383 0 0 0-.787-.3c-.248 0-.398.112-.398.284 0 .202.136.278.66.405.615.173.975.398.975.938 0 .622-.473.975-1.125.975a2.16 2.16 0 0 1-1.312-.502l.389-.489c.285.225.563.375.923.375.278 0 .45-.112.45-.3 0-.173-.114-.262-.615-.397-.623-.165-1.02-.338-1.02-.952v-.022c0-.563.45-.938 1.073-.938Zm-4.313.06.472 1.8.525-1.8h.525l.526 1.8.464-1.8h.736l-.9 3.112h-.586l-.502-1.8-.51 1.8h-.577l-.9-3.112h.728z"/>
</svg>
